<?xml version="1.0" encoding="utf-8"?>
<!-- Generator: Adobe Illustrator 21.0.2, SVG Export Plug-In . SVG Version: 6.00 Build 0)  -->
<svg version="1.1" id="Capa_1" xmlns="http://www.w3.org/2000/svg" xmlns:xlink="http://www.w3.org/1999/xlink" x="0px" y="0px"
	 viewBox="0 0 1455 1085" style="enable-background:new 0 0 1455 1085;" xml:space="preserve">
<style type="text/css">
	.st0{opacity:0.1;}
	.st1{fill:#808080;}
	.st2{fill:#08090A;}
	.st3{fill:none;}
</style>
<g class="st0">
	<path class="st1" d="M345,990l6.3-1.2l-213.7-61.8c-0.3,1-0.7,1.8-1.2,2.6L345,990z"/>
	<path class="st1" d="M129.7,922.6c0.6-0.7,1.3-1.4,2.2-1.9L63.6,850c-0.7,0.7-1.3,1.4-2.1,2L129.7,922.6z"/>
	<path class="st1" d="M308,879c-0.7-0.7-1-2.1-1.4-2.9L137,919c0.8,0.5,1.4,1.2,2,2L308,879z"/>
	<path class="st1" d="M137.1,922.8c0.4,0.8,0.9,1.8,1.1,2.9l206.4,0.6v3c-0.1-1-0.1-4.9,0.1-5.8L137.1,922.8z"/>
	<path class="st2" d="M65.3,855.9c0.8-0.6,1.6-1.2,2.1-2c1.5-1.9,2.2-4.5,1.7-7.2c-1-4.7-5.6-7.8-10.4-6.9c-1.4,0.3-2.7,1-3.7,1.8
		c-0.7,0.6-1.4,1.3-1.9,2.1c-1.2,1.8-1.6,3.9-1.3,6.1c0,0.2,0.1,0.3,0.1,0.5c0.2,0.8,0.4,1.5,0.8,2.3c1.8,3.4,5.7,5.4,9.6,4.6
		C63.5,856.9,64.5,856.5,65.3,855.9z"/>
	<path class="st2" d="M142.1,928.8c0.8-1.4,1.3-3.1,1.2-4.9c0-0.1,0-0.2,0-0.3c0-1-0.3-2.1-0.7-3c0-0.1-0.1-0.2-0.1-0.3
		c-0.4-0.9-1-1.7-1.7-2.3c-1.5-1.3-3.3-2.2-5.3-2.5c-0.4-0.1-0.9-0.1-1.3,0c-0.6,0-1.1,0.1-1.6,0.2c-1.7,0.4-3.1,1.2-4.3,2.4
		c-0.8,0.7-1.3,1.6-1.8,2.5c-0.5,1.3-0.9,2.7-0.8,4.2c0,1,0.3,2,0.6,2.9c0.3,0.9,0.9,1.7,1.5,2.4c0.4,0.5,0.9,1,1.5,1.3
		c0.8,0.7,1.8,1.1,2.8,1.4c0.8,0.3,1.7,0.4,2.6,0.4c0.1,0,0.2,0,0.3,0c0.9,0,1.8-0.2,2.6-0.5c1.1-0.4,2.1-0.9,2.8-1.6
		C141.1,930.5,141.7,929.7,142.1,928.8z"/>
	<path class="st3" d="M1121.7,572.9l-136,55.1c0.5,0.8,0.8,1.6,1.1,2.5l96.5,28.3c1.2-3.4,4.5-5.8,8.3-5.8c4.9,0,8.8,4,8.8,8.8
		c0,2.6-1.1,4.9-2.9,6.6l76.7,119.9c0.1,0,0.2-0.1,0.2-0.1l-46.1-211.4C1125.6,576.7,1123.2,575.1,1121.7,572.9z"/>
	<path class="st3" d="M1078.1,860.9l-19.3-35.7c-0.9,0.3-1.9,0.5-2.9,0.5c-0.8,0-1.5-0.1-2.3-0.3l-59.9,111c0.2,0.2,0.4,0.3,0.6,0.5
		l82-63.6c-1.1-1.5-1.8-3.3-1.8-5.3C1074.6,865.1,1076,862.5,1078.1,860.9z"/>
	<path class="st3" d="M1092.3,868c0,2.8-1.3,5.3-3.3,6.9l15.6,28.9c0.8-0.2,1.5-0.3,2.4-0.3c1.1,0,2.1,0.2,3,0.6l62-100.8
		c-0.1-0.1-0.1-0.1-0.2-0.2l-80,62C1092.1,866,1092.3,867,1092.3,868z"/>
	<path class="st3" d="M1083.4,876.8c-1.8,0-3.5-0.6-4.9-1.5L999,937l99.6-27.5c0.6-1.9,1.8-3.4,3.4-4.5l-15.5-28.7
		C1085.5,876.6,1084.5,876.8,1083.4,876.8z"/>
	<path class="st3" d="M1131.3,576.7l46.1,211c0.2,0,0.3,0,0.5,0c1.1,0,2.1,0.2,3,0.5l51.1-91c-2-1.6-3.3-4.1-3.3-6.9
		c0-2.1,0.7-4,1.9-5.5l-97.8-108.6C1132.3,576.4,1131.8,576.6,1131.3,576.7z"/>
	<path class="st3" d="M1091.6,670.8c-0.2,0-0.4,0-0.6,0l-31.8,138c3.2,1.3,5.5,4.5,5.5,8.2c0,2.8-1.3,5.4-3.4,7l19.3,35.7
		c0.9-0.3,1.8-0.4,2.7-0.4c2.8,0,5.3,1.3,6.9,3.3l79.6-61.8c-0.7-1.3-1.1-2.7-1.1-4.2c0-2.6,1.1-4.9,2.9-6.6l-76.7-119.9
		C1094,670.5,1092.9,670.8,1091.6,670.8z"/>
	<path class="st3" d="M1218,290.9c0,1.9-0.6,3.7-1.7,5.2l63.5,123.6l-21.3-136.2c-3.6-1.1-6.2-4.5-6.2-8.4c0-3,1.5-5.6,3.8-7.2
		l-19-121.3L1214.7,284C1216.7,285.6,1218,288.1,1218,290.9z"/>
	<path class="st3" d="M1198.8,183.4l-68.3,85.9c1.4,1.6,2.3,3.6,2.3,5.9v0.1l68.1,12.2c1.3-3.2,4.5-5.5,8.2-5.5c0.4,0,0.8,0,1.2,0.1
		l-6.1-97.3c-0.2,0-0.4,0-0.6,0C1201.9,184.9,1200.2,184.3,1198.8,183.4z"/>
	<path class="st3" d="M1200.3,290.9c0-0.2,0-0.4,0-0.5l-68-12.2c-0.5,1.3-1.2,2.5-2.2,3.5l86.2,127.4c0.6-0.3,1.3-0.5,2-0.6
		l-6.8-109c-0.7,0.2-1.5,0.3-2.3,0.3C1204.3,299.7,1200.3,295.8,1200.3,290.9z"/>
	<path class="st3" d="M1124.2,284l-16.5,114.7c1.3,1.5,2.1,3.5,2.1,5.7c0,0.5-0.1,1-0.1,1.5l102.4,7.5c0.5-1,1.2-2,2-2.7
		l-86.2-127.4C1126.6,283.7,1125.4,284,1124.2,284z"/>
	<path class="st3" d="M1138,568.1c0,2.5-1.1,4.8-2.8,6.4l97.5,108.3c0.8-0.5,1.8-0.9,2.8-1.2l-16-255.8c-1.2-0.1-2.3-0.4-3.3-0.9
		l-81.6,136C1136.6,562.7,1138,565.2,1138,568.1z"/>
	<path class="st3" d="M1103.8,412.8l25,146.5c0.1,0,0.2,0,0.4,0c1,0,1.9,0.2,2.7,0.4l81.8-136.4c-1.6-1.6-2.6-3.8-2.6-6.2
		c0-0.3,0-0.6,0-0.9l-102.5-7.5C1107.6,410.6,1105.8,412,1103.8,412.8z"/>
	<path class="st3" d="M1055.9,808.1c0.2,0,0.4,0,0.6,0l31.8-138c-3.2-1.3-5.5-4.5-5.5-8.2c0-0.1,0-0.1,0-0.2l-95.7-28.1
		c-0.2,2.4-1.5,4.6-3.3,6l66.8,170.3C1052,808.8,1053.9,808.1,1055.9,808.1z"/>
	<path class="st3" d="M1228.8,417.1L1228.8,417.1l45.9,10.1c0.6-1.9,1.8-3.6,3.4-4.7l-63.8-124.1l6.9,110
		C1225.5,409,1228.8,412.6,1228.8,417.1z"/>
	<path class="st3" d="M1275.3,535c-3.1-1.4-5.3-4.5-5.3-8.1s2.2-6.7,5.3-8.1l-52.4-93.4c-0.2,0.1-0.5,0.2-0.7,0.2l16,255.4
		L1275.3,535z"/>
	<path class="st3" d="M1114.5,907.7l129.4,1.7c0.9-2.6,2.9-4.6,5.5-5.5l-67.9-99.4c-1.1,0.5-2.4,0.8-3.7,0.8c-1.2,0-2.3-0.2-3.3-0.7
		l-61.9,100.7C1113.3,906,1114,906.8,1114.5,907.7z"/>
	<path class="st3" d="M1212.5,176c0,3.7-2.2,6.8-5.4,8.2l5.8,92.7l22.4-137.7c-0.4-0.1-0.7-0.3-1.1-0.4l-24.5,30.8
		C1211.5,171.2,1212.5,173.5,1212.5,176z"/>
	<path class="st3" d="M933.7,863.2c-4,0-7.3-2.6-8.4-6.2l-194.4,26.4c0.3,0.8,0.4,1.7,0.5,2.6l248.9,54.3c0.6-1.4,1.5-2.6,2.6-3.6
		l-43.6-75.3C937.6,862.5,935.7,863.2,933.7,863.2z"/>
	<path class="st3" d="M845.2,973c1.6-2.1,4.1-3.4,6.9-3.4c3.8,0,7,2.4,8.3,5.7l118-32.6L731,888.8c-0.3,1.1-0.8,2-1.5,2.9L845.2,973
		z"/>
	<path class="st3" d="M1047.8,820.3l-105.3,32.8c0.1,0.4,0.1,0.8,0.1,1.2c0,1.7-0.5,3.4-1.4,4.7l44.1,76.1c1-0.4,2-0.6,3.1-0.6
		c1,0,2,0.2,2.9,0.5l59.7-110.8C1049.6,823.3,1048.4,821.9,1047.8,820.3z"/>
	<path class="st3" d="M1120.3,568.1c0-3.8,2.3-7,5.7-8.2l-25-146.6l0,0c-1.1,0-2.1-0.2-3-0.5L979.8,624.1c1.4,0.3,2.8,0.9,3.9,1.7
		l136.9-55.5C1120.4,569.6,1120.3,568.9,1120.3,568.1z"/>
	<path class="st3" d="M762,836.5c-1,3.7-4.5,6.4-8.5,6.4c-1.2,0-2.3-0.2-3.3-0.6l-22.3,36.9c0.5,0.4,1,0.9,1.4,1.4L922,854.5
		L762,836.5z"/>
	<path class="st3" d="M927.4,848.1L841.5,729c-1.6,2.2-4.2,3.7-7.2,3.7c-1.4,0-2.7-0.3-3.9-0.9L759.7,828c1.5,1.5,2.4,3.5,2.5,5.7
		L925.1,852C925.6,850.5,926.4,849.1,927.4,848.1z"/>
	<path class="st3" d="M1047.1,816.9c0-1.7,0.5-3.2,1.3-4.6L981.2,641c-0.9,0.3-1.9,0.5-2.9,0.5c-0.1,0-0.2,0-0.2,0l-39.6,205.3
		c1.3,0.9,2.4,2.1,3.2,3.5l105.5-32.9C1047.1,817.3,1047.1,817.1,1047.1,816.9z"/>
	<path class="st1" d="M1186.5,797.8l154.6-2.8v-2.9l-154.6,2.8c0.1,0.5,0.2,1,0.2,1.6C1186.6,797,1186.6,797.4,1186.5,797.8z"/>
	<path class="st1" d="M1326.1,1024.9v-5.1l-72.5-105.5c-0.4,1-0.9,2-1.6,2.8L1326.1,1024.9z"/>
	<path class="st1" d="M1248.8,909c0.9-0.3,1.9-0.5,3-0.5c0.1,0,0.2,0,0.3,0l-69.3-106.2c-0.7,0.7-1.6,1.2-2.5,1.7L1248.8,909z"/>
	<path class="st1" d="M1343.1,798.5v-4.8L1258,905.6c0.8,0.6,1.4,1.4,1.9,2.3L1343.1,798.5z"/>
	<path class="st1" d="M1112.5,905.4l61.9-100.7c-0.9-0.4-1.7-0.9-2.4-1.5L1110,904C1110.9,904.3,1111.8,904.8,1112.5,905.4z"/>
	<path class="st1" d="M1057,990.2l-32.7,35.8h3.4l31.5-33.9C1058.4,991.6,1057.6,991,1057,990.2z"/>
	<path class="st1" d="M1065.7,976c1,0.2,1.9,0.6,2.7,1.1l34.9-56.8c-0.9-0.4-1.7-0.9-2.4-1.6L1065.7,976z"/>
	<path class="st1" d="M980.1,940.1l-248.9-54.3c0,0.1,0,0.2,0,0.3c0,0.9-0.1,1.8-0.4,2.6l247.4,53.9l-118,32.6
		c0.3,0.9,0.5,1.8,0.6,2.8l118.8-32.8c-0.1-0.6-0.2-1.2-0.2-1.9C979.5,942.3,979.7,941.2,980.1,940.1z"/>
	<polygon class="st1" points="351.1,924 348.2,929.7 349.7,988.4 352.9,990 	"/>
	<path class="st1" d="M658.8,954c-0.4,0.9-1,1.7-1.7,2.5l74.5,49.3c0.5-0.9,1.2-1.6,2-2.3L658.8,954z"/>
	<path class="st1" d="M652.7,960.3l-20.9,61.8l3.2-0.9l20.2-59.5C654.3,961.4,653.4,960.9,652.7,960.3z"/>
	<path class="st1" d="M750.2,842.3c-0.9-0.4-1.7-0.9-2.5-1.5l-22.3,37c0.9,0.3,1.8,0.8,2.5,1.4L750.2,842.3z"/>
	<path class="st1" d="M720.4,890.8c-0.8-0.6-1.4-1.4-1.9-2.2L657,950.3c0.9,0.4,1.8,0.9,2.5,1.6L720.4,890.8z"/>
	<path class="st1" d="M1234.3,138.8c-0.9-0.4-1.7-1-2.4-1.7l-24.6,30.9c0.9,0.4,1.7,1,2.4,1.6L1234.3,138.8z"/>
	<path class="st1" d="M1198.8,183.4c-0.8-0.5-1.5-1.2-2.1-2l-68.4,86.1c0.8,0.5,1.6,1.1,2.2,1.8L1198.8,183.4z"/>
	<path class="st1" d="M1242.7,697.4l102.4,98.4v-4l-100.4-96.4C1244.1,696.1,1243.5,696.8,1242.7,697.4z"/>
	<path class="st1" d="M1295.1,663.1v-3.2l-50.5,25.3c0.6,0.8,1,1.6,1.3,2.6L1295.1,663.1z"/>
	<path class="st1" d="M1235.3,139.2l-22.4,137.7l-5.8-92.7c-0.9,0.4-1.8,0.6-2.8,0.7l6.1,97.3c1.6,0.2,3.1,0.9,4.3,1.9l22.4-137.5
		l19,121.3c0.8-0.6,1.7-1,2.7-1.3L1239,139.8c-0.3,0-0.5,0-0.8,0C1237.2,139.7,1236.2,139.5,1235.3,139.2z"/>
	<path class="st1" d="M1180.8,788.2c0.9,0.3,1.8,0.8,2.5,1.4l51.1-91c-0.9-0.3-1.8-0.8-2.5-1.4L1180.8,788.2z"/>
	<path class="st1" d="M1316.7,1023l6-0.2L1112.8,912c0,1.1-0.2,2.1-0.6,3L1316.7,1023z"/>
	<path class="st1" d="M1114.5,907.7c0.5,0.9,0.9,1.8,1.1,2.9l127.8,1.7c0-1,0.2-2,0.5-2.9L1114.5,907.7z"/>
	<path class="st1" d="M1078.1,860.9c0.8-0.6,1.6-1,2.5-1.3l-19.3-35.7c-0.8,0.6-1.6,1.1-2.5,1.4L1078.1,860.9z"/>
	<path class="st1" d="M1086.5,876.3L1102,905c0.8-0.5,1.7-0.9,2.6-1.2l-15.6-28.9C1088.2,875.5,1087.4,876,1086.5,876.3z"/>
	<path class="st1" d="M1098.6,909.5L999,937l79.5-61.7c-0.8-0.5-1.5-1.2-2.1-2l-82,63.6c1.1,1,1.9,2.3,2.4,3.7l101.4-28
		c0-0.1,0-0.2,0-0.3C1098.1,911.3,1098.3,910.4,1098.6,909.5z"/>
	<path class="st1" d="M1091.8,865l80-62c-0.7-0.7-1.3-1.4-1.8-2.3l-79.6,61.8C1090.9,863.3,1091.4,864.1,1091.8,865z"/>
	<path class="st1" d="M739.1,1006H751l93.4-23.3c-0.5-0.8-0.9-1.8-1.1-2.7L739.1,1006z"/>
	<path class="st1" d="M1014.4,1029h9.4l-162.9-49.6c-0.1,1-0.4,1.9-0.8,2.8L1014.4,1029z"/>
	<path class="st1" d="M1020.7,1024h3.2l-30.5-73.3c-0.8,0.5-1.7,0.9-2.6,1.2L1020.7,1024z"/>
	<path class="st1" d="M1111.7,919.7l74.2,108.3h3.5l-75.6-110.3C1113.3,918.5,1112.6,919.2,1111.7,919.7z"/>
	<path class="st1" d="M1181.8,1031h8.1l-117.4-44.6c-0.2,1-0.6,1.9-1,2.7L1181.8,1031z"/>
	<path class="st1" d="M1132.7,576.2l97.8,108.6c0.6-0.8,1.3-1.4,2.1-1.9l-97.5-108.3C1134.5,575.2,1133.6,575.8,1132.7,576.2z"/>
	<path class="st1" d="M1275.3,518.9c0.9-0.4,1.9-0.6,2.9-0.7l-52.7-94.1c-0.7,0.6-1.6,1.1-2.5,1.4L1275.3,518.9z"/>
	<path class="st1" d="M1238.3,681.1l-16-255.4c-0.7,0.2-1.5,0.3-2.3,0.3c-0.2,0-0.4,0-0.6,0l16,255.8c0.6-0.1,1.3-0.2,2-0.2
		c1.3,0,2.5,0.3,3.5,0.7l37.2-146.5c-1-0.1-1.9-0.3-2.8-0.7L1238.3,681.1z"/>
	<path class="st1" d="M1134.4,561l81.6-136c-0.9-0.4-1.7-1-2.3-1.7l-81.8,136.4C1132.8,560,1133.6,560.5,1134.4,561z"/>
	<path class="st1" d="M1127.7,283.2l86.2,127.4c0.7-0.7,1.5-1.2,2.4-1.6l-86.2-127.4C1129.4,282.3,1128.6,282.8,1127.7,283.2z"/>
	<path class="st1" d="M1274.6,427.2l-45.9-10c0,1-0.2,1.9-0.5,2.8l46,10.1c0-0.1,0-0.2,0-0.3C1274.3,428.8,1274.4,428,1274.6,427.2z
		"/>
	<path class="st1" d="M1243,138.2l72.1,58.5V193l-70-56.8C1244.5,137,1243.8,137.7,1243,138.2z"/>
	<path class="st1" d="M1108.6,408.7l102.5,7.5c0.1-1,0.4-2,0.8-2.8l-102.4-7.5C1109.4,406.9,1109.1,407.8,1108.6,408.7z"/>
	<path class="st1" d="M1003.6,398.1c-0.2,1-0.5,2-1,2.8l90,6.6c-0.3-0.9-0.5-1.9-0.6-2.9L1003.6,398.1z"/>
	<path class="st1" d="M1107.7,398.7l16.5-114.7c-0.1,0-0.1,0-0.2,0c-0.9,0-1.8-0.1-2.7-0.4l-16.3,113
		C1106,397.1,1106.9,397.9,1107.7,398.7z"/>
	<path class="st1" d="M736.5,1001.9c0.9-0.3,1.8-0.5,2.8-0.5l0,0L722.2,895c-1.1,0-2.1-0.3-3-0.6L736.5,1001.9z"/>
	<path class="st1" d="M624.9,1027h7.7l-130.2-45.2c-0.2,1-0.5,1.9-0.9,2.7L624.9,1027z"/>
	<path class="st1" d="M354.8,925l0.1,3.1l130.8,49.7c0.3-0.9,0.7-1.8,1.2-2.6L354.8,925z"/>
	<path class="st1" d="M501.2,975.5c0.5,0.9,1,1.9,1.2,3L608,935c-0.5-0.9-0.9-1.9-1.1-3L501.2,975.5z"/>
	<path class="st1" d="M352.3,988.3c0.4,0.9,0.6,1.8,0.7,2.8l135.8-7.4c-0.4-0.9-0.5-1.8-0.6-2.8L352.3,988.3z"/>
	<path class="st1" d="M352.4,992.3c0.8,1,1.5,2,1.7,3l274.1,36.7c-0.8-1-1.3-1.9-1.5-2.9L352.4,992.3z"/>
	<path class="st1" d="M716.8,889.7l-1.1-2.7l-115.9,47.8c0.5,0.8,0.9,1.7,1.2,2.6L716.8,889.7z"/>
	<path class="st1" d="M1120.6,570.3l-136.9,55.5c0.8,0.6,1.5,1.4,2,2.3l136-55.1C1121.2,572.1,1120.8,571.2,1120.6,570.3z"/>
	<path class="st1" d="M1095.1,670.1l76.7,119.9c0.7-0.6,1.5-1.2,2.4-1.6l-76.7-119.9C1096.8,669.2,1096,669.7,1095.1,670.1z"/>
	<path class="st1" d="M1051,824.2L991.2,935c0.9,0.3,1.8,0.8,2.5,1.4l59.9-111C1052.7,825.2,1051.8,824.8,1051,824.2z"/>
	<path class="st1" d="M1047.1,817.5l-105.5,32.9c0.4,0.8,0.7,1.8,0.9,2.7l105.3-32.8C1047.4,819.4,1047.2,818.5,1047.1,817.5z"/>
	<path class="st2" d="M1086.5,876.3c0.9-0.3,1.8-0.8,2.5-1.4c2-1.6,3.3-4.1,3.3-6.9c0-1-0.2-2-0.5-3c-0.3-0.9-0.8-1.8-1.4-2.5
		c-1.6-2-4.1-3.3-6.9-3.3c-1,0-1.9,0.2-2.7,0.4c-0.9,0.3-1.8,0.8-2.5,1.3c-2.1,1.6-3.5,4.2-3.5,7.1c0,2,0.7,3.8,1.8,5.3
		c0.6,0.8,1.3,1.5,2.1,2c1.4,1,3.1,1.5,4.9,1.5C1084.5,876.8,1085.5,876.6,1086.5,876.3z"/>
	<path class="st2" d="M664.4,953.7c0-3.4-2-6.4-4.9-7.9c-0.9-0.4-1.8-0.7-2.8-0.9c-0.4,0-0.8-0.1-1.1-0.1c-4.9,0-8.8,4-8.8,8.8
		c0,1.9,0.6,3.7,1.6,5.1c0.6,0.8,1.3,1.5,2.1,2.1c1.4,1,3.2,1.6,5.1,1.6c2.5,0,4.7-1,6.3-2.7c0.7-0.7,1.2-1.5,1.6-2.4
		C664.1,956.3,664.4,955,664.4,953.7z"/>
	<path class="st1" d="M956.1,125.9c-0.4,0.7-1,1.3-1.7,1.8l164.1,145.9c0.2-0.8,0.6-1.7,1-2.4L956.1,125.9z"/>
	<path class="st2" d="M962.8,120.6c-2.3-4.3-7.7-5.9-12-3.5c-4.3,2.3-5.9,7.7-3.5,12c2.3,4.3,7.7,5.9,12,3.5
		c0.5-0.3,0.9-0.6,1.3-0.9c0.8-0.6,1.4-1.3,1.9-2.1C964.2,126.9,964.4,123.5,962.8,120.6z"/>
	<path class="st2" d="M1112.5,905.4c-0.7-0.6-1.6-1.1-2.5-1.4c-1-0.4-2-0.6-3-0.6c-0.8,0-1.6,0.1-2.4,0.3c-0.9,0.3-1.8,0.7-2.6,1.2
		c-1.6,1.1-2.8,2.7-3.4,4.5c-0.3,0.9-0.5,1.8-0.5,2.8c0,0.1,0,0.2,0,0.3c0.1,2.4,1.1,4.6,2.8,6.1c0.7,0.7,1.5,1.2,2.4,1.6
		c1.1,0.5,2.3,0.8,3.6,0.8c1.8,0,3.4-0.5,4.8-1.4c0.8-0.5,1.5-1.2,2.1-1.9c0.5-0.6,0.9-1.3,1.2-2c0.4-0.9,0.6-1.9,0.7-2.9
		c0-0.2,0-0.4,0-0.6c0-0.6-0.1-1.2-0.2-1.7c-0.2-1-0.6-2-1.1-2.9C1114,906.8,1113.3,906,1112.5,905.4z"/>
	<path class="st2" d="M1063.8,975.8c-4.9,0-8.8,4-8.8,8.8c0,2.1,0.7,4.1,2,5.6c0.6,0.8,1.4,1.4,2.2,1.9c1.4,0.8,2.9,1.3,4.6,1.3
		c3.3,0,6.1-1.8,7.6-4.4c0.5-0.8,0.8-1.7,1-2.7c0.1-0.6,0.2-1.2,0.2-1.8c0-3.2-1.7-6-4.2-7.5c-0.8-0.5-1.7-0.9-2.7-1.1
		C1065.1,975.9,1064.5,975.8,1063.8,975.8z"/>
	<path class="st2" d="M1187.8,1021.8c-4.9,0-8.8,4-8.8,8.8c0,2.1,0.7,4.1,2,5.6c0.6,0.8,1.4,1.4,2.2,1.9c1.4,0.8,2.9,1.3,4.6,1.3
		c3.3,0,6.1-1.8,7.6-4.4c0.5-0.8,0.8-1.7,1-2.7c0.1-0.6,0.2-1.2,0.2-1.8c0-3.2-1.7-6-4.2-7.5c-0.8-0.5-1.7-0.9-2.7-1.1
		C1189.1,1021.9,1188.5,1021.8,1187.8,1021.8z"/>
	<path class="st2" d="M1249.4,904c-2.6,0.9-4.6,2.9-5.5,5.5c-0.3,0.9-0.5,1.9-0.5,2.9l0,0c0,4.9,4,8.8,8.8,8.8
		c2.7,0,5.1-1.2,6.7-3.1c0.7-0.8,1.2-1.7,1.6-2.8c0.2-0.5,0.3-1.1,0.4-1.6c0.1-0.4,0.1-0.9,0.1-1.3c0-0.6-0.1-1.1-0.2-1.6
		c-0.2-1-0.6-2-1.1-2.8c-0.5-0.9-1.1-1.6-1.9-2.3c-1.5-1.3-3.4-2-5.4-2.1c-0.1,0-0.2,0-0.3,0C1251.2,903.5,1250.3,903.6,1249.4,904z
		"/>
	<path class="st2" d="M1235.4,681.7c-1,0.2-1.9,0.6-2.8,1.2c-0.8,0.5-1.5,1.2-2.1,1.9c-1.2,1.5-1.9,3.4-1.9,5.5
		c0,2.8,1.3,5.3,3.3,6.9c0.7,0.6,1.6,1.1,2.5,1.4c0.9,0.3,2,0.5,3,0.5c2,0,3.8-0.7,5.3-1.8c0.8-0.6,1.5-1.3,2-2.1
		c1-1.4,1.6-3.1,1.6-5c0-0.9-0.1-1.8-0.4-2.6c-0.3-0.9-0.7-1.8-1.3-2.6c-0.9-1.3-2.2-2.3-3.6-2.9c-1.1-0.5-2.3-0.7-3.5-0.7
		C1236.7,681.5,1236.1,681.6,1235.4,681.7z"/>
	<path class="st2" d="M1228.8,417.1c0-4.5-3.3-8.2-7.6-8.7c-0.4-0.1-0.8-0.1-1.2-0.1c-0.6,0-1.1,0.1-1.7,0.2c-0.7,0.1-1.3,0.3-2,0.6
		c-0.9,0.4-1.7,0.9-2.4,1.6c-0.8,0.8-1.5,1.7-2,2.7c-0.4,0.9-0.7,1.8-0.8,2.8c0,0.3,0,0.6,0,0.9c0,2.4,1,4.6,2.6,6.2
		c0.7,0.7,1.5,1.2,2.3,1.7c1,0.5,2.1,0.8,3.3,0.9c0.2,0,0.4,0,0.6,0c0.8,0,1.6-0.1,2.3-0.3c0.2-0.1,0.5-0.1,0.7-0.2
		c0.9-0.3,1.8-0.8,2.5-1.4c1.3-1,2.3-2.4,2.8-4C1228.6,419.1,1228.8,418.1,1228.8,417.1L1228.8,417.1z"/>
	<path class="st2" d="M1198.8,183.4c1.4,0.9,3.1,1.5,4.9,1.5c0.2,0,0.4,0,0.6,0c1-0.1,2-0.3,2.8-0.7c3.2-1.3,5.4-4.5,5.4-8.2
		c0-2.5-1.1-4.8-2.8-6.4c-0.7-0.7-1.5-1.2-2.4-1.6c-1.1-0.5-2.4-0.8-3.7-0.8c-4.9,0-8.8,4-8.8,8.8c0,2,0.7,3.9,1.8,5.4
		C1197.3,182.2,1198,182.9,1198.8,183.4z"/>
	<path class="st2" d="M1004.7,397.7c0-4.9-4-8.8-8.8-8.8s-8.8,4-8.8,8.8s4,8.8,8.8,8.8c3.3,0,6.2-1.8,7.7-4.6c0.5-0.9,0.8-1.8,1-2.8
		C1004.7,398.6,1004.7,398.2,1004.7,397.7z"/>
	<path class="st1" d="M1267.6,42.4c-0.9-0.4-1.8-0.9-2.5-1.6l-27,86.1c1-0.1,2-0.1,3,0.1L1267.6,42.4z"/>
	<path class="st2" d="M1266.9,43.6c4.8,1.1,9.5-1.8,10.6-6.6s-1.8-9.5-6.6-10.6c-4.8-1.1-9.5,1.8-10.6,6.6c-0.8,3.2,0.4,6.5,2.7,8.6
		c0.7,0.7,1.6,1.2,2.5,1.6C1266,43.3,1266.4,43.5,1266.9,43.6z"/>
	<path class="st1" d="M1201,287.5l-68.1-12.2c0,1-0.2,1.9-0.5,2.8l68,12.2C1200.4,289.3,1200.6,288.4,1201,287.5z"/>
	<path class="st2" d="M1124.2,284c1.3,0,2.4-0.3,3.5-0.8c0.9-0.4,1.7-1,2.4-1.6c1-0.9,1.8-2.1,2.2-3.5c0.3-0.9,0.5-1.8,0.5-2.8v-0.1
		c0-2.3-0.9-4.4-2.3-5.9c-0.6-0.7-1.4-1.3-2.2-1.8c-0.8-0.4-1.7-0.8-2.6-1c-0.5-0.1-1.1-0.2-1.7-0.2c-0.4,0-0.8,0-1.2,0.1
		s-0.8,0.1-1.2,0.2c-0.9,0.3-1.8,0.7-2.6,1.2c-0.3,0.2-0.5,0.4-0.8,0.6c-0.7,0.6-1.4,1.4-1.9,2.2c-0.8,1.3-1.2,2.9-1.2,4.5
		c0,3.9,2.6,7.3,6.2,8.4c0.8,0.3,1.7,0.4,2.7,0.4C1124.1,284.1,1124.1,284,1124.2,284z"/>
	<path class="st2" d="M1278,422.5c-1.6,1.1-2.8,2.8-3.4,4.7c-0.2,0.8-0.4,1.7-0.4,2.5c0,0.1,0,0.2,0,0.3c0.2,4.7,4,8.5,8.8,8.5
		c1.1,0,2.2-0.2,3.2-0.6c0.9-0.4,1.8-0.9,2.6-1.5c0.8-0.7,1.6-1.6,2.1-2.6c0.4-0.8,0.7-1.8,0.9-2.7c0.1-0.4,0.1-0.9,0.1-1.4
		c0-3.1-1.6-5.8-4-7.4c-1.4-0.9-3-1.4-4.8-1.4C1281.2,420.9,1279.5,421.5,1278,422.5z"/>
	<path class="st2" d="M1239.7,122.2c-0.3-0.1-0.6-0.1-0.9-0.1c-0.2,0-0.4,0-0.6,0c-0.8,0-1.5,0.1-2.3,0.3c-0.8,0.2-1.6,0.5-2.3,1
		c-0.8,0.5-1.6,1.1-2.2,1.9c-1.3,1.5-2.1,3.5-2.1,5.7c0,2.5,1,4.7,2.6,6.3c0.7,0.7,1.5,1.2,2.4,1.7c0.3,0.2,0.7,0.3,1.1,0.4
		c0.9,0.3,1.8,0.5,2.8,0.5c0.3,0,0.5,0,0.8,0c1.5-0.1,2.9-0.6,4.1-1.4c0.8-0.5,1.5-1.2,2.1-2c1.2-1.5,1.9-3.4,1.9-5.4
		c0-2.1-0.7-4.1-2-5.6c-0.6-0.7-1.3-1.4-2.2-1.9c-0.1-0.1-0.3-0.2-0.4-0.3C1241.6,122.7,1240.6,122.3,1239.7,122.2z"/>
	<path class="st2" d="M1201,287.5c-0.4,0.9-0.6,1.8-0.6,2.8c0,0.2,0,0.4,0,0.5c0,4.9,4,8.8,8.8,8.8c0.8,0,1.5-0.1,2.3-0.3
		c2-0.5,3.7-1.7,4.9-3.3c1.1-1.5,1.7-3.2,1.7-5.2c0-2.8-1.3-5.3-3.3-6.9c-1.2-1-2.7-1.6-4.3-1.9c-0.4-0.1-0.8-0.1-1.2-0.1
		C1205.5,282,1202.3,284.3,1201,287.5z"/>
	<path class="st1" d="M729.4,891.6c-0.6,0.8-1.4,1.4-2.2,2l116.6,81.9c0.3-0.9,0.8-1.8,1.4-2.5L729.4,891.6z"/>
	<path class="st2" d="M852.1,969.6c-2.8,0-5.3,1.3-6.9,3.4c-0.6,0.8-1.1,1.6-1.4,2.5c-0.3,0.9-0.5,1.9-0.5,2.9c0,0.5,0.1,1,0.1,1.5
		c0.2,1,0.5,1.9,1,2.7c1.5,2.7,4.4,4.6,7.7,4.6c3.5,0,6.6-2.1,8-5.1c0.4-0.9,0.7-1.8,0.8-2.8c0-0.3,0.1-0.7,0.1-1c0-0.1,0-0.2,0-0.3
		c0-1-0.2-1.9-0.6-2.8C859.1,972,855.9,969.6,852.1,969.6z"/>
	<path class="st2" d="M1024.1,1019.6c-2.8,0-5.3,1.3-6.9,3.4c-0.6,0.8-1.1,1.6-1.4,2.5c-0.3,0.9-0.5,1.9-0.5,2.9
		c0,0.5,0.1,1,0.1,1.5c0.2,1,0.5,1.9,1,2.7c1.5,2.7,4.4,4.6,7.7,4.6c3.5,0,6.6-2.1,8-5.1c0.4-0.9,0.7-1.8,0.8-2.8
		c0-0.3,0.1-0.7,0.1-1c0-0.1,0-0.2,0-0.3c0-1-0.2-1.9-0.6-2.8C1031.1,1022,1027.9,1019.6,1024.1,1019.6z"/>
	<path class="st1" d="M1313.1,202.1V197l-49.3,69.5c0.9,0.3,1.8,0.8,2.6,1.3L1313.1,202.1z"/>
	<path class="st2" d="M1252.2,275c0,4,2.6,7.3,6.2,8.4c0.8,0.3,1.7,0.4,2.6,0.4c0.1,0,0.2,0,0.4,0c4.7-0.2,8.5-4.1,8.5-8.8
		c0-2.9-1.4-5.5-3.6-7.1c-0.8-0.6-1.6-1-2.6-1.3c-0.8-0.3-1.7-0.4-2.7-0.4c-0.8,0-1.6,0.1-2.3,0.3c-1,0.3-1.9,0.7-2.7,1.3
		C1253.7,269.3,1252.2,272,1252.2,275z"/>
	<path class="st2" d="M1306.2,195c0,4,2.6,7.3,6.2,8.4c0.8,0.3,1.7,0.4,2.6,0.4c0.1,0,0.2,0,0.4,0c4.7-0.2,8.5-4.1,8.5-8.8
		c0-2.9-1.4-5.5-3.6-7.1c-0.8-0.6-1.6-1-2.6-1.3c-0.8-0.3-1.7-0.4-2.7-0.4c-0.8,0-1.6,0.1-2.3,0.3c-1,0.3-1.9,0.7-2.7,1.3
		C1307.7,189.3,1306.2,192,1306.2,195z"/>
	<path class="st1" d="M713.8,884.6l-160,7.2c0.1,0.4,0.1,0.9,0.1,1.3c0,0.5-0.1,1-0.1,1.6l160-7.2c-0.1-0.4-0.1-0.9-0.1-1.3
		C713.6,885.6,713.7,885.1,713.8,884.6z"/>
	<path class="st1" d="M609,936.1l18.5,87.9h3.3l-19.5-90C610.8,934.8,610,935.5,609,936.1z"/>
	<path class="st1" d="M468.4,896.7l21.7,79.6l3.1,0.4L470.9,895C470.3,895.7,469.4,896.3,468.4,896.7z"/>
	<path class="st1" d="M607,931.5c0.6-0.4,1.2-0.7,2-0.9c0.3-0.1,0.6-0.2,0.9-0.3l-50.5-34.9c-0.6,0.7-1.4,1.4-2.3,1.8L607,931.5z"/>
	<path class="st1" d="M553.7,896.8c-0.8-0.5-1.6-1.1-2.2-1.8l-53.4,77.9c0.8,0.5,1.6,1.1,2.2,1.8L553.7,896.8z"/>
	<path class="st1" d="M463.7,897.4c-0.4-0.9-0.6-1.8-0.7-2.8l-107.2,25.7l0.1,2.9L463.7,897.4z"/>
	<path class="st1" d="M497.6,840.3c-1-0.1-2-0.3-2.9-0.6L473,886.4c0.9,0.3,1.8,0.7,2.6,1.2L497.6,840.3z"/>
	<path class="st2" d="M500.3,974.6c-0.6-0.7-1.4-1.3-2.2-1.8c-1.3-0.7-2.8-1.2-4.4-1.2c-3,0-5.6,1.5-7.2,3.8c-0.5,0.8-1,1.7-1.2,2.6
		c-0.2,0.8-0.4,1.6-0.4,2.4c0,4.9,4,8.8,8.8,8.8c3.4,0,6.3-1.9,7.8-4.7c0.4-0.8,0.7-1.8,0.9-2.7c0.1-0.4,0.1-0.9,0.1-1.4
		c0-0.7-0.1-1.4-0.2-2c-0.2-1-0.6-1.8-1.1-2.7C500.9,975.4,500.6,975,500.3,974.6z"/>
	<path class="st2" d="M357.3,983.6c-0.6-0.7-1.4-1.3-2.2-1.8c-1.3-0.7-2.8-1.2-4.4-1.2c-3,0-5.6,1.5-7.2,3.8c-0.5,0.8-1,1.7-1.2,2.6
		c-0.2,0.8-0.4,1.6-0.4,2.4c0,4.9,4,8.8,8.8,8.8c3.4,0,6.3-1.9,7.8-4.7c0.4-0.8,0.7-1.8,0.9-2.7c0.1-0.4,0.1-0.9,0.1-1.4
		c0-0.7-0.1-1.4-0.2-2c-0.2-1-0.6-1.8-1.1-2.7C357.9,984.4,357.6,984,357.3,983.6z"/>
	<path class="st2" d="M498,840.3c4.9,0,8.8-4,8.8-8.8c0-4.9-4-8.8-8.8-8.8c-4.9,0-8.8,4-8.8,8.8c0,3.7,2.3,6.9,5.5,8.2
		c0.9,0.4,1.9,0.6,2.9,0.6C497.7,840.3,497.9,840.3,498,840.3z"/>
	<path class="st2" d="M606.4,923.3c-3.8,1-6.7,4.4-6.7,8.6c0,0.6,0.1,1.1,0.2,1.7c0.2,1,0.5,1.9,1,2.7c1.5,2.7,4.4,4.5,7.7,4.5
		c1.7,0,3.3-0.5,4.6-1.3c0.9-0.5,1.6-1.2,2.3-2c1.2-1.5,1.9-3.4,1.9-5.5c0-0.8-0.1-1.6-0.3-2.4c-0.3-0.9-0.7-1.8-1.2-2.6
		c-1.4-2.1-3.8-3.6-6.4-3.8c-0.3,0-0.6,0-0.9,0C607.8,923,607,923.1,606.4,923.3z"/>
	<path class="st2" d="M561.8,891.8c-0.6-4.3-4.3-7.5-8.7-7.5c-4.9,0-8.8,4-8.8,8.8c0,2.2,0.8,4.3,2.2,5.8c0.6,0.7,1.4,1.3,2.2,1.8
		c1.3,0.7,2.8,1.2,4.4,1.2c0.7,0,1.4-0.1,2-0.2c1-0.2,1.8-0.6,2.7-1.1c2.1-1.3,3.5-3.4,4-5.9c0.1-0.5,0.1-1,0.1-1.6
		C561.9,892.7,561.9,892.2,561.8,891.8z"/>
	<path class="st2" d="M470.7,903.7c4.9,0,8.8-4,8.8-8.8c0-3-1.5-5.7-3.9-7.3c-0.8-0.5-1.7-0.9-2.6-1.2c-0.8-0.2-1.5-0.3-2.4-0.3
		c-4.9,0-8.8,4-8.8,8.8c0,0.1,0,0.2,0,0.3c0,1,0.2,1.9,0.5,2.8C463.6,901.3,466.9,903.7,470.7,903.7z"/>
	<path class="st1" d="M1128.8,559.3l-25-146.5c-0.9,0.3-1.8,0.5-2.8,0.5l25,146.6C1126.8,559.5,1127.8,559.3,1128.8,559.3z"/>
	<path class="st1" d="M1300.2,665.2l-18.5-143.8c-0.9,0.3-1.8,0.4-2.8,0.4l18.5,143.9C1298.2,665.3,1299.2,665.2,1300.2,665.2z"/>
	<path class="st1" d="M1129.1,576.9c-0.3,0-0.5,0-0.8,0l46.1,211.4c0.9-0.3,1.8-0.6,2.8-0.6l-46.1-211
		C1130.6,576.8,1129.9,576.9,1129.1,576.9z"/>
	<path class="st1" d="M1056.5,808.1c1,0.1,1.9,0.3,2.8,0.6l31.8-138c-1-0.1-1.9-0.3-2.8-0.6L1056.5,808.1z"/>
	<path class="st1" d="M1050.5,809.9l-66.8-170.3c-0.8,0.6-1.6,1.1-2.5,1.4l67.2,171.3C1048.9,811.4,1049.7,810.6,1050.5,809.9z"/>
	<path class="st1" d="M939.1,861.3l43.6,75.3c0.7-0.6,1.6-1.1,2.5-1.4L941.1,859C940.6,859.9,939.9,860.7,939.1,861.3z"/>
	<path class="st1" d="M924.8,854.3c0-0.8,0.1-1.6,0.3-2.4l-162.9-18.3c0,0.2,0,0.3,0,0.5c0,0.8-0.1,1.6-0.3,2.4l160,18l-192.7,26.1
		c0.6,0.8,1.2,1.7,1.5,2.7l194.4-26.4C925,856.1,924.8,855.2,924.8,854.3z"/>
	<path class="st1" d="M830.4,731.7c-0.9-0.4-1.7-1-2.3-1.7l-70.6,96.1c0.9,0.4,1.6,1,2.3,1.7L830.4,731.7z"/>
	<path class="st1" d="M1083.3,658.9l-96.5-28.3c0.2,0.7,0.3,1.4,0.3,2.2c0,0.3,0,0.6,0,0.9l95.7,28.1
		C1082.8,660.8,1083,659.8,1083.3,658.9z"/>
	<path class="st1" d="M979.8,624.1l118.1-211.3c-0.9-0.3-1.8-0.8-2.5-1.4L977,623.2l1.3,0.7l0,0C978.8,623.9,979.3,624,979.8,624.1z
		"/>
	<path class="st1" d="M978,641.6c-1,0-1.9-0.2-2.8-0.5l-39.5,204.7c1,0.2,1.9,0.6,2.7,1.1L978,641.6z"/>
	<path class="st1" d="M1345.7,794.2c-1,0.1-1.9,0-2.8-0.3l-19,225.5c1,0.1,2,0.5,2.8,0.9L1345.7,794.2z"/>
	<path class="st1" d="M927.4,848.1c0.7-0.7,1.5-1.2,2.3-1.7L842.9,726c-0.3,1.1-0.8,2.1-1.4,3L927.4,848.1z"/>
	<path class="st1" d="M719.4,884.1c0.7-0.7,1.5-1.2,2.3-1.7L634.9,762c-0.3,1.1-0.8,2.1-1.4,3L719.4,884.1z"/>
	<path class="st1" d="M841.7,718.9l36.1-17.4c-0.6-0.8-1-1.7-1.3-2.6l-36.9,17.8C840.4,717.3,841.1,718,841.7,718.9z"/>
	<path class="st1" d="M890.4,614.5c-0.4,1-1,1.8-1.7,2.6l80.4,17l0.3-1.4c0-0.5,0.1-1,0.1-1.4L890.4,614.5z"/>
	<path class="st2" d="M1082.8,662c0,3.7,2.3,6.8,5.5,8.2c0.9,0.4,1.8,0.6,2.8,0.6c0.2,0,0.4,0,0.6,0c1.2,0,2.4-0.3,3.5-0.7
		c0.9-0.4,1.7-0.9,2.4-1.6c1.8-1.6,2.9-4,2.9-6.6c0-4.9-4-8.8-8.8-8.8c-3.8,0-7.1,2.4-8.3,5.8c-0.3,0.9-0.5,1.8-0.5,2.8
		C1082.8,661.8,1082.8,661.9,1082.8,662z"/>
	<path class="st2" d="M1055.9,808.1c-2,0-3.9,0.7-5.4,1.9c-0.9,0.7-1.6,1.5-2.1,2.4c-0.8,1.3-1.3,2.9-1.3,4.6c0,0.2,0,0.4,0,0.6
		c0.1,1,0.3,1.9,0.6,2.8c0.7,1.6,1.8,3,3.3,4c0.8,0.5,1.7,0.9,2.6,1.2c0.7,0.2,1.5,0.3,2.3,0.3c1,0,2-0.2,2.9-0.5
		c0.9-0.3,1.8-0.8,2.5-1.4c2.1-1.6,3.4-4.1,3.4-7c0-3.7-2.3-6.8-5.5-8.2c-0.9-0.4-1.8-0.6-2.8-0.6
		C1056.3,808.1,1056.1,808.1,1055.9,808.1z"/>
	<path class="st2" d="M925.2,851.9c-0.2,0.8-0.3,1.6-0.3,2.4c0,0.9,0.1,1.8,0.4,2.6c1.1,3.6,4.5,6.2,8.4,6.2c2,0,3.9-0.7,5.4-1.9
		c0.8-0.6,1.5-1.4,2-2.2c0.9-1.4,1.4-3,1.4-4.7c0-0.4,0-0.8-0.1-1.2c-0.1-1-0.4-1.9-0.9-2.7c-0.7-1.4-1.8-2.6-3.2-3.5
		c-0.8-0.5-1.7-0.9-2.7-1.1c-0.6-0.2-1.3-0.2-2-0.2c-1.4,0-2.7,0.3-3.9,0.9c-0.9,0.4-1.7,1-2.3,1.7
		C926.4,849.1,925.6,850.5,925.2,851.9z"/>
	<path class="st2" d="M978.3,641.6c1,0,2-0.2,2.9-0.5s1.8-0.8,2.5-1.4c1.8-1.4,3.1-3.6,3.3-6c0-0.3,0-0.6,0-0.9
		c0-0.7-0.1-1.5-0.3-2.2c-0.2-0.9-0.6-1.8-1.1-2.5c-0.5-0.9-1.2-1.6-2-2.3c-1.1-0.9-2.4-1.5-3.9-1.7c-0.5-0.1-1-0.1-1.6-0.1l0,0
		c-4.4,0-8,3.2-8.7,7.4c-0.1,0.5-0.1,0.9-0.1,1.4l0,0c0,3.8,2.4,7,5.8,8.3c0.9,0.3,1.8,0.5,2.8,0.5
		C978.1,641.6,978.2,641.6,978.3,641.6z"/>
	<path class="st2" d="M1120.3,568.1c0,0.8,0.1,1.5,0.3,2.2c0.2,0.9,0.6,1.8,1.2,2.6c1.4,2.2,3.8,3.7,6.6,4c0.3,0,0.5,0,0.8,0
		c0.7,0,1.4-0.1,2.1-0.3c0.5-0.1,1-0.3,1.5-0.5c0.9-0.4,1.7-1,2.4-1.6c1.7-1.6,2.8-3.9,2.8-6.4c0-2.9-1.4-5.5-3.6-7.1
		c-0.8-0.6-1.6-1-2.6-1.3c-0.9-0.3-1.8-0.4-2.7-0.4c-0.1,0-0.2,0-0.4,0c-1,0-1.9,0.2-2.8,0.6
		C1122.6,561.2,1120.3,564.4,1120.3,568.1z"/>
	<path class="st2" d="M1100.9,413.2L1100.9,413.2c1,0,2-0.2,2.9-0.5c2.1-0.7,3.8-2.2,4.8-4.1c0.5-0.9,0.8-1.8,1-2.8
		c0.1-0.5,0.1-1,0.1-1.5c0-2.2-0.8-4.1-2.1-5.7c-0.7-0.9-1.6-1.6-2.6-2.1c-1.2-0.7-2.7-1-4.2-1c-4.9,0-8.8,4-8.8,8.8
		c0,0.1,0,0.1,0,0.2c0,1,0.2,2,0.6,2.9c0.6,1.5,1.5,2.8,2.8,3.8c0.7,0.6,1.6,1.1,2.5,1.4C1098.8,413.1,1099.8,413.2,1100.9,413.2z"
		/>
	<path class="st2" d="M993.8,936.4c-0.8-0.6-1.6-1.1-2.5-1.4c-0.9-0.3-1.9-0.5-2.9-0.5c-1.1,0-2.2,0.2-3.1,0.6
		c-0.9,0.3-1.8,0.8-2.5,1.4c-1.1,0.9-2,2.2-2.6,3.6c-0.4,1-0.6,2.1-0.6,3.3c0,0.7,0.1,1.3,0.2,1.9c0.9,4,4.4,6.9,8.6,6.9
		c0.8,0,1.6-0.1,2.3-0.3c0.9-0.3,1.8-0.7,2.6-1.2c2.3-1.6,3.9-4.3,3.9-7.3c0-1-0.2-1.9-0.5-2.8c-0.5-1.4-1.3-2.7-2.4-3.7
		C994.2,936.8,994,936.6,993.8,936.4z"/>
	<path class="st2" d="M1177.8,787.6c-0.2,0-0.3,0-0.5,0c-1,0-1.9,0.3-2.8,0.6c-0.1,0-0.2,0.1-0.2,0.1c-0.9,0.4-1.7,0.9-2.4,1.6
		c-1.8,1.6-2.9,4-2.9,6.6c0,1.5,0.4,3,1.1,4.2c0.5,0.9,1.1,1.6,1.8,2.3c0.1,0.1,0.1,0.1,0.2,0.2c0.7,0.6,1.5,1.1,2.4,1.5
		c1,0.4,2.2,0.7,3.3,0.7c1.3,0,2.6-0.3,3.7-0.8c0.9-0.4,1.7-1,2.4-1.6c1.4-1.3,2.3-3.1,2.6-5.1c0.1-0.4,0.1-0.9,0.1-1.3
		c0-0.5-0.1-1.1-0.2-1.6c-0.4-2.1-1.5-4-3.2-5.3c-0.7-0.6-1.6-1.1-2.5-1.4C1179.8,787.8,1178.8,787.6,1177.8,787.6z"/>
	<path class="st1" d="M1301.9,659.2l80-62c-0.7-0.7-1.3-1.4-1.8-2.3l-79.6,61.8C1301.1,657.5,1301.6,658.3,1301.9,659.2z"/>
	<path class="st1" d="M1275.2,524.1l110.7,67.6c0.4-0.8,0.8-1.6,1.4-2.3l-110.7-67.6C1276.3,522.7,1275.8,523.4,1275.2,524.1z"/>
	<path class="st2" d="M1387.9,581.8c-0.2,0-0.3,0-0.5,0c-1,0-1.9,0.3-2.8,0.6c-0.1,0-0.2,0.1-0.2,0.1c-0.9,0.4-1.7,0.9-2.4,1.6
		c-1.8,1.6-2.9,4-2.9,6.6c0,1.5,0.4,3,1.1,4.2c0.5,0.9,1.1,1.6,1.8,2.3c0.1,0.1,0.1,0.1,0.2,0.2c0.7,0.6,1.5,1.1,2.4,1.5
		c1,0.4,2.2,0.7,3.3,0.7c1.3,0,2.6-0.3,3.7-0.8c0.9-0.4,1.7-1,2.4-1.6c1.4-1.3,2.3-3.1,2.6-5.1c0.1-0.4,0.1-0.9,0.1-1.3
		c0-0.5-0.1-1.1-0.2-1.6c-0.4-2.1-1.5-4-3.2-5.3c-0.7-0.6-1.6-1.1-2.5-1.4C1389.9,582,1388.9,581.8,1387.9,581.8z"/>
	<path class="st2" d="M1344.8,784.7c-0.2,0-0.3,0-0.5,0c-1,0-1.9,0.3-2.8,0.6c-0.1,0-0.2,0.1-0.2,0.1c-0.9,0.4-1.7,0.9-2.4,1.6
		c-1.8,1.6-2.9,4-2.9,6.6c0,1.5,0.4,3,1.1,4.2c0.5,0.9,1.1,1.6,1.8,2.3c0.1,0.1,0.1,0.1,0.2,0.2c0.7,0.6,1.5,1.1,2.4,1.5
		c1,0.4,2.2,0.7,3.3,0.7c1.3,0,2.6-0.3,3.7-0.8c0.9-0.4,1.7-1,2.4-1.6c1.4-1.3,2.3-3.1,2.6-5.1c0.1-0.4,0.1-0.9,0.1-1.3
		c0-0.5-0.1-1.1-0.2-1.6c-0.4-2.1-1.5-4-3.2-5.3c-0.7-0.6-1.6-1.1-2.5-1.4C1346.8,784.9,1345.8,784.7,1344.8,784.7z"/>
	<path class="st2" d="M753.5,842.9c4,0,7.4-2.7,8.5-6.4c0.2-0.8,0.3-1.6,0.3-2.4c0-0.2,0-0.3,0-0.5c-0.1-2.2-1-4.2-2.5-5.7
		c-0.7-0.7-1.5-1.3-2.3-1.7c-1.2-0.6-2.6-1-4-1c-4.9,0-8.8,4-8.8,8.8c0,2.7,1.2,5.1,3.1,6.7c0.7,0.6,1.6,1.1,2.5,1.5
		C751.2,842.7,752.3,842.9,753.5,842.9z"/>
	<path class="st2" d="M834.3,732.6c3,0,5.6-1.5,7.2-3.7c0.6-0.9,1.1-1.9,1.4-3c0.2-0.7,0.3-1.4,0.3-2.2c0-1.8-0.5-3.5-1.5-4.9
		c-0.6-0.8-1.3-1.6-2.1-2.2c-1.5-1.1-3.3-1.8-5.3-1.8c-4.9,0-8.8,4-8.8,8.8c0,2.5,1,4.7,2.6,6.3c0.7,0.7,1.5,1.2,2.3,1.7
		C831.6,732.3,832.9,732.6,834.3,732.6z"/>
	<path class="st2" d="M885,705.2c4.9,0,8.8-4,8.8-8.8c0-4.9-4-8.8-8.8-8.8c-4.9,0-8.8,4-8.8,8.8c0,0.9,0.1,1.7,0.4,2.5
		c0.3,0.9,0.7,1.8,1.3,2.6C879.3,703.7,882,705.2,885,705.2z"/>
	<path class="st2" d="M890.1,614.1c0-4.9-4-8.8-8.8-8.8s-8.8,4-8.8,8.8c0,4.9,4,8.8,8.8,8.8c2.6,0,4.9-1.1,6.5-2.8
		c0.7-0.8,1.3-1.6,1.7-2.6S890.1,615.3,890.1,614.1z"/>
	<path class="st1" d="M346.2,921.8c0.4-0.4,0.8-0.6,1.2-0.8l1.1-0.9l-34.5-40.2c-0.3,1-0.9,1.9-1.5,2.7L346.2,921.8z"/>
	<path class="st2" d="M354.4,932.2c0.8-0.6,1.5-1.3,2.1-2.1s1-1.7,1.3-2.6c0.7-2.2,0.4-4.7-0.8-6.8c-0.1-0.3-0.3-0.5-0.5-0.8
		c-0.4-0.6-0.9-1.1-1.5-1.6c-0.7-0.6-1.5-1.1-2.3-1.4c-1-0.4-2-0.6-3-0.7c-1.4-0.1-2.8,0.2-4.2,0.8c-0.5,0.2-0.9,0.5-1.4,0.8l0,0
		c-3.6,2.5-4.7,7.2-2.8,11.1c0.2,0.4,0.4,0.8,0.7,1.3l0,0c2.2,3.1,6,4.3,9.5,3.4c0.9-0.2,1.8-0.6,2.6-1.2
		C354.3,932.3,354.4,932.3,354.4,932.2z"/>
	<path class="st2" d="M316.9,883c0.6-0.8,1.1-1.8,1.5-2.7c0.8-2.3,0.7-4.8-0.4-7.1c-2.3-4.3-7.6-6-11.9-3.7c-4.3,2.3-6,7.6-3.7,11.9
		c2.3,4.3,7.6,6,11.9,3.7C315.3,884.5,316.3,883.8,316.9,883z"/>
	<path class="st2" d="M729.4,891.6c0.7-0.8,1.2-1.8,1.5-2.9c0.3-0.8,0.4-1.7,0.4-2.6c0-0.1,0-0.2,0-0.3c0-0.9-0.2-1.8-0.5-2.6
		c-0.3-1-0.8-1.9-1.5-2.7c-0.4-0.5-0.9-1-1.4-1.4c-0.8-0.6-1.6-1.1-2.5-1.4c-0.9-0.3-1.9-0.5-2.9-0.5c-1.5,0-2.9,0.4-4.2,1
		c-0.9,0.5-1.7,1.1-2.4,1.9c-1.1,1.2-1.9,2.7-2.2,4.4c-0.1,0.5-0.1,1-0.1,1.6c0,0.4,0,0.9,0.1,1.3c0.3,2,1.3,3.8,2.7,5.2
		c0.7,0.7,1.5,1.2,2.4,1.6c0.1,0,0.2,0.1,0.3,0.1c0.9,0.4,2,0.6,3,0.6c0.1,0,0.2,0,0.3,0c1.8,0,3.4-0.5,4.8-1.4
		C728.1,893.1,728.8,892.4,729.4,891.6z"/>
	<path class="st2" d="M746.4,1011.6c0.7-0.8,1.2-1.8,1.5-2.9c0.3-0.8,0.4-1.7,0.4-2.6c0-0.1,0-0.2,0-0.3c0-0.9-0.2-1.8-0.5-2.6
		c-0.3-1-0.8-1.9-1.5-2.7c-0.4-0.5-0.9-1-1.4-1.4c-0.8-0.6-1.6-1.1-2.5-1.4c-0.9-0.3-1.9-0.5-2.9-0.5c-1.5,0-2.9,0.4-4.2,1
		c-0.9,0.5-1.7,1.1-2.4,1.9c-1.1,1.2-1.9,2.7-2.2,4.4c-0.1,0.5-0.1,1-0.1,1.6c0,0.4,0,0.9,0.1,1.3c0.3,2,1.3,3.8,2.7,5.2
		c0.7,0.7,1.5,1.2,2.4,1.6c0.1,0,0.2,0.1,0.3,0.1c0.9,0.4,2,0.6,3,0.6c0.1,0,0.2,0,0.3,0c1.8,0,3.4-0.5,4.8-1.4
		C745.1,1013.1,745.8,1012.4,746.4,1011.6z"/>
	<path class="st2" d="M642.8,761.6c0-4.9-4-8.8-8.8-8.8c-4.9,0-8.8,4-8.8,8.8c0,4.9,4,8.8,8.8,8.8c0.5,0,1.1-0.1,1.6-0.1
		c1-0.2,1.9-0.5,2.7-1C640.9,767.8,642.8,764.9,642.8,761.6z"/>
	<path class="st2" d="M639.4,1026.7c0-3.4-2-6.4-4.9-7.9c-0.9-0.4-1.8-0.7-2.8-0.9c-0.4,0-0.8-0.1-1.1-0.1c-4.9,0-8.8,4-8.8,8.8
		c0,1.9,0.6,3.7,1.6,5.1c0.6,0.8,1.3,1.5,2.1,2.1c1.4,1,3.2,1.6,5.1,1.6c2.5,0,4.7-1,6.3-2.7c0.7-0.7,1.2-1.5,1.6-2.4
		C639.1,1029.3,639.4,1028,639.4,1026.7z"/>
	<path class="st1" d="M1283.1,421l-0.4-1.4l-21.2-135.8c-0.1,0-0.2,0-0.4,0c-0.9,0-1.8-0.1-2.6-0.4l21.3,136.2L1216.3,296
		c-1.2,1.6-2.9,2.8-4.9,3.3l6.8,109c0.5-0.1,1.1-0.2,1.7-0.2c0.4,0,0.8,0,1.2,0.1l-6.9-110l63.8,124.1c1.4-1,3.2-1.6,5.1-1.6"/>
	<path class="st2" d="M1296.4,651.7c-1,0.2-1.9,0.6-2.8,1.2c-0.8,0.5-1.5,1.2-2.1,1.9c-1.2,1.5-1.9,3.4-1.9,5.5
		c0,2.8,1.3,5.3,3.3,6.9c0.7,0.6,1.6,1.1,2.5,1.4c0.9,0.3,2,0.5,3,0.5c2,0,3.8-0.7,5.3-1.8c0.8-0.6,1.5-1.3,2-2.1
		c1-1.4,1.6-3.1,1.6-5c0-0.9-0.1-1.8-0.4-2.6c-0.3-0.9-0.7-1.8-1.3-2.6c-0.9-1.3-2.2-2.3-3.6-2.9c-1.1-0.5-2.3-0.7-3.5-0.7
		C1297.7,651.5,1297.1,651.6,1296.4,651.7z"/>
	<path class="st2" d="M1270,526.9c0,3.6,2.2,6.7,5.3,8.1c0.9,0.4,1.8,0.6,2.8,0.7c0.2,0,0.5,0,0.7,0c1.9,0,3.6-0.6,5-1.6
		c0.8-0.6,1.5-1.3,2.1-2.1c1.1-1.5,1.7-3.2,1.7-5.2c0-4.9-4-8.8-8.8-8.8c-0.2,0-0.5,0-0.7,0c-1,0.1-2,0.3-2.9,0.7
		C1272.2,520.2,1270,523.3,1270,526.9z"/>
	<path class="st2" d="M1322.4,1014c-2.6,0.9-4.6,2.9-5.5,5.5c-0.3,0.9-0.5,1.9-0.5,2.9l0,0c0,4.9,4,8.8,8.8,8.8
		c2.7,0,5.1-1.2,6.7-3.1c0.7-0.8,1.2-1.7,1.6-2.8c0.2-0.5,0.3-1.1,0.4-1.6c0.1-0.4,0.1-0.9,0.1-1.3c0-0.6-0.1-1.1-0.2-1.6
		c-0.2-1-0.6-2-1.1-2.8c-0.5-0.9-1.1-1.6-1.9-2.3c-1.5-1.3-3.4-2-5.4-2.1c-0.1,0-0.2,0-0.3,0
		C1324.2,1013.5,1323.3,1013.6,1322.4,1014z"/>
</g>
</svg>
