<svg id="Capa_1" data-name="Capa 1" xmlns="http://www.w3.org/2000/svg" viewBox="0 0 361.34 128.14"><defs><style>.cls-1{fill:#010101;}</style></defs><title>LOGO ByN3idees</title><path class="cls-1" d="M343.85,322.52l-19.36-65a21.87,21.87,0,0,0-27.21-14.72l-65,19.36a21.87,21.87,0,0,0-14.72,27.2l19.36,65a21.87,21.87,0,0,0,27.21,14.72l65-19.36A21.87,21.87,0,0,0,343.85,322.52Zm-24.4,1.78a19.78,19.78,0,0,1-12.15,9.86l-47.66,14.2-3.3-11.09L304,323.07a8.87,8.87,0,1,0-5.06-17l-47.66,14.2L248,309.18,295.63,295a8.87,8.87,0,1,0-5.06-17l-47.66,14.2-3.3-11.09,47.66-14.2a20.45,20.45,0,0,1,23.81,29.32l-.13.24.24.13a20.48,20.48,0,0,1,8.25,27.72Z" transform="translate(-216.66 -241.86)"/><rect class="cls-1" x="138.63" y="19" width="10.04" height="10.04"/><rect class="cls-1" x="138.63" y="39.08" width="10.04" height="50.22"/><path class="cls-1" d="M408.45,285.91a25.16,25.16,0,1,0,10,20.14v-45.2h-10ZM404,316.7a15,15,0,1,1,4.42-10.65A14.51,14.51,0,0,1,404,316.7Z" transform="translate(-216.66 -241.86)"/><path class="cls-1" d="M470.67,299.05a25.12,25.12,0,1,0-2.09,19.07,25.17,25.17,0,0,0,3-8.86l-11.43,3.32q-.16.36-.36.73a15,15,0,0,1-20.44,5.94,15,15,0,0,1-5-4.39L471.63,304A27.16,27.16,0,0,0,470.67,299.05Zm-39.2,6.15a15,15,0,0,1,1.9-6.41,15,15,0,0,1,20.44-5.94,15,15,0,0,1,5,4.39Z" transform="translate(-216.66 -241.86)"/><path class="cls-1" d="M523.91,299.05a25.12,25.12,0,1,0-2.09,19.07,25.17,25.17,0,0,0,3-8.86l-11.43,3.32q-.16.36-.36.73a15,15,0,0,1-20.44,5.94,15,15,0,0,1-5-4.39L524.88,304A27.15,27.15,0,0,0,523.91,299.05Zm-39.2,6.15a15,15,0,0,1,1.9-6.41,15,15,0,0,1,20.44-5.94,15,15,0,0,1,5,4.39Z" transform="translate(-216.66 -241.86)"/><path class="cls-1" d="M542.86,291H578v-10H542.86a15.07,15.07,0,0,0,0,30.13h20.08a5,5,0,0,1,0,10H527.79v10h35.14a15.07,15.07,0,0,0,0-30.13H542.86a5,5,0,0,1,0-10Z" transform="translate(-216.66 -241.86)"/></svg>