<svg id="7ee13337-7e94-4620-824c-74a7f59196d6" data-name="Layer 1" xmlns="http://www.w3.org/2000/svg" viewBox="0 0 296.22 220.67"><defs><style>.\37 2761c22-e009-4e17-b77a-bb93733775bf,.\38 a7618f5-5bd4-46d3-b910-fa42a925bf06{fill:none;}.\37 2761c22-e009-4e17-b77a-bb93733775bf{stroke:#000;}.\37 2761c22-e009-4e17-b77a-bb93733775bf,.\38 a7618f5-5bd4-46d3-b910-fa42a925bf06,.\39 8795615-d952-4624-9a51-c9641e83b222,.\39 dc62cc2-1d72-45f0-b35c-4c1323f44441,.cd315f67-97d1-4759-9ad6-397fc6edbf31,.e15ab13a-692a-46dc-a326-b385b948b145{stroke-miterlimit:10;}.\33 e9b2862-af5e-4a73-90c4-e788a1a50e40{opacity:0.51;}.f0eba1cd-41f2-448f-a966-e8109afa18d4{fill:#4bb0a8;}.c1112cce-e94e-42fa-a745-4461d293e404{fill:#6ed1b6;}.fe4d3596-c5f6-4c96-9a99-46a84f18fdb4{fill:#127991;}.\33 394fcc0-4efc-421c-b356-9761279f1bd8{fill:#5c546a;}.f9444a44-b5ce-474f-bb55-5e0d3486698f{fill:#29afce;}.\34 a722ff7-f336-4b5d-a647-9f254dcf8f8b{fill:#b3f4ff;}.\30 c737f8c-36bc-4dbf-8316-fbb5dd0daf10{fill:#fff;}.\38 d5dc03f-5a91-4bfc-bb99-02d68ac9f91b{fill:#3bb5d1;}.\38 a7618f5-5bd4-46d3-b910-fa42a925bf06,.\39 8795615-d952-4624-9a51-c9641e83b222,.\39 dc62cc2-1d72-45f0-b35c-4c1323f44441,.cd315f67-97d1-4759-9ad6-397fc6edbf31,.e15ab13a-692a-46dc-a326-b385b948b145{stroke:#32989e;stroke-width:0.75px;}.e15ab13a-692a-46dc-a326-b385b948b145{fill:#ffc36e;}.\39 8795615-d952-4624-9a51-c9641e83b222{fill:#d38e20;}.cd315f67-97d1-4759-9ad6-397fc6edbf31{fill:#0c4a59;}.\39 dc62cc2-1d72-45f0-b35c-4c1323f44441{fill:#5b5d6e;}</style></defs><title>abc</title><line class="72761c22-e009-4e17-b77a-bb93733775bf" x1="225.15" y1="140.61" x2="225.15" y2="140.61"/><line class="72761c22-e009-4e17-b77a-bb93733775bf" x1="224.95" y1="139.18" x2="224.95" y2="139.18"/><line class="72761c22-e009-4e17-b77a-bb93733775bf" x1="225.78" y1="140.13" x2="225.78" y2="140.13"/><line class="72761c22-e009-4e17-b77a-bb93733775bf" x1="225.81" y1="140.58" x2="225.81" y2="140.58"/><g class="3e9b2862-af5e-4a73-90c4-e788a1a50e40"><rect class="f0eba1cd-41f2-448f-a966-e8109afa18d4" x="112.3" y="11.93" width="74.21" height="51.68"/><rect class="c1112cce-e94e-42fa-a745-4461d293e404" x="112.3" y="55.66" width="74.21" height="7.95"/><rect class="c1112cce-e94e-42fa-a745-4461d293e404" x="112.3" y="9.28" width="74.21" height="9.28"/><path class="fe4d3596-c5f6-4c96-9a99-46a84f18fdb4" d="M138.84,53.15H120.29A1.33,1.33,0,0,0,119,54.47V94.23h21.2V54.47A1.33,1.33,0,0,0,138.84,53.15Z" transform="translate(-0.04 -31.94)"/><path class="fe4d3596-c5f6-4c96-9a99-46a84f18fdb4" d="M190.53,96.88H108.36a1.33,1.33,0,1,1,0-2.65h82.17a1.33,1.33,0,0,1,0,2.65Z" transform="translate(-0.04 -31.94)"/><path class="3394fcc0-4efc-421c-b356-9761279f1bd8" d="M136.19,78.33A1.32,1.32,0,0,1,134.87,77V74.35a1.33,1.33,0,0,1,2.65,0V77A1.32,1.32,0,0,1,136.19,78.33Z" transform="translate(-0.04 -31.94)"/><path class="f0eba1cd-41f2-448f-a966-e8109afa18d4" d="M113.66,47.85h0a4,4,0,0,1-4-4V34.59a2.65,2.65,0,0,1,2.65-2.65h5.3V43.87A4,4,0,0,1,113.66,47.85Z" transform="translate(-0.04 -31.94)"/><path class="fe4d3596-c5f6-4c96-9a99-46a84f18fdb4" d="M121.61,47.85h0a4,4,0,0,1-4-4V31.94h8V43.87A4,4,0,0,1,121.61,47.85Z" transform="translate(-0.04 -31.94)"/><path class="f0eba1cd-41f2-448f-a966-e8109afa18d4" d="M129.57,47.85h0a4,4,0,0,1-4-4V31.94h8V43.87A4,4,0,0,1,129.57,47.85Z" transform="translate(-0.04 -31.94)"/><path class="fe4d3596-c5f6-4c96-9a99-46a84f18fdb4" d="M137.52,47.85h0a4,4,0,0,1-4-4V31.94h8V43.87A4,4,0,0,1,137.52,47.85Z" transform="translate(-0.04 -31.94)"/><path class="f0eba1cd-41f2-448f-a966-e8109afa18d4" d="M145.47,47.85h0a4,4,0,0,1-4-4V31.94h8V43.87A4,4,0,0,1,145.47,47.85Z" transform="translate(-0.04 -31.94)"/><path class="fe4d3596-c5f6-4c96-9a99-46a84f18fdb4" d="M153.42,47.85h0a4,4,0,0,1-4-4V31.94h8V43.87A4,4,0,0,1,153.42,47.85Z" transform="translate(-0.04 -31.94)"/><path class="f0eba1cd-41f2-448f-a966-e8109afa18d4" d="M161.37,47.85h0a4,4,0,0,1-4-4V31.94h8V43.87A4,4,0,0,1,161.37,47.85Z" transform="translate(-0.04 -31.94)"/><path class="fe4d3596-c5f6-4c96-9a99-46a84f18fdb4" d="M169.32,47.85h0a4,4,0,0,1-4-4V31.94h8V43.87A4,4,0,0,1,169.32,47.85Z" transform="translate(-0.04 -31.94)"/><path class="f0eba1cd-41f2-448f-a966-e8109afa18d4" d="M177.28,47.85h0a4,4,0,0,1-4-4V31.94h8V43.87A4,4,0,0,1,177.28,47.85Z" transform="translate(-0.04 -31.94)"/><path class="fe4d3596-c5f6-4c96-9a99-46a84f18fdb4" d="M185.23,47.85h0a4,4,0,0,1-4-4V31.94h5.3a2.65,2.65,0,0,1,2.65,2.65v9.28A4,4,0,0,1,185.23,47.85Z" transform="translate(-0.04 -31.94)"/><path class="f9444a44-b5ce-474f-bb55-5e0d3486698f" d="M179.93,54.47H146.79a1.33,1.33,0,0,0-1.33,1.33V82.3a1.33,1.33,0,0,0,1.33,1.33h33.13a1.33,1.33,0,0,0,1.33-1.33V55.8A1.33,1.33,0,0,0,179.93,54.47Z" transform="translate(-0.04 -31.94)"/><path class="4a722ff7-f336-4b5d-a647-9f254dcf8f8b" d="M172.9,83.63h7a1.33,1.33,0,0,0,1.33-1.33V80.73L155,54.47h-9.52a1.3,1.3,0,0,0-1.1.63Z" transform="translate(-0.04 -31.94)"/><polygon class="0c737f8c-36bc-4dbf-8316-fbb5dd0daf10" points="162.34 22.53 181.21 41.4 181.21 35.78 167.96 22.53 162.34 22.53"/><path class="fe4d3596-c5f6-4c96-9a99-46a84f18fdb4" d="M179.93,85H146.79a2.65,2.65,0,0,1-2.65-2.65V55.8a2.65,2.65,0,0,1,2.65-2.65h33.13a2.65,2.65,0,0,1,2.65,2.65V82.3A2.65,2.65,0,0,1,179.93,85ZM146.79,55.8V82.3h33.13V55.8Z" transform="translate(-0.04 -31.94)"/><path class="8d5dc03f-5a91-4bfc-bb99-02d68ac9f91b" d="M136.19,70.38H122.94a1.33,1.33,0,0,1-1.33-1.33V57.12a1.33,1.33,0,0,1,1.33-1.33h13.25a1.33,1.33,0,0,1,1.33,1.33V69.05A1.33,1.33,0,0,1,136.19,70.38Z" transform="translate(-0.04 -31.94)"/><path class="4a722ff7-f336-4b5d-a647-9f254dcf8f8b" d="M129.58,55.8h-6.64a1.33,1.33,0,0,0-1.33,1.33v2l11.3,11.3h3.28a1.33,1.33,0,0,0,1.33-1.33V63.73Z" transform="translate(-0.04 -31.94)"/></g><g class="3e9b2862-af5e-4a73-90c4-e788a1a50e40"><rect class="f0eba1cd-41f2-448f-a966-e8109afa18d4" x="112.3" y="91.26" width="74.21" height="51.68"/><rect class="c1112cce-e94e-42fa-a745-4461d293e404" x="112.3" y="134.99" width="74.21" height="7.95"/><rect class="c1112cce-e94e-42fa-a745-4461d293e404" x="112.3" y="88.61" width="74.21" height="9.28"/><path class="fe4d3596-c5f6-4c96-9a99-46a84f18fdb4" d="M138.84,132.48H120.29A1.33,1.33,0,0,0,119,133.8v39.76h21.2V133.8A1.33,1.33,0,0,0,138.84,132.48Z" transform="translate(-0.04 -31.94)"/><path class="fe4d3596-c5f6-4c96-9a99-46a84f18fdb4" d="M190.53,176.21H108.36a1.33,1.33,0,1,1,0-2.65h82.17a1.33,1.33,0,0,1,0,2.65Z" transform="translate(-0.04 -31.94)"/><path class="3394fcc0-4efc-421c-b356-9761279f1bd8" d="M136.19,157.66a1.32,1.32,0,0,1-1.33-1.33v-2.65a1.33,1.33,0,0,1,2.65,0v2.65A1.32,1.32,0,0,1,136.19,157.66Z" transform="translate(-0.04 -31.94)"/><path class="f0eba1cd-41f2-448f-a966-e8109afa18d4" d="M113.66,127.18h0a4,4,0,0,1-4-4v-9.28a2.65,2.65,0,0,1,2.65-2.65h5.3V123.2A4,4,0,0,1,113.66,127.18Z" transform="translate(-0.04 -31.94)"/><path class="fe4d3596-c5f6-4c96-9a99-46a84f18fdb4" d="M121.61,127.18h0a4,4,0,0,1-4-4V111.27h8V123.2A4,4,0,0,1,121.61,127.18Z" transform="translate(-0.04 -31.94)"/><path class="f0eba1cd-41f2-448f-a966-e8109afa18d4" d="M129.57,127.18h0a4,4,0,0,1-4-4V111.27h8V123.2A4,4,0,0,1,129.57,127.18Z" transform="translate(-0.04 -31.94)"/><path class="fe4d3596-c5f6-4c96-9a99-46a84f18fdb4" d="M137.52,127.18h0a4,4,0,0,1-4-4V111.27h8V123.2A4,4,0,0,1,137.52,127.18Z" transform="translate(-0.04 -31.94)"/><path class="f0eba1cd-41f2-448f-a966-e8109afa18d4" d="M145.47,127.18h0a4,4,0,0,1-4-4V111.27h8V123.2A4,4,0,0,1,145.47,127.18Z" transform="translate(-0.04 -31.94)"/><path class="fe4d3596-c5f6-4c96-9a99-46a84f18fdb4" d="M153.42,127.18h0a4,4,0,0,1-4-4V111.27h8V123.2A4,4,0,0,1,153.42,127.18Z" transform="translate(-0.04 -31.94)"/><path class="f0eba1cd-41f2-448f-a966-e8109afa18d4" d="M161.37,127.18h0a4,4,0,0,1-4-4V111.27h8V123.2A4,4,0,0,1,161.37,127.18Z" transform="translate(-0.04 -31.94)"/><path class="fe4d3596-c5f6-4c96-9a99-46a84f18fdb4" d="M169.32,127.18h0a4,4,0,0,1-4-4V111.27h8V123.2A4,4,0,0,1,169.32,127.18Z" transform="translate(-0.04 -31.94)"/><path class="f0eba1cd-41f2-448f-a966-e8109afa18d4" d="M177.28,127.18h0a4,4,0,0,1-4-4V111.27h8V123.2A4,4,0,0,1,177.28,127.18Z" transform="translate(-0.04 -31.94)"/><path class="fe4d3596-c5f6-4c96-9a99-46a84f18fdb4" d="M185.23,127.18h0a4,4,0,0,1-4-4V111.27h5.3a2.65,2.65,0,0,1,2.65,2.65v9.28A4,4,0,0,1,185.23,127.18Z" transform="translate(-0.04 -31.94)"/><path class="f9444a44-b5ce-474f-bb55-5e0d3486698f" d="M179.93,133.8H146.79a1.33,1.33,0,0,0-1.33,1.33v26.5a1.33,1.33,0,0,0,1.33,1.33h33.13a1.33,1.33,0,0,0,1.33-1.33v-26.5A1.33,1.33,0,0,0,179.93,133.8Z" transform="translate(-0.04 -31.94)"/><path class="4a722ff7-f336-4b5d-a647-9f254dcf8f8b" d="M172.9,163h7a1.33,1.33,0,0,0,1.33-1.33v-1.57L155,133.8h-9.52a1.3,1.3,0,0,0-1.1.63Z" transform="translate(-0.04 -31.94)"/><polygon class="0c737f8c-36bc-4dbf-8316-fbb5dd0daf10" points="162.34 101.86 181.21 120.73 181.21 115.11 167.96 101.86 162.34 101.86"/><path class="fe4d3596-c5f6-4c96-9a99-46a84f18fdb4" d="M179.93,164.28H146.79a2.65,2.65,0,0,1-2.65-2.65v-26.5a2.65,2.65,0,0,1,2.65-2.65h33.13a2.65,2.65,0,0,1,2.65,2.65v26.5A2.65,2.65,0,0,1,179.93,164.28Zm-33.13-29.16v26.5h33.13v-26.5Z" transform="translate(-0.04 -31.94)"/><path class="8d5dc03f-5a91-4bfc-bb99-02d68ac9f91b" d="M136.19,149.71H122.94a1.33,1.33,0,0,1-1.33-1.33V136.45a1.33,1.33,0,0,1,1.33-1.33h13.25a1.33,1.33,0,0,1,1.33,1.33v11.93A1.33,1.33,0,0,1,136.19,149.71Z" transform="translate(-0.04 -31.94)"/><path class="4a722ff7-f336-4b5d-a647-9f254dcf8f8b" d="M129.58,135.13h-6.64a1.33,1.33,0,0,0-1.33,1.33v2l11.3,11.3h3.28a1.33,1.33,0,0,0,1.33-1.33v-5.32Z" transform="translate(-0.04 -31.94)"/></g><g class="3e9b2862-af5e-4a73-90c4-e788a1a50e40"><rect class="f0eba1cd-41f2-448f-a966-e8109afa18d4" x="112.3" y="167.66" width="74.21" height="51.68"/><rect class="c1112cce-e94e-42fa-a745-4461d293e404" x="112.3" y="211.39" width="74.21" height="7.95"/><rect class="c1112cce-e94e-42fa-a745-4461d293e404" x="112.3" y="165.01" width="74.21" height="9.28"/><path class="fe4d3596-c5f6-4c96-9a99-46a84f18fdb4" d="M138.84,208.88H120.29a1.33,1.33,0,0,0-1.33,1.33V250h21.2V210.21A1.33,1.33,0,0,0,138.84,208.88Z" transform="translate(-0.04 -31.94)"/><path class="fe4d3596-c5f6-4c96-9a99-46a84f18fdb4" d="M190.53,252.61H108.36a1.33,1.33,0,1,1,0-2.65h82.17a1.33,1.33,0,0,1,0,2.65Z" transform="translate(-0.04 -31.94)"/><path class="3394fcc0-4efc-421c-b356-9761279f1bd8" d="M136.19,234.06a1.32,1.32,0,0,1-1.33-1.33v-2.65a1.33,1.33,0,0,1,2.65,0v2.65A1.32,1.32,0,0,1,136.19,234.06Z" transform="translate(-0.04 -31.94)"/><path class="f0eba1cd-41f2-448f-a966-e8109afa18d4" d="M113.66,203.58h0a4,4,0,0,1-4-4v-9.28a2.65,2.65,0,0,1,2.65-2.65h5.3V199.6A4,4,0,0,1,113.66,203.58Z" transform="translate(-0.04 -31.94)"/><path class="fe4d3596-c5f6-4c96-9a99-46a84f18fdb4" d="M121.61,203.58h0a4,4,0,0,1-4-4V187.68h8V199.6A4,4,0,0,1,121.61,203.58Z" transform="translate(-0.04 -31.94)"/><path class="f0eba1cd-41f2-448f-a966-e8109afa18d4" d="M129.57,203.58h0a4,4,0,0,1-4-4V187.68h8V199.6A4,4,0,0,1,129.57,203.58Z" transform="translate(-0.04 -31.94)"/><path class="fe4d3596-c5f6-4c96-9a99-46a84f18fdb4" d="M137.52,203.58h0a4,4,0,0,1-4-4V187.68h8V199.6A4,4,0,0,1,137.52,203.58Z" transform="translate(-0.04 -31.94)"/><path class="f0eba1cd-41f2-448f-a966-e8109afa18d4" d="M145.47,203.58h0a4,4,0,0,1-4-4V187.68h8V199.6A4,4,0,0,1,145.47,203.58Z" transform="translate(-0.04 -31.94)"/><path class="fe4d3596-c5f6-4c96-9a99-46a84f18fdb4" d="M153.42,203.58h0a4,4,0,0,1-4-4V187.68h8V199.6A4,4,0,0,1,153.42,203.58Z" transform="translate(-0.04 -31.94)"/><path class="f0eba1cd-41f2-448f-a966-e8109afa18d4" d="M161.37,203.58h0a4,4,0,0,1-4-4V187.68h8V199.6A4,4,0,0,1,161.37,203.58Z" transform="translate(-0.04 -31.94)"/><path class="fe4d3596-c5f6-4c96-9a99-46a84f18fdb4" d="M169.32,203.58h0a4,4,0,0,1-4-4V187.68h8V199.6A4,4,0,0,1,169.32,203.58Z" transform="translate(-0.04 -31.94)"/><path class="f0eba1cd-41f2-448f-a966-e8109afa18d4" d="M177.28,203.58h0a4,4,0,0,1-4-4V187.68h8V199.6A4,4,0,0,1,177.28,203.58Z" transform="translate(-0.04 -31.94)"/><path class="fe4d3596-c5f6-4c96-9a99-46a84f18fdb4" d="M185.23,203.58h0a4,4,0,0,1-4-4V187.68h5.3a2.65,2.65,0,0,1,2.65,2.65v9.28A4,4,0,0,1,185.23,203.58Z" transform="translate(-0.04 -31.94)"/><path class="f9444a44-b5ce-474f-bb55-5e0d3486698f" d="M179.93,210.21H146.79a1.33,1.33,0,0,0-1.33,1.33V238a1.33,1.33,0,0,0,1.33,1.33h33.13a1.33,1.33,0,0,0,1.33-1.33v-26.5A1.33,1.33,0,0,0,179.93,210.21Z" transform="translate(-0.04 -31.94)"/><path class="4a722ff7-f336-4b5d-a647-9f254dcf8f8b" d="M172.9,239.36h7a1.33,1.33,0,0,0,1.33-1.33v-1.57L155,210.21h-9.52a1.3,1.3,0,0,0-1.1.63Z" transform="translate(-0.04 -31.94)"/><polygon class="0c737f8c-36bc-4dbf-8316-fbb5dd0daf10" points="162.34 178.26 181.21 197.14 181.21 191.51 167.96 178.26 162.34 178.26"/><path class="fe4d3596-c5f6-4c96-9a99-46a84f18fdb4" d="M179.93,240.69H146.79a2.65,2.65,0,0,1-2.65-2.65v-26.5a2.65,2.65,0,0,1,2.65-2.65h33.13a2.65,2.65,0,0,1,2.65,2.65V238A2.65,2.65,0,0,1,179.93,240.69Zm-33.13-29.16V238h33.13v-26.5Z" transform="translate(-0.04 -31.94)"/><path class="8d5dc03f-5a91-4bfc-bb99-02d68ac9f91b" d="M136.19,226.11H122.94a1.33,1.33,0,0,1-1.33-1.33V212.86a1.33,1.33,0,0,1,1.33-1.33h13.25a1.33,1.33,0,0,1,1.33,1.33v11.93A1.33,1.33,0,0,1,136.19,226.11Z" transform="translate(-0.04 -31.94)"/><path class="4a722ff7-f336-4b5d-a647-9f254dcf8f8b" d="M129.58,211.53h-6.64a1.33,1.33,0,0,0-1.33,1.33v2l11.3,11.3h3.28a1.33,1.33,0,0,0,1.33-1.33v-5.32Z" transform="translate(-0.04 -31.94)"/></g><g class="3e9b2862-af5e-4a73-90c4-e788a1a50e40"><rect class="f0eba1cd-41f2-448f-a966-e8109afa18d4" x="5.3" y="11.93" width="74.21" height="51.68"/><rect class="c1112cce-e94e-42fa-a745-4461d293e404" x="5.3" y="55.66" width="74.21" height="7.95"/><rect class="c1112cce-e94e-42fa-a745-4461d293e404" x="5.3" y="9.28" width="74.21" height="9.28"/><path class="fe4d3596-c5f6-4c96-9a99-46a84f18fdb4" d="M31.84,53.15H13.29A1.33,1.33,0,0,0,12,54.47V94.23h21.2V54.47A1.33,1.33,0,0,0,31.84,53.15Z" transform="translate(-0.04 -31.94)"/><path class="fe4d3596-c5f6-4c96-9a99-46a84f18fdb4" d="M83.53,96.88H1.36a1.33,1.33,0,1,1,0-2.65H83.53a1.33,1.33,0,1,1,0,2.65Z" transform="translate(-0.04 -31.94)"/><path class="3394fcc0-4efc-421c-b356-9761279f1bd8" d="M29.19,78.33A1.32,1.32,0,0,1,27.87,77V74.35a1.33,1.33,0,1,1,2.65,0V77A1.32,1.32,0,0,1,29.19,78.33Z" transform="translate(-0.04 -31.94)"/><path class="f0eba1cd-41f2-448f-a966-e8109afa18d4" d="M6.66,47.85h0a4,4,0,0,1-4-4V34.59a2.65,2.65,0,0,1,2.65-2.65h5.3V43.87A4,4,0,0,1,6.66,47.85Z" transform="translate(-0.04 -31.94)"/><path class="fe4d3596-c5f6-4c96-9a99-46a84f18fdb4" d="M14.61,47.85h0a4,4,0,0,1-4-4V31.94h8V43.87A4,4,0,0,1,14.61,47.85Z" transform="translate(-0.04 -31.94)"/><path class="f0eba1cd-41f2-448f-a966-e8109afa18d4" d="M22.57,47.85h0a4,4,0,0,1-4-4V31.94h8V43.87A4,4,0,0,1,22.57,47.85Z" transform="translate(-0.04 -31.94)"/><path class="fe4d3596-c5f6-4c96-9a99-46a84f18fdb4" d="M30.52,47.85h0a4,4,0,0,1-4-4V31.94h8V43.87A4,4,0,0,1,30.52,47.85Z" transform="translate(-0.04 -31.94)"/><path class="f0eba1cd-41f2-448f-a966-e8109afa18d4" d="M38.47,47.85h0a4,4,0,0,1-4-4V31.94h8V43.87A4,4,0,0,1,38.47,47.85Z" transform="translate(-0.04 -31.94)"/><path class="fe4d3596-c5f6-4c96-9a99-46a84f18fdb4" d="M46.42,47.85h0a4,4,0,0,1-4-4V31.94h8V43.87A4,4,0,0,1,46.42,47.85Z" transform="translate(-0.04 -31.94)"/><path class="f0eba1cd-41f2-448f-a966-e8109afa18d4" d="M54.37,47.85h0a4,4,0,0,1-4-4V31.94h8V43.87A4,4,0,0,1,54.37,47.85Z" transform="translate(-0.04 -31.94)"/><path class="fe4d3596-c5f6-4c96-9a99-46a84f18fdb4" d="M62.32,47.85h0a4,4,0,0,1-4-4V31.94h8V43.87A4,4,0,0,1,62.32,47.85Z" transform="translate(-0.04 -31.94)"/><path class="f0eba1cd-41f2-448f-a966-e8109afa18d4" d="M70.28,47.85h0a4,4,0,0,1-4-4V31.94h8V43.87A4,4,0,0,1,70.28,47.85Z" transform="translate(-0.04 -31.94)"/><path class="fe4d3596-c5f6-4c96-9a99-46a84f18fdb4" d="M78.23,47.85h0a4,4,0,0,1-4-4V31.94h5.3a2.65,2.65,0,0,1,2.65,2.65v9.28A4,4,0,0,1,78.23,47.85Z" transform="translate(-0.04 -31.94)"/><path class="f9444a44-b5ce-474f-bb55-5e0d3486698f" d="M72.93,54.47H39.79a1.33,1.33,0,0,0-1.33,1.33V82.3a1.33,1.33,0,0,0,1.33,1.33H72.93a1.33,1.33,0,0,0,1.33-1.33V55.8A1.33,1.33,0,0,0,72.93,54.47Z" transform="translate(-0.04 -31.94)"/><path class="4a722ff7-f336-4b5d-a647-9f254dcf8f8b" d="M65.9,83.63h7a1.33,1.33,0,0,0,1.33-1.33V80.73L48,54.47H38.47a1.3,1.3,0,0,0-1.1.63Z" transform="translate(-0.04 -31.94)"/><polygon class="0c737f8c-36bc-4dbf-8316-fbb5dd0daf10" points="55.34 22.53 74.21 41.4 74.21 35.78 60.96 22.53 55.34 22.53"/><path class="fe4d3596-c5f6-4c96-9a99-46a84f18fdb4" d="M72.93,85H39.79a2.65,2.65,0,0,1-2.65-2.65V55.8a2.65,2.65,0,0,1,2.65-2.65H72.93a2.65,2.65,0,0,1,2.65,2.65V82.3A2.65,2.65,0,0,1,72.93,85ZM39.79,55.8V82.3H72.93V55.8Z" transform="translate(-0.04 -31.94)"/><path class="8d5dc03f-5a91-4bfc-bb99-02d68ac9f91b" d="M29.19,70.38H15.94a1.33,1.33,0,0,1-1.33-1.33V57.12a1.33,1.33,0,0,1,1.33-1.33H29.19a1.33,1.33,0,0,1,1.33,1.33V69.05A1.33,1.33,0,0,1,29.19,70.38Z" transform="translate(-0.04 -31.94)"/><path class="4a722ff7-f336-4b5d-a647-9f254dcf8f8b" d="M22.58,55.8H15.94a1.33,1.33,0,0,0-1.33,1.33v2l11.3,11.3h3.28a1.33,1.33,0,0,0,1.33-1.33V63.73Z" transform="translate(-0.04 -31.94)"/></g><g class="3e9b2862-af5e-4a73-90c4-e788a1a50e40"><rect class="f0eba1cd-41f2-448f-a966-e8109afa18d4" x="5.3" y="91.26" width="74.21" height="51.68"/><rect class="c1112cce-e94e-42fa-a745-4461d293e404" x="5.3" y="134.99" width="74.21" height="7.95"/><rect class="c1112cce-e94e-42fa-a745-4461d293e404" x="5.3" y="88.61" width="74.21" height="9.28"/><path class="fe4d3596-c5f6-4c96-9a99-46a84f18fdb4" d="M31.84,132.48H13.29A1.33,1.33,0,0,0,12,133.8v39.76h21.2V133.8A1.33,1.33,0,0,0,31.84,132.48Z" transform="translate(-0.04 -31.94)"/><path class="fe4d3596-c5f6-4c96-9a99-46a84f18fdb4" d="M83.53,176.21H1.36a1.33,1.33,0,0,1,0-2.65H83.53a1.33,1.33,0,0,1,0,2.65Z" transform="translate(-0.04 -31.94)"/><path class="3394fcc0-4efc-421c-b356-9761279f1bd8" d="M29.19,157.66a1.32,1.32,0,0,1-1.33-1.33v-2.65a1.33,1.33,0,0,1,2.65,0v2.65A1.32,1.32,0,0,1,29.19,157.66Z" transform="translate(-0.04 -31.94)"/><path class="f0eba1cd-41f2-448f-a966-e8109afa18d4" d="M6.66,127.18h0a4,4,0,0,1-4-4v-9.28a2.65,2.65,0,0,1,2.65-2.65h5.3V123.2A4,4,0,0,1,6.66,127.18Z" transform="translate(-0.04 -31.94)"/><path class="fe4d3596-c5f6-4c96-9a99-46a84f18fdb4" d="M14.61,127.18h0a4,4,0,0,1-4-4V111.27h8V123.2A4,4,0,0,1,14.61,127.18Z" transform="translate(-0.04 -31.94)"/><path class="f0eba1cd-41f2-448f-a966-e8109afa18d4" d="M22.57,127.18h0a4,4,0,0,1-4-4V111.27h8V123.2A4,4,0,0,1,22.57,127.18Z" transform="translate(-0.04 -31.94)"/><path class="fe4d3596-c5f6-4c96-9a99-46a84f18fdb4" d="M30.52,127.18h0a4,4,0,0,1-4-4V111.27h8V123.2A4,4,0,0,1,30.52,127.18Z" transform="translate(-0.04 -31.94)"/><path class="f0eba1cd-41f2-448f-a966-e8109afa18d4" d="M38.47,127.18h0a4,4,0,0,1-4-4V111.27h8V123.2A4,4,0,0,1,38.47,127.18Z" transform="translate(-0.04 -31.94)"/><path class="fe4d3596-c5f6-4c96-9a99-46a84f18fdb4" d="M46.42,127.18h0a4,4,0,0,1-4-4V111.27h8V123.2A4,4,0,0,1,46.42,127.18Z" transform="translate(-0.04 -31.94)"/><path class="f0eba1cd-41f2-448f-a966-e8109afa18d4" d="M54.37,127.18h0a4,4,0,0,1-4-4V111.27h8V123.2A4,4,0,0,1,54.37,127.18Z" transform="translate(-0.04 -31.94)"/><path class="fe4d3596-c5f6-4c96-9a99-46a84f18fdb4" d="M62.32,127.18h0a4,4,0,0,1-4-4V111.27h8V123.2A4,4,0,0,1,62.32,127.18Z" transform="translate(-0.04 -31.94)"/><path class="f0eba1cd-41f2-448f-a966-e8109afa18d4" d="M70.28,127.18h0a4,4,0,0,1-4-4V111.27h8V123.2A4,4,0,0,1,70.28,127.18Z" transform="translate(-0.04 -31.94)"/><path class="fe4d3596-c5f6-4c96-9a99-46a84f18fdb4" d="M78.23,127.18h0a4,4,0,0,1-4-4V111.27h5.3a2.65,2.65,0,0,1,2.65,2.65v9.28A4,4,0,0,1,78.23,127.18Z" transform="translate(-0.04 -31.94)"/><path class="f9444a44-b5ce-474f-bb55-5e0d3486698f" d="M72.93,133.8H39.79a1.33,1.33,0,0,0-1.33,1.33v26.5A1.33,1.33,0,0,0,39.79,163H72.93a1.33,1.33,0,0,0,1.33-1.33v-26.5A1.33,1.33,0,0,0,72.93,133.8Z" transform="translate(-0.04 -31.94)"/><path class="4a722ff7-f336-4b5d-a647-9f254dcf8f8b" d="M65.9,163h7a1.33,1.33,0,0,0,1.33-1.33v-1.57L48,133.8H38.47a1.3,1.3,0,0,0-1.1.63Z" transform="translate(-0.04 -31.94)"/><polygon class="0c737f8c-36bc-4dbf-8316-fbb5dd0daf10" points="55.34 101.86 74.21 120.73 74.21 115.11 60.96 101.86 55.34 101.86"/><path class="fe4d3596-c5f6-4c96-9a99-46a84f18fdb4" d="M72.93,164.28H39.79a2.65,2.65,0,0,1-2.65-2.65v-26.5a2.65,2.65,0,0,1,2.65-2.65H72.93a2.65,2.65,0,0,1,2.65,2.65v26.5A2.65,2.65,0,0,1,72.93,164.28ZM39.79,135.13v26.5H72.93v-26.5Z" transform="translate(-0.04 -31.94)"/><path class="8d5dc03f-5a91-4bfc-bb99-02d68ac9f91b" d="M29.19,149.71H15.94a1.33,1.33,0,0,1-1.33-1.33V136.45a1.33,1.33,0,0,1,1.33-1.33H29.19a1.33,1.33,0,0,1,1.33,1.33v11.93A1.33,1.33,0,0,1,29.19,149.71Z" transform="translate(-0.04 -31.94)"/><path class="4a722ff7-f336-4b5d-a647-9f254dcf8f8b" d="M22.58,135.13H15.94a1.33,1.33,0,0,0-1.33,1.33v2l11.3,11.3h3.28a1.33,1.33,0,0,0,1.33-1.33v-5.32Z" transform="translate(-0.04 -31.94)"/></g><g class="3e9b2862-af5e-4a73-90c4-e788a1a50e40"><rect class="f0eba1cd-41f2-448f-a966-e8109afa18d4" x="5.3" y="167.66" width="74.21" height="51.68"/><rect class="c1112cce-e94e-42fa-a745-4461d293e404" x="5.3" y="211.39" width="74.21" height="7.95"/><rect class="c1112cce-e94e-42fa-a745-4461d293e404" x="5.3" y="165.01" width="74.21" height="9.28"/><path class="fe4d3596-c5f6-4c96-9a99-46a84f18fdb4" d="M31.84,208.88H13.29A1.33,1.33,0,0,0,12,210.21V250h21.2V210.21A1.33,1.33,0,0,0,31.84,208.88Z" transform="translate(-0.04 -31.94)"/><path class="fe4d3596-c5f6-4c96-9a99-46a84f18fdb4" d="M83.53,252.61H1.36a1.33,1.33,0,1,1,0-2.65H83.53a1.33,1.33,0,1,1,0,2.65Z" transform="translate(-0.04 -31.94)"/><path class="3394fcc0-4efc-421c-b356-9761279f1bd8" d="M29.19,234.06a1.32,1.32,0,0,1-1.33-1.33v-2.65a1.33,1.33,0,0,1,2.65,0v2.65A1.32,1.32,0,0,1,29.19,234.06Z" transform="translate(-0.04 -31.94)"/><path class="f0eba1cd-41f2-448f-a966-e8109afa18d4" d="M6.66,203.58h0a4,4,0,0,1-4-4v-9.28a2.65,2.65,0,0,1,2.65-2.65h5.3V199.6A4,4,0,0,1,6.66,203.58Z" transform="translate(-0.04 -31.94)"/><path class="fe4d3596-c5f6-4c96-9a99-46a84f18fdb4" d="M14.61,203.58h0a4,4,0,0,1-4-4V187.68h8V199.6A4,4,0,0,1,14.61,203.58Z" transform="translate(-0.04 -31.94)"/><path class="f0eba1cd-41f2-448f-a966-e8109afa18d4" d="M22.57,203.58h0a4,4,0,0,1-4-4V187.68h8V199.6A4,4,0,0,1,22.57,203.58Z" transform="translate(-0.04 -31.94)"/><path class="fe4d3596-c5f6-4c96-9a99-46a84f18fdb4" d="M30.52,203.58h0a4,4,0,0,1-4-4V187.68h8V199.6A4,4,0,0,1,30.52,203.58Z" transform="translate(-0.04 -31.94)"/><path class="f0eba1cd-41f2-448f-a966-e8109afa18d4" d="M38.47,203.58h0a4,4,0,0,1-4-4V187.68h8V199.6A4,4,0,0,1,38.47,203.58Z" transform="translate(-0.04 -31.94)"/><path class="fe4d3596-c5f6-4c96-9a99-46a84f18fdb4" d="M46.42,203.58h0a4,4,0,0,1-4-4V187.68h8V199.6A4,4,0,0,1,46.42,203.58Z" transform="translate(-0.04 -31.94)"/><path class="f0eba1cd-41f2-448f-a966-e8109afa18d4" d="M54.37,203.58h0a4,4,0,0,1-4-4V187.68h8V199.6A4,4,0,0,1,54.37,203.58Z" transform="translate(-0.04 -31.94)"/><path class="fe4d3596-c5f6-4c96-9a99-46a84f18fdb4" d="M62.32,203.58h0a4,4,0,0,1-4-4V187.68h8V199.6A4,4,0,0,1,62.32,203.58Z" transform="translate(-0.04 -31.94)"/><path class="f0eba1cd-41f2-448f-a966-e8109afa18d4" d="M70.28,203.58h0a4,4,0,0,1-4-4V187.68h8V199.6A4,4,0,0,1,70.28,203.58Z" transform="translate(-0.04 -31.94)"/><path class="fe4d3596-c5f6-4c96-9a99-46a84f18fdb4" d="M78.23,203.58h0a4,4,0,0,1-4-4V187.68h5.3a2.65,2.65,0,0,1,2.65,2.65v9.28A4,4,0,0,1,78.23,203.58Z" transform="translate(-0.04 -31.94)"/><path class="f9444a44-b5ce-474f-bb55-5e0d3486698f" d="M72.93,210.21H39.79a1.33,1.33,0,0,0-1.33,1.33V238a1.33,1.33,0,0,0,1.33,1.33H72.93A1.33,1.33,0,0,0,74.25,238v-26.5A1.33,1.33,0,0,0,72.93,210.21Z" transform="translate(-0.04 -31.94)"/><path class="4a722ff7-f336-4b5d-a647-9f254dcf8f8b" d="M65.9,239.36h7A1.33,1.33,0,0,0,74.25,238v-1.57L48,210.21H38.47a1.3,1.3,0,0,0-1.1.63Z" transform="translate(-0.04 -31.94)"/><polygon class="0c737f8c-36bc-4dbf-8316-fbb5dd0daf10" points="55.34 178.26 74.21 197.14 74.21 191.51 60.96 178.26 55.34 178.26"/><path class="fe4d3596-c5f6-4c96-9a99-46a84f18fdb4" d="M72.93,240.69H39.79A2.65,2.65,0,0,1,37.14,238v-26.5a2.65,2.65,0,0,1,2.65-2.65H72.93a2.65,2.65,0,0,1,2.65,2.65V238A2.65,2.65,0,0,1,72.93,240.69ZM39.79,211.53V238H72.93v-26.5Z" transform="translate(-0.04 -31.94)"/><path class="8d5dc03f-5a91-4bfc-bb99-02d68ac9f91b" d="M29.19,226.11H15.94a1.33,1.33,0,0,1-1.33-1.33V212.86a1.33,1.33,0,0,1,1.33-1.33H29.19a1.33,1.33,0,0,1,1.33,1.33v11.93A1.33,1.33,0,0,1,29.19,226.11Z" transform="translate(-0.04 -31.94)"/><path class="4a722ff7-f336-4b5d-a647-9f254dcf8f8b" d="M22.58,211.53H15.94a1.33,1.33,0,0,0-1.33,1.33v2l11.3,11.3h3.28a1.33,1.33,0,0,0,1.33-1.33v-5.32Z" transform="translate(-0.04 -31.94)"/></g><g class="3e9b2862-af5e-4a73-90c4-e788a1a50e40"><rect class="f0eba1cd-41f2-448f-a966-e8109afa18d4" x="216.71" y="11.93" width="74.21" height="51.68"/><rect class="c1112cce-e94e-42fa-a745-4461d293e404" x="216.71" y="55.66" width="74.21" height="7.95"/><rect class="c1112cce-e94e-42fa-a745-4461d293e404" x="216.71" y="9.28" width="74.21" height="9.28"/><path class="fe4d3596-c5f6-4c96-9a99-46a84f18fdb4" d="M243.25,53.15H224.7a1.33,1.33,0,0,0-1.33,1.33V94.23h21.2V54.47A1.33,1.33,0,0,0,243.25,53.15Z" transform="translate(-0.04 -31.94)"/><path class="fe4d3596-c5f6-4c96-9a99-46a84f18fdb4" d="M294.93,96.88H212.77a1.33,1.33,0,0,1,0-2.65h82.17a1.33,1.33,0,0,1,0,2.65Z" transform="translate(-0.04 -31.94)"/><path class="3394fcc0-4efc-421c-b356-9761279f1bd8" d="M240.6,78.33A1.32,1.32,0,0,1,239.27,77V74.35a1.33,1.33,0,0,1,2.65,0V77A1.32,1.32,0,0,1,240.6,78.33Z" transform="translate(-0.04 -31.94)"/><path class="f0eba1cd-41f2-448f-a966-e8109afa18d4" d="M218.07,47.85h0a4,4,0,0,1-4-4V34.59a2.65,2.65,0,0,1,2.65-2.65H222V43.87A4,4,0,0,1,218.07,47.85Z" transform="translate(-0.04 -31.94)"/><path class="fe4d3596-c5f6-4c96-9a99-46a84f18fdb4" d="M226,47.85h0a4,4,0,0,1-4-4V31.94h8V43.87A4,4,0,0,1,226,47.85Z" transform="translate(-0.04 -31.94)"/><path class="f0eba1cd-41f2-448f-a966-e8109afa18d4" d="M234,47.85h0a4,4,0,0,1-4-4V31.94h8V43.87A4,4,0,0,1,234,47.85Z" transform="translate(-0.04 -31.94)"/><path class="fe4d3596-c5f6-4c96-9a99-46a84f18fdb4" d="M241.92,47.85h0a4,4,0,0,1-4-4V31.94h8V43.87A4,4,0,0,1,241.92,47.85Z" transform="translate(-0.04 -31.94)"/><path class="f0eba1cd-41f2-448f-a966-e8109afa18d4" d="M249.88,47.85h0a4,4,0,0,1-4-4V31.94h8V43.87A4,4,0,0,1,249.88,47.85Z" transform="translate(-0.04 -31.94)"/><path class="fe4d3596-c5f6-4c96-9a99-46a84f18fdb4" d="M257.83,47.85h0a4,4,0,0,1-4-4V31.94h8V43.87A4,4,0,0,1,257.83,47.85Z" transform="translate(-0.04 -31.94)"/><path class="f0eba1cd-41f2-448f-a966-e8109afa18d4" d="M265.78,47.85h0a4,4,0,0,1-4-4V31.94h8V43.87A4,4,0,0,1,265.78,47.85Z" transform="translate(-0.04 -31.94)"/><path class="fe4d3596-c5f6-4c96-9a99-46a84f18fdb4" d="M273.73,47.85h0a4,4,0,0,1-4-4V31.94h8V43.87A4,4,0,0,1,273.73,47.85Z" transform="translate(-0.04 -31.94)"/><path class="f0eba1cd-41f2-448f-a966-e8109afa18d4" d="M281.68,47.85h0a4,4,0,0,1-4-4V31.94h8V43.87A4,4,0,0,1,281.68,47.85Z" transform="translate(-0.04 -31.94)"/><path class="fe4d3596-c5f6-4c96-9a99-46a84f18fdb4" d="M289.63,47.85h0a4,4,0,0,1-4-4V31.94H291a2.65,2.65,0,0,1,2.65,2.65v9.28A4,4,0,0,1,289.63,47.85Z" transform="translate(-0.04 -31.94)"/><path class="f9444a44-b5ce-474f-bb55-5e0d3486698f" d="M284.33,54.47H251.2a1.33,1.33,0,0,0-1.33,1.33V82.3a1.33,1.33,0,0,0,1.33,1.33h33.13a1.33,1.33,0,0,0,1.33-1.33V55.8A1.33,1.33,0,0,0,284.33,54.47Z" transform="translate(-0.04 -31.94)"/><path class="4a722ff7-f336-4b5d-a647-9f254dcf8f8b" d="M277.31,83.63h7a1.33,1.33,0,0,0,1.33-1.33V80.73L259.4,54.47h-9.52a1.3,1.3,0,0,0-1.1.63Z" transform="translate(-0.04 -31.94)"/><polygon class="0c737f8c-36bc-4dbf-8316-fbb5dd0daf10" points="266.75 22.53 285.62 41.4 285.62 35.78 272.37 22.53 266.75 22.53"/><path class="fe4d3596-c5f6-4c96-9a99-46a84f18fdb4" d="M284.33,85H251.2a2.65,2.65,0,0,1-2.65-2.65V55.8a2.65,2.65,0,0,1,2.65-2.65h33.13A2.65,2.65,0,0,1,287,55.8V82.3A2.65,2.65,0,0,1,284.33,85ZM251.2,55.8V82.3h33.13V55.8Z" transform="translate(-0.04 -31.94)"/><path class="8d5dc03f-5a91-4bfc-bb99-02d68ac9f91b" d="M240.6,70.38H227.35A1.33,1.33,0,0,1,226,69.05V57.12a1.33,1.33,0,0,1,1.33-1.33H240.6a1.33,1.33,0,0,1,1.33,1.33V69.05A1.33,1.33,0,0,1,240.6,70.38Z" transform="translate(-0.04 -31.94)"/><path class="4a722ff7-f336-4b5d-a647-9f254dcf8f8b" d="M234,55.8h-6.64A1.33,1.33,0,0,0,226,57.12v2l11.3,11.3h3.28a1.33,1.33,0,0,0,1.33-1.33V63.73Z" transform="translate(-0.04 -31.94)"/></g><g class="3e9b2862-af5e-4a73-90c4-e788a1a50e40"><rect class="f0eba1cd-41f2-448f-a966-e8109afa18d4" x="216.71" y="91.26" width="74.21" height="51.68"/><rect class="c1112cce-e94e-42fa-a745-4461d293e404" x="216.71" y="134.99" width="74.21" height="7.95"/><rect class="c1112cce-e94e-42fa-a745-4461d293e404" x="216.71" y="88.61" width="74.21" height="9.28"/><path class="fe4d3596-c5f6-4c96-9a99-46a84f18fdb4" d="M243.25,132.48H224.7a1.33,1.33,0,0,0-1.33,1.33v39.76h21.2V133.8A1.33,1.33,0,0,0,243.25,132.48Z" transform="translate(-0.04 -31.94)"/><path class="fe4d3596-c5f6-4c96-9a99-46a84f18fdb4" d="M294.93,176.21H212.77a1.33,1.33,0,0,1,0-2.65h82.17a1.33,1.33,0,0,1,0,2.65Z" transform="translate(-0.04 -31.94)"/><path class="3394fcc0-4efc-421c-b356-9761279f1bd8" d="M240.6,157.66a1.32,1.32,0,0,1-1.33-1.33v-2.65a1.33,1.33,0,0,1,2.65,0v2.65A1.32,1.32,0,0,1,240.6,157.66Z" transform="translate(-0.04 -31.94)"/><path class="f0eba1cd-41f2-448f-a966-e8109afa18d4" d="M218.07,127.18h0a4,4,0,0,1-4-4v-9.28a2.65,2.65,0,0,1,2.65-2.65H222V123.2A4,4,0,0,1,218.07,127.18Z" transform="translate(-0.04 -31.94)"/><path class="fe4d3596-c5f6-4c96-9a99-46a84f18fdb4" d="M226,127.18h0a4,4,0,0,1-4-4V111.27h8V123.2A4,4,0,0,1,226,127.18Z" transform="translate(-0.04 -31.94)"/><path class="f0eba1cd-41f2-448f-a966-e8109afa18d4" d="M234,127.18h0a4,4,0,0,1-4-4V111.27h8V123.2A4,4,0,0,1,234,127.18Z" transform="translate(-0.04 -31.94)"/><path class="fe4d3596-c5f6-4c96-9a99-46a84f18fdb4" d="M241.92,127.18h0a4,4,0,0,1-4-4V111.27h8V123.2A4,4,0,0,1,241.92,127.18Z" transform="translate(-0.04 -31.94)"/><path class="f0eba1cd-41f2-448f-a966-e8109afa18d4" d="M249.88,127.18h0a4,4,0,0,1-4-4V111.27h8V123.2A4,4,0,0,1,249.88,127.18Z" transform="translate(-0.04 -31.94)"/><path class="fe4d3596-c5f6-4c96-9a99-46a84f18fdb4" d="M257.83,127.18h0a4,4,0,0,1-4-4V111.27h8V123.2A4,4,0,0,1,257.83,127.18Z" transform="translate(-0.04 -31.94)"/><path class="f0eba1cd-41f2-448f-a966-e8109afa18d4" d="M265.78,127.18h0a4,4,0,0,1-4-4V111.27h8V123.2A4,4,0,0,1,265.78,127.18Z" transform="translate(-0.04 -31.94)"/><path class="fe4d3596-c5f6-4c96-9a99-46a84f18fdb4" d="M273.73,127.18h0a4,4,0,0,1-4-4V111.27h8V123.2A4,4,0,0,1,273.73,127.18Z" transform="translate(-0.04 -31.94)"/><path class="f0eba1cd-41f2-448f-a966-e8109afa18d4" d="M281.68,127.18h0a4,4,0,0,1-4-4V111.27h8V123.2A4,4,0,0,1,281.68,127.18Z" transform="translate(-0.04 -31.94)"/><path class="fe4d3596-c5f6-4c96-9a99-46a84f18fdb4" d="M289.63,127.18h0a4,4,0,0,1-4-4V111.27H291a2.65,2.65,0,0,1,2.65,2.65v9.28A4,4,0,0,1,289.63,127.18Z" transform="translate(-0.04 -31.94)"/><path class="f9444a44-b5ce-474f-bb55-5e0d3486698f" d="M284.33,133.8H251.2a1.33,1.33,0,0,0-1.33,1.33v26.5A1.33,1.33,0,0,0,251.2,163h33.13a1.33,1.33,0,0,0,1.33-1.33v-26.5A1.33,1.33,0,0,0,284.33,133.8Z" transform="translate(-0.04 -31.94)"/><path class="4a722ff7-f336-4b5d-a647-9f254dcf8f8b" d="M277.31,163h7a1.33,1.33,0,0,0,1.33-1.33v-1.57L259.4,133.8h-9.52a1.3,1.3,0,0,0-1.1.63Z" transform="translate(-0.04 -31.94)"/><polygon class="0c737f8c-36bc-4dbf-8316-fbb5dd0daf10" points="266.75 101.86 285.62 120.73 285.62 115.11 272.37 101.86 266.75 101.86"/><path class="fe4d3596-c5f6-4c96-9a99-46a84f18fdb4" d="M284.33,164.28H251.2a2.65,2.65,0,0,1-2.65-2.65v-26.5a2.65,2.65,0,0,1,2.65-2.65h33.13a2.65,2.65,0,0,1,2.65,2.65v26.5A2.65,2.65,0,0,1,284.33,164.28ZM251.2,135.13v26.5h33.13v-26.5Z" transform="translate(-0.04 -31.94)"/><path class="8d5dc03f-5a91-4bfc-bb99-02d68ac9f91b" d="M240.6,149.71H227.35a1.33,1.33,0,0,1-1.33-1.33V136.45a1.33,1.33,0,0,1,1.33-1.33H240.6a1.33,1.33,0,0,1,1.33,1.33v11.93A1.33,1.33,0,0,1,240.6,149.71Z" transform="translate(-0.04 -31.94)"/><path class="4a722ff7-f336-4b5d-a647-9f254dcf8f8b" d="M234,135.13h-6.64a1.33,1.33,0,0,0-1.33,1.33v2l11.3,11.3h3.28a1.33,1.33,0,0,0,1.33-1.33v-5.32Z" transform="translate(-0.04 -31.94)"/></g><g class="3e9b2862-af5e-4a73-90c4-e788a1a50e40"><rect class="f0eba1cd-41f2-448f-a966-e8109afa18d4" x="216.71" y="167.66" width="74.21" height="51.68"/><rect class="c1112cce-e94e-42fa-a745-4461d293e404" x="216.71" y="211.39" width="74.21" height="7.95"/><rect class="c1112cce-e94e-42fa-a745-4461d293e404" x="216.71" y="165.01" width="74.21" height="9.28"/><path class="fe4d3596-c5f6-4c96-9a99-46a84f18fdb4" d="M243.25,208.88H224.7a1.33,1.33,0,0,0-1.33,1.33V250h21.2V210.21A1.33,1.33,0,0,0,243.25,208.88Z" transform="translate(-0.04 -31.94)"/><path class="fe4d3596-c5f6-4c96-9a99-46a84f18fdb4" d="M294.93,252.61H212.77a1.33,1.33,0,0,1,0-2.65h82.17a1.33,1.33,0,0,1,0,2.65Z" transform="translate(-0.04 -31.94)"/><path class="3394fcc0-4efc-421c-b356-9761279f1bd8" d="M240.6,234.06a1.32,1.32,0,0,1-1.33-1.33v-2.65a1.33,1.33,0,0,1,2.65,0v2.65A1.32,1.32,0,0,1,240.6,234.06Z" transform="translate(-0.04 -31.94)"/><path class="f0eba1cd-41f2-448f-a966-e8109afa18d4" d="M218.07,203.58h0a4,4,0,0,1-4-4v-9.28a2.65,2.65,0,0,1,2.65-2.65H222V199.6A4,4,0,0,1,218.07,203.58Z" transform="translate(-0.04 -31.94)"/><path class="fe4d3596-c5f6-4c96-9a99-46a84f18fdb4" d="M226,203.58h0a4,4,0,0,1-4-4V187.68h8V199.6A4,4,0,0,1,226,203.58Z" transform="translate(-0.04 -31.94)"/><path class="f0eba1cd-41f2-448f-a966-e8109afa18d4" d="M234,203.58h0a4,4,0,0,1-4-4V187.68h8V199.6A4,4,0,0,1,234,203.58Z" transform="translate(-0.04 -31.94)"/><path class="fe4d3596-c5f6-4c96-9a99-46a84f18fdb4" d="M241.92,203.58h0a4,4,0,0,1-4-4V187.68h8V199.6A4,4,0,0,1,241.92,203.58Z" transform="translate(-0.04 -31.94)"/><path class="f0eba1cd-41f2-448f-a966-e8109afa18d4" d="M249.88,203.58h0a4,4,0,0,1-4-4V187.68h8V199.6A4,4,0,0,1,249.88,203.58Z" transform="translate(-0.04 -31.94)"/><path class="fe4d3596-c5f6-4c96-9a99-46a84f18fdb4" d="M257.83,203.58h0a4,4,0,0,1-4-4V187.68h8V199.6A4,4,0,0,1,257.83,203.58Z" transform="translate(-0.04 -31.94)"/><path class="f0eba1cd-41f2-448f-a966-e8109afa18d4" d="M265.78,203.58h0a4,4,0,0,1-4-4V187.68h8V199.6A4,4,0,0,1,265.78,203.58Z" transform="translate(-0.04 -31.94)"/><path class="fe4d3596-c5f6-4c96-9a99-46a84f18fdb4" d="M273.73,203.58h0a4,4,0,0,1-4-4V187.68h8V199.6A4,4,0,0,1,273.73,203.58Z" transform="translate(-0.04 -31.94)"/><path class="f0eba1cd-41f2-448f-a966-e8109afa18d4" d="M281.68,203.58h0a4,4,0,0,1-4-4V187.68h8V199.6A4,4,0,0,1,281.68,203.58Z" transform="translate(-0.04 -31.94)"/><path class="fe4d3596-c5f6-4c96-9a99-46a84f18fdb4" d="M289.63,203.58h0a4,4,0,0,1-4-4V187.68H291a2.65,2.65,0,0,1,2.65,2.65v9.28A4,4,0,0,1,289.63,203.58Z" transform="translate(-0.04 -31.94)"/><path class="f9444a44-b5ce-474f-bb55-5e0d3486698f" d="M284.33,210.21H251.2a1.33,1.33,0,0,0-1.33,1.33V238a1.33,1.33,0,0,0,1.33,1.33h33.13a1.33,1.33,0,0,0,1.33-1.33v-26.5A1.33,1.33,0,0,0,284.33,210.21Z" transform="translate(-0.04 -31.94)"/><path class="4a722ff7-f336-4b5d-a647-9f254dcf8f8b" d="M277.31,239.36h7a1.33,1.33,0,0,0,1.33-1.33v-1.57L259.4,210.21h-9.52a1.3,1.3,0,0,0-1.1.63Z" transform="translate(-0.04 -31.94)"/><polygon class="0c737f8c-36bc-4dbf-8316-fbb5dd0daf10" points="266.75 178.26 285.62 197.14 285.62 191.51 272.37 178.26 266.75 178.26"/><path class="fe4d3596-c5f6-4c96-9a99-46a84f18fdb4" d="M284.33,240.69H251.2a2.65,2.65,0,0,1-2.65-2.65v-26.5a2.65,2.65,0,0,1,2.65-2.65h33.13a2.65,2.65,0,0,1,2.65,2.65V238A2.65,2.65,0,0,1,284.33,240.69ZM251.2,211.53V238h33.13v-26.5Z" transform="translate(-0.04 -31.94)"/><path class="8d5dc03f-5a91-4bfc-bb99-02d68ac9f91b" d="M240.6,226.11H227.35a1.33,1.33,0,0,1-1.33-1.33V212.86a1.33,1.33,0,0,1,1.33-1.33H240.6a1.33,1.33,0,0,1,1.33,1.33v11.93A1.33,1.33,0,0,1,240.6,226.11Z" transform="translate(-0.04 -31.94)"/><path class="4a722ff7-f336-4b5d-a647-9f254dcf8f8b" d="M234,211.53h-6.64a1.33,1.33,0,0,0-1.33,1.33v2l11.3,11.3h3.28a1.33,1.33,0,0,0,1.33-1.33v-5.32Z" transform="translate(-0.04 -31.94)"/></g><path class="8a7618f5-5bd4-46d3-b910-fa42a925bf06" d="M234.64,144.49a22,22,0,1,0,22-22A21.91,21.91,0,0,0,234.64,144.49ZM258,130.95a8.43,8.43,0,0,1,4.83,2.84,7,7,0,0,1,1.85,1.94,2.33,2.33,0,1,1-4.09,2.22l-.12-.2a2.33,2.33,0,0,1-1.31-1.15l-.08-.14a4.13,4.13,0,0,0-1.07-.39v5.34l.12,0a8.79,8.79,0,0,1,5.37,3,6.14,6.14,0,0,1,2.66,5.38c0,4.29-2.94,7-8.15,7.51V158a3.37,3.37,0,0,1-4.52-.92,8.72,8.72,0,0,1-5.56-3,6.58,6.58,0,0,1-1.81-1.9,2.32,2.32,0,0,1,2-3.51h.23a2.35,2.35,0,0,1,2.08,1.28c0,.07.09.14.13.22a2.39,2.39,0,0,1,1.3,1.14l.06.11a5.05,5.05,0,0,0,1.49.52v-5.72a8.59,8.59,0,0,1-5-2.9,6.25,6.25,0,0,1-2.7-5.37c0-4.09,2.86-6.76,7.74-7.29V129.6a1.58,1.58,0,0,1,3.14-.21A1.57,1.57,0,0,1,258,130.95Z" transform="translate(-0.04 -31.94)"/><path class="8a7618f5-5bd4-46d3-b910-fa42a925bf06" d="M258,151.7a2.84,2.84,0,0,0,1.86-2.75,2.79,2.79,0,0,0-.25-1.2,7.05,7.05,0,0,0-1.61-.55Z" transform="translate(-0.04 -31.94)"/><path class="8a7618f5-5bd4-46d3-b910-fa42a925bf06" d="M252.07,138.92a2.56,2.56,0,0,0,.24,1.11,5.87,5.87,0,0,0,1.1.41v-3.9A2.75,2.75,0,0,0,252.07,138.92Z" transform="translate(-0.04 -31.94)"/><path class="e15ab13a-692a-46dc-a326-b385b948b145" d="M234.54,163.06l1.83-1.83a26.1,26.1,0,1,0-7.29-18.09,26,26,0,0,0,7.29,18.09L230.59,167l.12.09.21.19,2.92,2.91.16.17-.15-.17h0l-.17-.17a2.75,2.75,0,0,0-3.89,0l-1.69,1.69h0l4.05,4.05,1.69-1.69.18-.2,0-.06.11-.15.05-.09.08-.14.05-.1.06-.13,0-.11,0-.12,0-.12,0-.11,0-.14v-.1c0-.05,0-.1,0-.16s0,0,0-.07a2.74,2.74,0,0,0-.38-1.56h0l-.13-.2v0h0l4-4A29,29,0,0,1,234.54,163.06Zm-1.34-19.92a22,22,0,1,1,7.58,16.6A22,22,0,0,1,233.21,143.14Z" transform="translate(-0.04 -31.94)"/><path class="98795615-d952-4624-9a51-c9641e83b222" d="M240.78,159.73A22,22,0,0,1,271,127.89a22,22,0,1,0-30.25,31.84Z" transform="translate(-0.04 -31.94)"/><path class="98795615-d952-4624-9a51-c9641e83b222" d="M273.88,124.91a26.1,26.1,0,1,1-37.51,36.32l-1.83,1.83a29,29,0,0,0,3.52,3.52h0l1.94-1.94a26.11,26.11,0,0,0,33.88-39.72Z" transform="translate(-0.04 -31.94)"/><path class="cd315f67-97d1-4759-9ad6-397fc6edbf31" d="M225.33,169l-21.5,21.5a2.74,2.74,0,0,0-.8,1.92,2.74,2.74,0,0,1,.8-1.92Z" transform="translate(-0.04 -31.94)"/><path class="cd315f67-97d1-4759-9ad6-397fc6edbf31" d="M234.63,172.29s0,0,0,.07S234.63,172.32,234.63,172.29Z" transform="translate(-0.04 -31.94)"/><path class="cd315f67-97d1-4759-9ad6-397fc6edbf31" d="M234.61,172.52v0Z" transform="translate(-0.04 -31.94)"/><path class="cd315f67-97d1-4759-9ad6-397fc6edbf31" d="M234.24,170.73h0Z" transform="translate(-0.04 -31.94)"/><path class="cd315f67-97d1-4759-9ad6-397fc6edbf31" d="M234.56,172.75l0,.11Z" transform="translate(-0.04 -31.94)"/><path class="cd315f67-97d1-4759-9ad6-397fc6edbf31" d="M234.17,173.68l-.11.15Z" transform="translate(-0.04 -31.94)"/><path class="cd315f67-97d1-4759-9ad6-397fc6edbf31" d="M232.14,175.78l-4.05-4.05-21.5,21.5a2.75,2.75,0,0,0,0,3.88l.17.17a2.75,2.75,0,0,0,3.89,0l23.2-23.2.18-.2-.18.2Z" transform="translate(-0.04 -31.94)"/><path class="cd315f67-97d1-4759-9ad6-397fc6edbf31" d="M234.11,170.53h0Z" transform="translate(-0.04 -31.94)"/><path class="cd315f67-97d1-4759-9ad6-397fc6edbf31" d="M234.5,173l0,.12Z" transform="translate(-0.04 -31.94)"/><path class="cd315f67-97d1-4759-9ad6-397fc6edbf31" d="M233.83,170.2l.15.17-.16-.17h0Z" transform="translate(-0.04 -31.94)"/><path class="cd315f67-97d1-4759-9ad6-397fc6edbf31" d="M234.41,173.22l-.06.13Z" transform="translate(-0.04 -31.94)"/><path class="cd315f67-97d1-4759-9ad6-397fc6edbf31" d="M234.3,173.45l-.08.14Z" transform="translate(-0.04 -31.94)"/><path class="9dc62cc2-1d72-45f0-b35c-4c1323f44441" d="M229.36,166.51h0Z" transform="translate(-0.04 -31.94)"/><path class="9dc62cc2-1d72-45f0-b35c-4c1323f44441" d="M229.81,166.61h0Z" transform="translate(-0.04 -31.94)"/><polygon class="9dc62cc2-1d72-45f0-b35c-4c1323f44441" points="228.93 134.54 228.93 134.54 228.93 134.54 228.93 134.54"/><path class="9dc62cc2-1d72-45f0-b35c-4c1323f44441" d="M233.83,170.2h0l-2.92-2.91-.21-.19-.12-.09h0a2.76,2.76,0,0,1,.33.28Z" transform="translate(-0.04 -31.94)"/><path class="9dc62cc2-1d72-45f0-b35c-4c1323f44441" d="M206.58,193.23l21.5-21.5h0l-.79-.79-2-2h0l-21.5,21.5a2.74,2.74,0,0,0-.8,1.92v0a2.76,2.76,0,0,0,.11.76h0a2.74,2.74,0,0,0,.69,1.15l2.75,2.75h0A2.75,2.75,0,0,1,206.58,193.23Z" transform="translate(-0.04 -31.94)"/><polygon class="e15ab13a-692a-46dc-a326-b385b948b145" points="225.3 137.04 227.25 138.99 225.3 137.04 225.3 137.04"/><path class="98795615-d952-4624-9a51-c9641e83b222" d="M227.29,170.94l.79.79h0l1.69-1.69a2.75,2.75,0,0,1,3.89,0l.17.17h0l-2.92-2.91a2.76,2.76,0,0,0-.33-.28,2.73,2.73,0,0,0-.76-.39h0l-.38-.09h-.06a2.76,2.76,0,0,0-.39,0h0a2.74,2.74,0,0,0-1.94.8L225.33,169h0Z" transform="translate(-0.04 -31.94)"/><path class="98795615-d952-4624-9a51-c9641e83b222" d="M253.41,155.93a11,11,0,0,1-5.49-1.79,8.72,8.72,0,0,0,5.56,3,1.56,1.56,0,0,1-.07-.44Z" transform="translate(-0.04 -31.94)"/><path class="98795615-d952-4624-9a51-c9641e83b222" d="M256.57,155.91v.76a1.58,1.58,0,0,1-1.58,1.58h-.13A1.58,1.58,0,0,0,258,158v-.76c5.21-.54,8.15-3.23,8.15-7.51a6.14,6.14,0,0,0-2.66-5.38,6.48,6.48,0,0,1,1.23,4C264.72,152.68,261.78,155.38,256.57,155.91Z" transform="translate(-0.04 -31.94)"/><path class="98795615-d952-4624-9a51-c9641e83b222" d="M251.92,151.47l-.06-.11a2.39,2.39,0,0,0-1.3-1.14A3.61,3.61,0,0,0,251.92,151.47Z" transform="translate(-0.04 -31.94)"/><path class="98795615-d952-4624-9a51-c9641e83b222" d="M252,144.93a10.31,10.31,0,0,1-3.66-1.56,8.59,8.59,0,0,0,5,2.9v-1Z" transform="translate(-0.04 -31.94)"/><path class="98795615-d952-4624-9a51-c9641e83b222" d="M261.23,137.88a2.31,2.31,0,0,1-.77-.14l.12.2a2.33,2.33,0,1,0,4.09-2.22,7,7,0,0,0-1.85-1.94,6.57,6.57,0,0,1,.42.58A2.32,2.32,0,0,1,261.23,137.88Z" transform="translate(-0.04 -31.94)"/><path class="98795615-d952-4624-9a51-c9641e83b222" d="M256.57,134.7v6.41l1.43.28v-5.34a4.13,4.13,0,0,1,1.07.39A3.69,3.69,0,0,0,256.57,134.7Z" transform="translate(-0.04 -31.94)"/><path class="98795615-d952-4624-9a51-c9641e83b222" d="M256.57,152.05a5,5,0,0,0,1.43-.35v-4.49a7.05,7.05,0,0,1,1.61.55c-.43-.92-1.42-1.54-3-1.9Z" transform="translate(-0.04 -31.94)"/><path class="98795615-d952-4624-9a51-c9641e83b222" d="M256.57,129.6v1.11a12.46,12.46,0,0,1,1.43.24,1.57,1.57,0,0,0-1.45-1.56A1.56,1.56,0,0,1,256.57,129.6Z" transform="translate(-0.04 -31.94)"/><path class="98795615-d952-4624-9a51-c9641e83b222" d="M250.64,137.57a2.68,2.68,0,0,0,1.67,2.47,2.56,2.56,0,0,1-.24-1.11,2.75,2.75,0,0,1,1.34-2.37v-1.88A3,3,0,0,0,250.64,137.57Z" transform="translate(-0.04 -31.94)"/><path class="e15ab13a-692a-46dc-a326-b385b948b145" d="M256.57,129.6A1.64,1.64,0,0,0,255,128a1.58,1.58,0,0,0-1.58,1.58v1.11c-4.88.53-7.74,3.2-7.74,7.29a6.25,6.25,0,0,0,2.7,5.37,10.31,10.31,0,0,0,3.66,1.56l1.38.33V152a5.05,5.05,0,0,1-1.49-.52,3.61,3.61,0,0,1-1.36-1.25c0-.07-.09-.14-.13-.22a2.35,2.35,0,0,0-2.08-1.28h-.23a2.32,2.32,0,0,0-2,3.51,6.58,6.58,0,0,0,1.81,1.9,11,11,0,0,0,5.49,1.79v.74a1.6,1.6,0,0,0,1.45,1.57H255a1.58,1.58,0,0,0,1.58-1.58v-.76c5.21-.54,8.15-3.23,8.15-7.51a6.48,6.48,0,0,0-1.23-4,8.79,8.79,0,0,0-5.37-3l-.12,0-1.43-.28V134.7a3.69,3.69,0,0,1,2.5,1.74l.08.14a2.33,2.33,0,1,0,4.09-2.22,6.57,6.57,0,0,0-.42-.58,8.43,8.43,0,0,0-4.83-2.84,12.46,12.46,0,0,0-1.43-.24Zm-3.16,7v3.9a5.87,5.87,0,0,1-1.1-.41,2.68,2.68,0,0,1-1.67-2.47,3,3,0,0,1,2.77-2.89Zm6.19,11.2a2.79,2.79,0,0,1,.25,1.2A2.84,2.84,0,0,1,258,151.7a5,5,0,0,1-1.43.35v-6.2C258.18,146.21,259.18,146.83,259.6,147.75Z" transform="translate(-0.04 -31.94)"/></svg>