<?xml version="1.0" encoding="utf-8"?>
<!-- Generator: Adobe Illustrator 21.0.1, SVG Export Plug-In . SVG Version: 6.00 Build 0)  -->
<svg version="1.1" id="Layer_1" xmlns="http://www.w3.org/2000/svg" xmlns:xlink="http://www.w3.org/1999/xlink" x="0px" y="0px"
	 viewBox="0 0 768 1366" style="enable-background:new 0 0 768 1366;" xml:space="preserve">
<style type="text/css">
	.st0{fill:none;stroke:#000000;stroke-miterlimit:10;}
	.st1{fill:#6ED1B6;stroke:#000000;stroke-width:2;stroke-miterlimit:10;}
	.st2{fill:url(#SVGID_1_);stroke:#000000;stroke-width:2;stroke-miterlimit:10;}
	.st3{fill:none;stroke:#000000;stroke-width:2;stroke-miterlimit:10;}
	.st4{fill:#0A6277;}
</style>
<line class="st0" x1="383.5" y1="1021.1" x2="383.5" y2="1021.1"/>
<line class="st0" x1="382.9" y1="1016.6" x2="382.9" y2="1016.6"/>
<line class="st0" x1="385.5" y1="1019.6" x2="385.5" y2="1019.6"/>
<path class="st1" d="M495.8,1242.5c-14.7-30.6-107.4-223.2-112.1-233.1c-9.6,20.4-97.1,205.8-110.3,233.8c-1.8,1.6-2.7,3.2-2.7,4.9
	c0,12.5,51.2,22.6,114.3,22.6s114.3-10.1,114.3-22.6C499.3,1246.2,498.1,1244.3,495.8,1242.5z"/>
<line class="st0" x1="385.6" y1="1021" x2="385.6" y2="1021"/>
<linearGradient id="SVGID_1_" gradientUnits="userSpaceOnUse" x1="385" y1="966.9203" x2="385" y2="332.1948">
	<stop  offset="3.333334e-02" style="stop-color:#6ED1B6"/>
	<stop  offset="4.399459e-02" style="stop-color:#6CCFB5"/>
	<stop  offset="0.2169" style="stop-color:#4BB0A8"/>
	<stop  offset="0.3959" style="stop-color:#32989E"/>
	<stop  offset="0.5812" style="stop-color:#208797"/>
	<stop  offset="0.7768" style="stop-color:#157C92"/>
	<stop  offset="1" style="stop-color:#127991"/>
</linearGradient>
<polyline class="st2" points="383.5,1021.1 7.5,224 762.5,224 "/>
<line class="st3" x1="383.5" y1="1021.1" x2="762.5" y2="224"/>
<g>
	<path class="st4" d="M385,293.7c-102,0-197.8-7.8-269.9-22C44.5,257.8,4,238.7,4,219.5s40.5-38.3,111.1-52.2
		c72.1-14.2,167.9-22,269.9-22c102,0,197.8,7.8,269.9,22c70.6,13.9,111.1,32.9,111.1,52.2s-40.5,38.3-111.1,52.2
		C582.8,285.8,487,293.7,385,293.7z"/>
	<path d="M385,146.3c101.9,0,197.7,7.8,269.7,22C724.8,182,765,200.7,765,219.5s-40.2,37.4-110.3,51.2c-72,14.2-167.8,22-269.7,22
		s-197.7-7.8-269.7-22C45.2,256.9,5,238.2,5,219.5s40.2-37.4,110.3-51.2C187.3,154.1,283.1,146.3,385,146.3 M385,144.3
		c-211,0-382,33.7-382,75.2s171,75.2,382,75.2s382-33.7,382-75.2S596,144.3,385,144.3L385,144.3z"/>
</g>
</svg>
