<?xml version="1.0" encoding="utf-8"?>
<!-- Generator: Adobe Illustrator 21.0.1, SVG Export Plug-In . SVG Version: 6.00 Build 0)  -->
<svg version="1.1" id="Layer_1" xmlns="http://www.w3.org/2000/svg" xmlns:xlink="http://www.w3.org/1999/xlink" x="0px" y="0px"
	 viewBox="0 0 768 1366" style="enable-background:new 0 0 768 1366;" xml:space="preserve">
<style type="text/css">
	.st0{fill:none;stroke:#000000;stroke-miterlimit:10;}
	.st1{fill:#6ED1B6;stroke:#000000;stroke-width:4;stroke-miterlimit:10;}
	.st2{fill:url(#SVGID_1_);stroke:#000000;stroke-width:4;stroke-miterlimit:10;}
	.st3{fill:none;stroke:#000000;stroke-width:4;stroke-miterlimit:10;}
	.st4{fill:#0A6277;}
	.st5{opacity:0.49;}
	.st6{fill:url(#SVGID_2_);}
	.st7{fill:url(#SVGID_3_);}
	.st8{fill:url(#SVGID_4_);}
</style>
<path class="st1" d="M495.8,1242.5c-14.7-30.6-107.4-223.2-112.1-233.1c-9.6,20.4-97.1,205.8-110.3,233.8c-1.8,1.6-2.7,3.2-2.7,4.9
	c0,12.5,51.2,22.6,114.3,22.6s114.3-10.1,114.3-22.6C499.3,1246.2,498.1,1244.3,495.8,1242.5z"/>
<linearGradient id="SVGID_1_" gradientUnits="userSpaceOnUse" x1="385" y1="966.9203" x2="385" y2="332.1948">
	<stop  offset="3.333334e-02" style="stop-color:#6ED1B6"/>
	<stop  offset="4.399459e-02" style="stop-color:#6CCFB5"/>
	<stop  offset="0.2169" style="stop-color:#4BB0A8"/>
	<stop  offset="0.3959" style="stop-color:#32989E"/>
	<stop  offset="0.5812" style="stop-color:#208797"/>
	<stop  offset="0.7768" style="stop-color:#157C92"/>
	<stop  offset="1" style="stop-color:#127991"/>
</linearGradient>
<polyline class="st2" points="383.5,1021.1 7.5,224 762.5,224 "/>
<line class="st3" x1="383.5" y1="1021.1" x2="762.5" y2="224"/>
<g>
	<path class="st4" d="M385,292.7c-101.9,0-197.7-7.8-269.7-22C45.2,256.9,5,238.2,5,219.5s40.2-37.4,110.3-51.2
		c72-14.2,167.8-22,269.7-22s197.7,7.8,269.7,22C724.8,182,765,200.7,765,219.5s-40.2,37.4-110.3,51.2
		C582.7,284.9,486.9,292.7,385,292.7z"/>
	<path d="M385,148.3c101.8,0,197.4,7.8,269.3,21.9c34.8,6.8,62,14.8,81,23.6c18.1,8.4,27.7,17.3,27.7,25.6s-9.6,17.2-27.7,25.6
		c-18.9,8.8-46.2,16.8-81,23.6c-71.9,14.2-167.6,21.9-269.3,21.9s-197.4-7.8-269.3-21.9c-34.8-6.8-62-14.8-81-23.6
		C16.6,236.7,7,227.8,7,219.5s9.6-17.2,27.7-25.6c18.9-8.8,46.2-16.8,81-23.6C187.6,156.1,283.2,148.3,385,148.3 M385,144.3
		c-211,0-382,33.7-382,75.2s171,75.2,382,75.2s382-33.7,382-75.2S596,144.3,385,144.3L385,144.3z"/>
</g>
<g class="st5">
	<g>
		<g>
			<path class="st4" d="M637,482.3c0,28.1-112.5,65.7-251.3,65.7s-251.3-30.8-251.3-65.7s112.5-63.1,251.3-63.1S637,447.5,637,482.3
				z"/>
			<g>
				<path d="M635.5,482.3c-0.1,7.4-7.6,13.2-13.1,17.1c-10.6,7.4-22.8,12.5-34.9,17c-37.6,13.8-77.8,21-117.5,25.5
					c-49.6,5.6-99.8,5.9-149.6,2.3c-42-3.1-84.5-8.6-124.8-21c-13.7-4.2-27.4-9.2-39.8-16.6c-7.5-4.5-16.2-10.6-19.1-19.3
					c-6.3-19.2,23.3-31.7,36.4-37c35.1-14,73.6-20,111-24.2c49.6-5.5,99.8-6.6,149.7-4.2c43.5,2.1,87.5,6.7,129.8,17.4
					c15,3.8,30.1,8.4,44.1,15.1c8.9,4.3,18.9,9.7,24.5,18.2C634.2,475.6,635.5,478.8,635.5,482.3c0,1.9,3,1.9,3,0
					c-0.1-8.3-5.7-14.9-11.8-19.9c-9.8-7.9-21.8-13.1-33.6-17.3c-38-13.9-79.2-19.6-119.3-23.4c-52.7-5-106-5.3-158.7-1.5
					c-42.7,3.1-86.2,8.5-127.1,21.6c-13,4.2-26.3,9.1-37.8,16.7c-6.9,4.6-14.4,10.7-16.6,19.1c-5.2,19.5,20.8,32.5,34.7,38.7
					c35.2,15.6,74.6,22.3,112.6,27c52.1,6.4,105,8,157.4,4.4c44.6-3.1,89.6-9.5,132.4-22.5c14.7-4.5,29.4-9.7,43-16.9
					c8.1-4.3,17.1-9.6,22.2-17.5c1.6-2.5,2.7-5.3,2.8-8.4C638.5,480.4,635.5,480.4,635.5,482.3z"/>
			</g>
		</g>
	</g>
	
		<radialGradient id="SVGID_2_" cx="393.2337" cy="411.6364" r="235.5466" gradientTransform="matrix(1 0 0 0.6 0 164.6545)" gradientUnits="userSpaceOnUse">
		<stop  offset="0.4513" style="stop-color:#127991"/>
		<stop  offset="1" style="stop-color:#127991;stop-opacity:0"/>
	</radialGradient>
	<rect x="80.1" y="298" class="st6" width="626.3" height="227.3"/>
</g>
<g class="st5">
	<g>
		<g>
			<path class="st4" d="M553.6,660.1c0,18.8-75.3,43.9-168.1,43.9s-168.1-20.6-168.1-43.9s75.3-42.2,168.1-42.2
				S553.6,636.8,553.6,660.1z"/>
			<g>
				<path d="M552.1,660.1c-0.1,5-5.3,8.8-9,11.3c-7.1,4.9-15.3,8.3-23.4,11.2c-24.9,9-51.4,13.8-77.6,16.8c-33,3.7-66.4,4-99.5,1.6
					c-27.9-2-56.1-5.7-82.9-13.7c-9.2-2.8-18.5-6.1-26.9-10.9c-5.1-3-11.2-7-13.3-12.8c-4.7-13,16.2-21.5,25-24.9
					c23.2-9,48.5-13,73-15.7c32.8-3.7,66.1-4.4,99.1-2.9c29.1,1.4,58.4,4.4,86.7,11.4c10.1,2.5,20.2,5.5,29.7,9.9
					c6.1,2.8,12.8,6.4,16.8,12C551.2,655.5,552.1,657.6,552.1,660.1c0,1.9,3,1.9,3,0c-0.3-13.9-19.2-21.1-29.8-25.1
					c-25.5-9.5-53.3-13.4-80.3-15.9c-35.8-3.4-71.9-3.6-107.7-1c-28.4,2.1-57.4,5.8-84.7,14.5c-8.8,2.8-17.7,6.2-25.4,11.4
					c-4.6,3.1-9.3,7.2-10.8,12.7c-3.5,13.2,13.7,22.1,23.3,26.3c23.3,10.4,49.5,14.9,74.7,18.1c35.3,4.5,71.2,5.5,106.7,3.1
					c30.1-2.1,60.4-6.5,89.3-15.4c9.6-3,19.2-6.4,28.1-11.2c5.4-2.9,11.5-6.5,14.9-11.9c1.1-1.8,1.8-3.7,1.8-5.7
					C555.2,658.2,552.2,658.2,552.1,660.1z"/>
			</g>
		</g>
	</g>
	
		<radialGradient id="SVGID_3_" cx="390.5512" cy="612.7884" r="157.5536" gradientTransform="matrix(1 0 0 0.6 0 245.1154)" gradientUnits="userSpaceOnUse">
		<stop  offset="0.4513" style="stop-color:#127991"/>
		<stop  offset="1" style="stop-color:#127991;stop-opacity:0"/>
	</radialGradient>
	<rect x="181.1" y="536.8" class="st7" width="418.9" height="152"/>
</g>
<g class="st5">
	<g>
		<g>
			<path class="st4" d="M482.4,811.3c0,11-44.1,25.7-98.5,25.7s-98.5-12.1-98.5-25.7s44.1-24.7,98.5-24.7S482.4,797.6,482.4,811.3z"
				/>
			<g>
				<path d="M480.9,811.3c-0.3,7-15.1,11.4-20.1,13.1c-14.7,5.1-30.3,7.8-45.8,9.5c-34.1,3.6-71,2.6-104.1-7.1
					c-7-2.1-20.7-5.6-23.7-13.5c-2.9-7.6,10.4-12.6,15.5-14.4c13.8-5.1,28.7-7.4,43.2-8.9c18.5-1.9,37.2-2.3,55.7-1.5
					c18.3,0.8,36.8,2.7,54.5,7.6c5.9,1.6,11.8,3.5,17.1,6.6C476.5,804.4,480.8,807.2,480.9,811.3c0.1,1.9,3.1,1.9,3,0
					c-0.3-8.2-10.6-12.5-17.1-15c-14.8-5.7-31-8-46.7-9.6c-21.5-2.1-43.2-2.3-64.8-0.7c-16.9,1.3-34.2,3.4-50.3,8.8
					c-7,2.3-18.7,6.1-20.9,14.3c-2,7.7,7.1,12.9,12.7,15.6c13.4,6.4,28.7,9,43.3,11c21.2,2.8,42.8,3.5,64.2,2.1
					c19.6-1.3,39.7-4.2,58.3-10.9c6.5-2.3,20.8-6.9,21.2-15.7C484,809.3,481,809.3,480.9,811.3z"/>
			</g>
		</g>
	</g>
	
		<radialGradient id="SVGID_4_" cx="386.8498" cy="783.5455" r="92.3343" gradientTransform="matrix(1 0 0 0.6 0 313.4182)" gradientUnits="userSpaceOnUse">
		<stop  offset="0.4513" style="stop-color:#127991;stop-opacity:0.4"/>
		<stop  offset="1" style="stop-color:#127991;stop-opacity:0"/>
	</radialGradient>
	<rect x="264.1" y="739" class="st8" width="245.5" height="89.1"/>
</g>
</svg>
