<?xml version="1.0" encoding="utf-8"?>
<!-- Generator: Adobe Illustrator 21.0.1, SVG Export Plug-In . SVG Version: 6.00 Build 0)  -->
<svg version="1.1" id="Layer_1" xmlns="http://www.w3.org/2000/svg" xmlns:xlink="http://www.w3.org/1999/xlink" x="0px" y="0px"
	 viewBox="0 0 768 1366" style="enable-background:new 0 0 768 1366;" xml:space="preserve">
<style type="text/css">
	.st0{fill:#0A6277;}
	.st1{fill:url(#SVGID_1_);}
	.st2{fill:url(#SVGID_2_);}
</style>
<g>
	<g>
		<path class="st0" d="M483.5,710c0,11.1-44.6,26-99.5,26s-99.5-12.2-99.5-26s44.6-25,99.5-25S483.5,696.2,483.5,710z"/>
		<g>
			<path d="M482,710c-0.1,3.1-3.8,5.4-6.1,6.8c-4.4,2.8-9.4,4.8-14.3,6.5c-14.7,5.1-30.3,7.8-45.7,9.5c-34.5,3.7-72.1,2.8-105.6-7.1
				c-7.1-2.1-21-5.6-24-13.7c-2.8-7.6,10.3-12.5,15.3-14.4c13.9-5.2,29-7.5,43.6-9.1c18.7-2,37.7-2.4,56.5-1.6
				c18.5,0.8,37.3,2.7,55.3,7.7c6,1.7,12.1,3.6,17.5,6.8C477.7,703.2,481.9,705.9,482,710c0.1,1.9,3.1,1.9,3,0
				c-0.3-8.2-10.5-12.5-16.9-15c-15.2-5.9-31.8-8.3-47.9-9.8c-21.8-2.1-43.8-2.3-65.6-0.6c-17,1.3-34.5,3.5-50.7,9
				c-6.9,2.3-18.5,6.2-20.7,14.4c-2,7.8,7.3,13.1,13,15.8c13.4,6.3,28.7,9,43.3,11c21.5,2.9,43.4,3.6,65,2.1
				c19.7-1.3,39.8-4.2,58.5-10.8c6.7-2.4,21.6-7,22-16C485.1,708.1,482.1,708.1,482,710z"/>
		</g>
	</g>
</g>
<g>
	<linearGradient id="SVGID_1_" gradientUnits="userSpaceOnUse" x1="384.9831" y1="735" x2="384.9831" y2="684">
		<stop  offset="0" style="stop-color:#127991"/>
		<stop  offset="0.3802" style="stop-color:#11768E"/>
		<stop  offset="0.713" style="stop-color:#0E6C83"/>
		<stop  offset="0.9359" style="stop-color:#0A6277"/>
	</linearGradient>
	<path class="st1" d="M484.5,709c0,11.1-44.6,26-99.5,26s-99.5-12.2-99.5-26s44.6-25,99.5-25S484.5,695.2,484.5,709z"/>
	<g>
		<path d="M483.5,709c-0.3,6.9-11.6,11-16.7,13c-13.2,5.3-27.5,8.2-41.6,10.1c-23.8,3.4-48.1,3.6-72,1.3
			c-15.2-1.4-30.7-3.8-45.2-8.6c-6.8-2.3-18.3-5.9-21-13.5c-2.5-7,6.2-11.8,11.3-14.2c12-5.7,25.6-8.1,38.6-10
			c24.1-3.5,48.8-4,73.1-2.4c17.7,1.2,35.8,3.3,52.7,8.8C469.3,695.8,483.2,700.1,483.5,709c0,0,2,0,2,0
			c-0.3-8.9-14.2-13.2-20.9-15.3c-16.4-5.3-33.9-7.5-51-8.7c-34.1-2.5-70.5-1.9-103.6,7.3c-7.6,2.1-22.3,5.7-25.1,14.6
			c-2.7,8.4,10.1,13.8,15.9,16.1c15.4,6.2,32.3,8.7,48.7,10.3c15.9,1.6,31.9,2.1,47.8,1.5c20.7-0.8,41.7-3.3,61.5-9.3
			c6.7-2,13.6-4.4,19.5-8.1c2.9-1.8,7-4.5,7.1-8.3C485.5,709,483.5,709,483.5,709z"/>
	</g>
</g>
<radialGradient id="SVGID_2_" cx="387" cy="682" r="93.2765" gradientTransform="matrix(1 0 0 0.6 0 272.8)" gradientUnits="userSpaceOnUse">
	<stop  offset="0.4513" style="stop-color:#127991"/>
	<stop  offset="1" style="stop-color:#127991;stop-opacity:0"/>
</radialGradient>
<rect x="263" y="637" class="st2" width="248" height="90"/>
<g>
	<path class="st0" d="M384,680c-75.4,0-126-12.4-126-24s50.6-24,126-24s126,12.4,126,24S459.4,680,384,680z"/>
	<path d="M384,633c33.8,0,65.6,2.6,89.4,7.3c26.2,5.2,35.6,11.5,35.6,15.7s-9.3,10.6-35.6,15.7c-23.9,4.7-55.6,7.3-89.4,7.3
		s-65.6-2.6-89.4-7.3c-26.2-5.2-35.6-11.5-35.6-15.7s9.3-10.6,35.6-15.7C318.4,635.6,350.2,633,384,633 M384,631
		c-70.1,0-127,11.2-127,25s56.9,25,127,25s127-11.2,127-25S454.1,631,384,631L384,631z"/>
</g>
</svg>
