<?xml version="1.0" encoding="utf-8"?>
<!-- Generator: Adobe Illustrator 21.0.1, SVG Export Plug-In . SVG Version: 6.00 Build 0)  -->
<svg version="1.1" id="Layer_1" xmlns="http://www.w3.org/2000/svg" xmlns:xlink="http://www.w3.org/1999/xlink" x="0px" y="0px"
	 viewBox="0 0 768 1366" style="enable-background:new 0 0 768 1366;" xml:space="preserve">
<style type="text/css">
	.st0{fill:#3F3F3F;stroke:#000000;stroke-width:7;stroke-miterlimit:10;}
	.st1{fill:#3F3F3F;}
	.st2{opacity:0.57;}
	.st3{fill:none;stroke:#000000;stroke-miterlimit:10;}
	.st4{fill:#6ED1B6;stroke:#000000;stroke-width:2;stroke-miterlimit:10;}
	.st5{fill:url(#SVGID_1_);stroke:#000000;stroke-width:2;stroke-miterlimit:10;}
	.st6{fill:none;stroke:#000000;stroke-width:2;stroke-miterlimit:10;}
	.st7{fill:#0A6277;}
	.st8{fill:url(#SVGID_2_);}
	.st9{opacity:0.57;fill:url(#SVGID_3_);}
	.st10{fill:url(#SVGID_4_);}
	.st11{opacity:0.57;fill:url(#SVGID_5_);}
</style>
<g>
	<line class="st0" x1="383.5" y1="963.2" x2="383.5" y2="963.2"/>
	<line class="st0" x1="382.9" y1="959.7" x2="382.9" y2="959.7"/>
	<line class="st0" x1="385.5" y1="962" x2="385.5" y2="962"/>
	<path class="st0" d="M495.8,1131.9c-14.7-23.3-107.4-170.1-112.1-177.7c-9.6,15.6-97.1,156.9-110.3,178.2c-1.8,1.2-2.7,2.4-2.7,3.7
		c0,9.5,51.2,17.2,114.3,17.2s114.3-7.7,114.3-17.2C499.3,1134.8,498.1,1133.3,495.8,1131.9z"/>
	<line class="st0" x1="385.6" y1="963.1" x2="385.6" y2="963.1"/>
	<polyline class="st0" points="383.5,963.2 7.5,355.5 762.5,355.5 	"/>
	<line class="st0" x1="383.5" y1="963.2" x2="762.5" y2="355.5"/>
	<g>
		<path class="st1" d="M385,408.7c-102,0-197.8-5.9-269.9-16.8C44.5,381.3,4,366.7,4,352.1c0-14.6,40.5-29.2,111.1-39.8
			c72.1-10.8,167.9-16.8,269.9-16.8s197.8,5.9,269.9,16.8c70.6,10.6,111.1,25.1,111.1,39.8c0,14.7-40.5,29.2-111.1,39.8
			C582.8,402.6,487,408.7,385,408.7z"/>
		<path class="st1" d="M385,296.3c101.9,0,197.7,5.9,269.7,16.8c70.1,10.4,110.3,24.7,110.3,39c0,14.3-40.2,28.5-110.3,39
			c-72,10.8-167.8,16.8-269.7,16.8s-197.7-5.9-269.7-16.8C45.2,380.6,5,366.4,5,352.1c0-14.3,40.2-28.5,110.3-39
			C187.3,302.3,283.1,296.3,385,296.3 M385,294.8c-211,0-382,25.7-382,57.3s171,57.3,382,57.3s382-25.7,382-57.3
			S596,294.8,385,294.8L385,294.8z"/>
	</g>
	<g>
		<g class="st2">
			<g>
				<path class="st1" d="M568.8,662.2c0,12.9-82.8,30.3-184.8,30.3s-184.8-14.2-184.8-30.3s82.8-29.1,184.8-29.1
					S568.8,646.1,568.8,662.2z"/>
				<g>
					<path class="st1" d="M566,662.2c-0.2,3.6-7.1,6.3-11.3,7.9c-8.2,3.3-17.5,5.6-26.6,7.6c-27.3,5.9-56.3,9.1-84.9,11.1
						c-64.1,4.3-133.9,3.3-196.1-8.3c-13.2-2.4-39-6.5-44.6-15.9c-5.2-8.8,19.1-14.6,28.4-16.8c25.8-6.1,53.9-8.7,81-10.6
						c34.7-2.3,70-2.8,104.9-1.9c34.4,0.9,69.3,3.1,102.7,9c11.1,2,22.5,4.2,32.5,7.9C558,654.3,565.8,657.4,566,662.2
						c0.2,2.2,5.8,2.2,5.6,0c-0.6-9.5-19.5-14.6-31.4-17.5c-28.2-6.9-59.1-9.7-88.9-11.4c-40.5-2.4-81.3-2.7-121.8-0.7
						c-31.6,1.5-64.1,4.1-94.1,10.5c-12.8,2.7-34.4,7.2-38.4,16.8c-3.7,9.1,13.6,15.3,24.1,18.4c24.9,7.3,53.3,10.5,80.4,12.8
						c39.9,3.4,80.6,4.2,120.7,2.4c36.6-1.5,73.9-4.9,108.6-12.6c12.4-2.8,40.1-8.1,40.9-18.6C571.7,660,566.2,660,566,662.2z"/>
				</g>
			</g>
		</g>
		<g class="st2">
			<path class="st1" d="M570.6,661c0,12.9-82.8,30.3-184.8,30.3S201.1,677.1,201.1,661c0-16.1,82.8-29.1,184.8-29.1
				S570.6,645,570.6,661z"/>
			<g>
				<path class="st1" d="M568.8,661c-0.6,8-21.5,12.8-31,15.1c-24.5,6.2-51.1,9.5-77.3,11.8c-44.2,4-89.3,4.2-133.7,1.5
					c-28.2-1.6-57-4.4-83.9-10c-12.6-2.7-34-6.9-39-15.7c-4.6-8.1,11.5-13.7,21-16.5c22.3-6.6,47.5-9.4,71.7-11.6
					c44.8-4.1,90.6-4.7,135.7-2.8c32.9,1.4,66.5,3.8,97.9,10.2C542.4,645.7,568.2,650.7,568.8,661h3.7
					c-0.6-10.4-26.4-15.4-38.8-17.8c-30.5-6.2-63-8.7-94.7-10.1c-63.3-2.9-130.9-2.2-192.4,8.5c-14.1,2.4-41.4,6.6-46.6,17
					c-5,9.8,18.8,16.1,29.5,18.7c28.6,7.2,60,10.1,90.4,12c29.5,1.9,59.2,2.4,88.8,1.7c38.4-0.9,77.4-3.8,114.2-10.8
					c12.4-2.3,25.3-5.1,36.2-9.4c5.4-2.1,13-5.2,13.2-9.7C572.5,661,568.8,661,568.8,661z"/>
			</g>
		</g>
	</g>
	<g class="st2">
		<path class="st1" d="M383.8,575.9c-154.7,0-258.6-19.4-258.6-37.5s103.8-37.5,258.6-37.5s258.6,19.4,258.6,37.5
			S538.5,575.9,383.8,575.9z"/>
		<path class="st1" d="M383.8,502.4c69.4,0,134.6,4.1,183.5,11.4c53.8,8.1,73.1,18,73.1,24.6s-19.1,16.6-73.1,24.6
			c-49,7.4-114.1,11.4-183.5,11.4s-134.6-4.1-183.5-11.4c-53.8-8.1-73.1-18-73.1-24.6s19.1-16.6,73.1-24.6
			C249.1,506.5,314.4,502.4,383.8,502.4 M383.8,499.3c-143.9,0-260.6,17.5-260.6,39.1s116.8,39.1,260.6,39.1s260.6-17.5,260.6-39.1
			S527.6,499.3,383.8,499.3L383.8,499.3z"/>
	</g>
	<g>
		<g class="st2">
			<g>
				<path class="st1" d="M505.2,764.8c0,10.3-54.3,24.1-121.1,24.1S263,777.6,263,764.8c0-12.8,54.3-23.2,121.1-23.2
					S505.2,752,505.2,764.8z"/>
				<g>
					<path class="st1" d="M503.4,764.8c-0.1,2.9-4.6,5-7.4,6.3c-5.4,2.6-11.4,4.5-17.4,6c-17.9,4.7-36.9,7.2-55.6,8.8
						c-42,3.4-87.8,2.6-128.6-6.6c-8.6-1.9-25.6-5.2-29.2-12.7c-3.4-7.1,12.5-11.6,18.6-13.4c16.9-4.8,35.3-7,53.1-8.4
						c22.8-1.9,45.9-2.2,68.8-1.5c22.5,0.7,45.4,2.5,67.3,7.1c7.3,1.6,14.7,3.3,21.3,6.3C498.2,758.5,503.3,761,503.4,764.8
						c0.1,1.8,3.8,1.8,3.7,0c-0.4-7.6-12.8-11.6-20.6-13.9c-18.5-5.5-38.7-7.7-58.3-9.1c-26.5-1.9-53.3-2.1-79.9-0.6
						c-20.7,1.2-42,3.2-61.7,8.4c-8.4,2.1-22.5,5.8-25.2,13.4c-2.4,7.2,8.9,12.2,15.8,14.7c16.3,5.8,34.9,8.4,52.7,10.2
						c26.2,2.7,52.8,3.3,79.1,1.9c24-1.2,48.5-3.9,71.2-10c8.2-2.2,26.3-6.5,26.8-14.8C507.2,763,503.5,763,503.4,764.8z"/>
				</g>
			</g>
		</g>
		<g class="st2">
			<path class="st1" d="M506.5,763.9c0,10.3-54.3,24.1-121.1,24.1s-121.1-11.3-121.1-24.1c0-12.8,54.3-23.2,121.1-23.2
				S506.5,751.1,506.5,763.9z"/>
			<g>
				<path class="st1" d="M505.2,763.9c-0.4,6.4-14.1,10.2-20.3,12.1c-16.1,4.9-33.5,7.6-50.6,9.4c-29,3.2-58.6,3.3-87.7,1.2
					c-18.5-1.3-37.4-3.5-55-8c-8.3-2.1-22.3-5.5-25.6-12.5c-3-6.5,7.5-11,13.8-13.2c14.6-5.3,31.2-7.5,47-9.3
					c29.3-3.2,59.4-3.7,89-2.2c21.5,1.1,43.6,3.1,64.2,8.2C488,751.6,504.9,755.6,505.2,763.9h2.4c-0.4-8.3-17.3-12.3-25.4-14.2
					c-20-4.9-41.3-7-62.1-8.1c-41.5-2.3-85.8-1.8-126.1,6.8c-9.3,1.9-27.2,5.3-30.6,13.6c-3.3,7.8,12.3,12.8,19.4,14.9
					c18.7,5.8,39.3,8.1,59.3,9.6c19.4,1.5,38.8,1.9,58.2,1.4c25.2-0.7,50.8-3.1,74.9-8.6c8.2-1.9,16.6-4.1,23.7-7.5
					c3.5-1.7,8.5-4.2,8.6-7.7C507.7,763.9,505.2,763.9,505.2,763.9z"/>
			</g>
		</g>
	</g>
</g>
<line class="st3" x1="383.5" y1="961.6" x2="383.5" y2="961.6"/>
<line class="st3" x1="382.9" y1="958.1" x2="382.9" y2="958.1"/>
<line class="st3" x1="385.5" y1="960.4" x2="385.5" y2="960.4"/>
<path class="st4" d="M495.8,1130.3c-14.7-23.3-107.4-170.1-112.1-177.7c-9.6,15.6-97.1,156.9-110.3,178.2c-1.8,1.2-2.7,2.4-2.7,3.7
	c0,9.5,51.2,17.2,114.3,17.2s114.3-7.7,114.3-17.2C499.3,1133.2,498.1,1131.7,495.8,1130.3z"/>
<line class="st3" x1="385.6" y1="961.5" x2="385.6" y2="961.5"/>
<linearGradient id="SVGID_1_" gradientUnits="userSpaceOnUse" x1="385" y1="445.7422" x2="385" y2="929.5959" gradientTransform="matrix(1 0 0 -1 0 1366)">
	<stop  offset="3.333334e-02" style="stop-color:#6ED1B6"/>
	<stop  offset="4.399459e-02" style="stop-color:#6CCFB5"/>
	<stop  offset="0.2169" style="stop-color:#4BB0A8"/>
	<stop  offset="0.3959" style="stop-color:#32989E"/>
	<stop  offset="0.5812" style="stop-color:#208797"/>
	<stop  offset="0.7768" style="stop-color:#157C92"/>
	<stop  offset="1" style="stop-color:#127991"/>
</linearGradient>
<polyline class="st5" points="383.5,961.6 7.5,353.9 762.5,353.9 "/>
<line class="st6" x1="383.5" y1="961.6" x2="762.5" y2="353.9"/>
<g>
	<path class="st7" d="M385,407.1c-102,0-197.8-5.9-269.9-16.8C44.5,379.7,4,365.1,4,350.5c0-14.6,40.5-29.2,111.1-39.8
		c72.1-10.8,167.9-16.8,269.9-16.8s197.8,5.9,269.9,16.8c70.6,10.6,111.1,25.1,111.1,39.8c0,14.7-40.5,29.2-111.1,39.8
		C582.8,401,487,407.1,385,407.1z"/>
	<path d="M385,294.7c101.9,0,197.7,5.9,269.7,16.8c70.1,10.4,110.3,24.7,110.3,39c0,14.3-40.2,28.5-110.3,39
		c-72,10.8-167.8,16.8-269.7,16.8s-197.7-5.9-269.7-16.8C45.2,379,5,364.8,5,350.5c0-14.3,40.2-28.5,110.3-39
		C187.3,300.6,283.1,294.7,385,294.7 M385,293.2c-211,0-382,25.7-382,57.3s171,57.3,382,57.3s382-25.7,382-57.3S596,293.2,385,293.2
		L385,293.2z"/>
</g>
<g>
	<g class="st2">
		<g>
			<path class="st7" d="M568.8,660.6c0,12.9-82.8,30.3-184.8,30.3s-184.8-14.2-184.8-30.3c0-16.1,82.8-29.1,184.8-29.1
				S568.8,644.5,568.8,660.6z"/>
			<g>
				<path d="M566,660.6c-0.2,3.6-7.1,6.3-11.3,7.9c-8.2,3.3-17.5,5.6-26.6,7.6c-27.3,5.9-56.3,9.1-84.9,11.1
					c-64.1,4.3-133.9,3.3-196.1-8.3c-13.2-2.4-39-6.5-44.6-15.9c-5.2-8.8,19.1-14.6,28.4-16.8c25.8-6.1,53.9-8.7,81-10.6
					c34.7-2.3,70-2.8,104.9-1.9c34.4,0.9,69.3,3.1,102.7,9c11.1,2,22.5,4.2,32.5,7.9C558,652.7,565.8,655.8,566,660.6
					c0.2,2.2,5.8,2.2,5.6,0c-0.6-9.5-19.5-14.6-31.4-17.5c-28.2-6.9-59.1-9.7-88.9-11.4c-40.5-2.4-81.3-2.7-121.8-0.7
					c-31.6,1.5-64.1,4.1-94.1,10.5c-12.8,2.7-34.4,7.2-38.4,16.8c-3.7,9.1,13.6,15.3,24.1,18.4c24.9,7.3,53.3,10.5,80.4,12.8
					c39.9,3.4,80.6,4.2,120.7,2.4c36.6-1.5,73.9-4.9,108.6-12.6c12.4-2.8,40.1-8.1,40.9-18.6C571.7,658.4,566.2,658.4,566,660.6z"/>
			</g>
		</g>
	</g>
	<g class="st2">
		
			<linearGradient id="SVGID_2_" gradientUnits="userSpaceOnUse" x1="385.8625" y1="676.2991" x2="385.8625" y2="735.6732" gradientTransform="matrix(1 0 0 -1 0 1366)">
			<stop  offset="0" style="stop-color:#127991"/>
			<stop  offset="0.3802" style="stop-color:#11768E"/>
			<stop  offset="0.713" style="stop-color:#0E6C83"/>
			<stop  offset="0.9359" style="stop-color:#0A6277"/>
		</linearGradient>
		<path class="st8" d="M570.6,659.4c0,12.9-82.8,30.3-184.8,30.3s-184.8-14.2-184.8-30.3s82.8-29.1,184.8-29.1
			S570.6,643.4,570.6,659.4z"/>
		<g>
			<path d="M568.8,659.4c-0.6,8-21.5,12.8-31,15.1c-24.5,6.2-51.1,9.5-77.3,11.8c-44.2,4-89.3,4.2-133.7,1.5
				c-28.2-1.6-57-4.4-83.9-10c-12.6-2.7-34-6.9-39-15.7c-4.6-8.1,11.5-13.7,21-16.5c22.3-6.6,47.5-9.4,71.7-11.6
				c44.8-4.1,90.6-4.7,135.7-2.8c32.9,1.4,66.5,3.8,97.9,10.2C542.4,644.1,568.2,649.1,568.8,659.4h3.7
				c-0.6-10.4-26.4-15.4-38.8-17.8c-30.5-6.2-63-8.7-94.7-10.1c-63.3-2.9-130.9-2.2-192.4,8.5c-14.1,2.4-41.4,6.6-46.6,17
				c-5,9.8,18.8,16.1,29.5,18.7c28.6,7.2,60,10.1,90.4,12c29.5,1.9,59.2,2.4,88.8,1.7c38.4-0.9,77.4-3.8,114.2-10.8
				c12.4-2.3,25.3-5.1,36.2-9.4c5.4-2.1,13-5.2,13.2-9.7C572.5,659.4,568.8,659.4,568.8,659.4z"/>
		</g>
	</g>
	
		<radialGradient id="SVGID_3_" cx="398.0182" cy="1584.8069" r="179.2479" gradientTransform="matrix(0.9663 0 0 -0.3635 4.9602 1204.0656)" gradientUnits="userSpaceOnUse">
		<stop  offset="0.4513" style="stop-color:#127991"/>
		<stop  offset="1" style="stop-color:#127991;stop-opacity:0"/>
	</radialGradient>
	<rect x="159.3" y="575.6" class="st9" width="460.5" height="104.8"/>
</g>
<g class="st2">
	<path class="st7" d="M383.8,574.3c-154.7,0-258.6-19.4-258.6-37.5c0-18.1,103.8-37.5,258.6-37.5s258.6,19.4,258.6,37.5
		C642.3,554.9,538.5,574.3,383.8,574.3z"/>
	<path d="M383.8,500.8c69.4,0,134.6,4.1,183.5,11.4c53.8,8.1,73.1,18,73.1,24.6s-19.1,16.6-73.1,24.6c-49,7.4-114.1,11.4-183.5,11.4
		s-134.6-4.1-183.5-11.4c-53.8-8.1-73.1-18-73.1-24.6s19.1-16.6,73.1-24.6C249.1,504.8,314.4,500.8,383.8,500.8 M383.8,497.7
		c-143.9,0-260.6,17.5-260.6,39.1s116.8,39.1,260.6,39.1s260.6-17.5,260.6-39.1S527.6,497.7,383.8,497.7L383.8,497.7z"/>
</g>
<g>
	<g class="st2">
		<g>
			<path class="st7" d="M505.2,763.2c0,10.3-54.3,24.1-121.1,24.1S263,776,263,763.2S317.3,740,384.1,740S505.2,750.4,505.2,763.2z"
				/>
			<g>
				<path d="M503.4,763.2c-0.1,2.9-4.6,5-7.4,6.3c-5.4,2.6-11.4,4.5-17.4,6c-17.9,4.7-36.9,7.2-55.6,8.8c-42,3.4-87.8,2.6-128.6-6.6
					c-8.6-1.9-25.6-5.2-29.2-12.7c-3.4-7.1,12.5-11.6,18.6-13.4c16.9-4.8,35.3-7,53.1-8.4c22.8-1.9,45.9-2.2,68.8-1.5
					c22.5,0.7,45.4,2.5,67.3,7.1c7.3,1.6,14.7,3.3,21.3,6.3C498.2,756.9,503.3,759.4,503.4,763.2c0.1,1.8,3.8,1.8,3.7,0
					c-0.4-7.6-12.8-11.6-20.6-13.9c-18.5-5.5-38.7-7.7-58.3-9.1c-26.5-1.9-53.3-2.1-79.9-0.6c-20.7,1.2-42,3.2-61.7,8.4
					c-8.4,2.1-22.5,5.8-25.2,13.4c-2.4,7.2,8.9,12.2,15.8,14.7c16.3,5.8,34.9,8.4,52.7,10.2c26.2,2.7,52.8,3.3,79.1,1.9
					c24-1.2,48.5-3.9,71.2-10c8.2-2.2,26.3-6.5,26.8-14.8C507.2,761.4,503.5,761.4,503.4,763.2z"/>
			</g>
		</g>
	</g>
	<g class="st2">
		
			<linearGradient id="SVGID_4_" gradientUnits="userSpaceOnUse" x1="385.3213" y1="579.6072" x2="385.3213" y2="626.9403" gradientTransform="matrix(1 0 0 -1 0 1366)">
			<stop  offset="0" style="stop-color:#127991"/>
			<stop  offset="0.3802" style="stop-color:#11768E"/>
			<stop  offset="0.713" style="stop-color:#0E6C83"/>
			<stop  offset="0.9359" style="stop-color:#0A6277"/>
		</linearGradient>
		<path class="st10" d="M506.5,762.3c0,10.3-54.3,24.1-121.1,24.1s-121.1-11.3-121.1-24.1s54.3-23.2,121.1-23.2
			S506.5,749.5,506.5,762.3z"/>
		<g>
			<path d="M505.2,762.3c-0.4,6.4-14.1,10.2-20.3,12.1c-16.1,4.9-33.5,7.6-50.6,9.4c-29,3.2-58.6,3.3-87.7,1.2
				c-18.5-1.3-37.4-3.5-55-8c-8.3-2.1-22.3-5.5-25.6-12.5c-3-6.5,7.5-11,13.8-13.2c14.6-5.3,31.2-7.5,47-9.3
				c29.3-3.2,59.4-3.7,89-2.2c21.5,1.1,43.6,3.1,64.2,8.2C488,750,504.9,754,505.2,762.3h2.4c-0.4-8.3-17.3-12.3-25.4-14.2
				c-20-4.9-41.3-7-62.1-8.1c-41.5-2.3-85.8-1.8-126.1,6.8c-9.3,1.9-27.2,5.3-30.6,13.6c-3.3,7.8,12.3,12.8,19.4,14.9
				c18.7,5.8,39.3,8.1,59.3,9.6c19.4,1.5,38.8,1.9,58.2,1.4c25.2-0.7,50.8-3.1,74.9-8.6c8.2-1.9,16.6-4.1,23.7-7.5
				c3.5-1.7,8.5-4.2,8.6-7.7C507.7,762.3,505.2,762.3,505.2,762.3z"/>
		</g>
	</g>
	
		<radialGradient id="SVGID_5_" cx="387.7563" cy="1225.6764" r="113.5636" gradientTransform="matrix(1 0 0 -0.4574 0 1297.8064)" gradientUnits="userSpaceOnUse">
		<stop  offset="0.4513" style="stop-color:#127991"/>
		<stop  offset="1" style="stop-color:#127991;stop-opacity:0"/>
	</radialGradient>
	<rect x="236.8" y="695.4" class="st11" width="301.9" height="83.5"/>
</g>
</svg>
