<svg id="Layer_1" data-name="Layer 1" xmlns="http://www.w3.org/2000/svg" viewBox="0 0 768 1366"><defs><style>.cls-1{opacity:0.51;}.cls-2{fill:#4bb0a8;}.cls-3{fill:#6ed1b6;}.cls-4{fill:#127991;}.cls-5{fill:#5c546a;}.cls-6{fill:#29afce;}.cls-7{fill:#b3f4ff;}.cls-8{fill:#fff;}.cls-9{fill:#3bb5d1;}.cls-10{fill:none;}.cls-10,.cls-11,.cls-12,.cls-13,.cls-14{stroke:#127991;stroke-miterlimit:10;stroke-width:2px;}.cls-11{fill:#ffc36e;}.cls-12{fill:#d38e20;}.cls-13{fill:#0c4a59;}.cls-14{fill:#5b5d6e;}</style></defs><title>conversion</title><g class="cls-1"><rect class="cls-2" x="72.16" y="184.19" width="233.14" height="162.37"/><rect class="cls-3" x="72.16" y="321.57" width="233.14" height="24.98"/><rect class="cls-3" x="72.16" y="175.86" width="233.14" height="29.14"/><path class="cls-4" d="M155.42,213.33H97.14A4.16,4.16,0,0,0,93,217.49v124.9h66.61V217.49A4.16,4.16,0,0,0,155.42,213.33Z"/><path class="cls-4" d="M317.79,350.72H59.67a4.16,4.16,0,1,1,0-8.33H317.79a4.16,4.16,0,1,1,0,8.33Z"/><path class="cls-5" d="M147.1,292.43a4.16,4.16,0,0,1-4.16-4.16v-8.33a4.16,4.16,0,0,1,8.33,0v8.33A4.16,4.16,0,0,1,147.1,292.43Z"/><path class="cls-2" d="M76.32,196.68h0a12.49,12.49,0,0,1-12.49-12.49V155a8.33,8.33,0,0,1,8.33-8.33H88.81v37.47A12.49,12.49,0,0,1,76.32,196.68Z"/><path class="cls-4" d="M101.3,196.68h0a12.49,12.49,0,0,1-12.49-12.49V146.72h25v37.47A12.49,12.49,0,0,1,101.3,196.68Z"/><path class="cls-2" d="M126.28,196.68h0a12.49,12.49,0,0,1-12.49-12.49V146.72h25v37.47A12.49,12.49,0,0,1,126.28,196.68Z"/><path class="cls-4" d="M151.26,196.68h0a12.49,12.49,0,0,1-12.49-12.49V146.72h25v37.47A12.49,12.49,0,0,1,151.26,196.68Z"/><path class="cls-2" d="M176.24,196.68h0a12.49,12.49,0,0,1-12.49-12.49V146.72h25v37.47A12.49,12.49,0,0,1,176.24,196.68Z"/><path class="cls-4" d="M201.22,196.68h0a12.49,12.49,0,0,1-12.49-12.49V146.72h25v37.47A12.49,12.49,0,0,1,201.22,196.68Z"/><path class="cls-2" d="M226.2,196.68h0a12.49,12.49,0,0,1-12.49-12.49V146.72h25v37.47A12.49,12.49,0,0,1,226.2,196.68Z"/><path class="cls-4" d="M251.18,196.68h0a12.49,12.49,0,0,1-12.49-12.49V146.72h25v37.47A12.49,12.49,0,0,1,251.18,196.68Z"/><path class="cls-2" d="M276.16,196.68h0a12.49,12.49,0,0,1-12.49-12.49V146.72h25v37.47A12.49,12.49,0,0,1,276.16,196.68Z"/><path class="cls-4" d="M301.14,196.68h0a12.49,12.49,0,0,1-12.49-12.49V146.72H305.3a8.33,8.33,0,0,1,8.33,8.33v29.14A12.49,12.49,0,0,1,301.14,196.68Z"/><path class="cls-6" d="M284.49,217.49H180.4a4.16,4.16,0,0,0-4.16,4.16v83.27a4.16,4.16,0,0,0,4.16,4.16H284.49a4.16,4.16,0,0,0,4.16-4.16V221.66A4.16,4.16,0,0,0,284.49,217.49Z"/><path class="cls-7" d="M262.41,309.08h22.07a4.16,4.16,0,0,0,4.16-4.16V300l-82.5-82.5H176.24a4.09,4.09,0,0,0-3.45,2Z"/><polygon class="cls-8" points="229.35 217.49 288.65 276.79 288.65 259.13 247.02 217.49 229.35 217.49"/><path class="cls-4" d="M284.49,313.25H180.4a8.34,8.34,0,0,1-8.33-8.33V221.66a8.34,8.34,0,0,1,8.33-8.33H284.49a8.34,8.34,0,0,1,8.33,8.33v83.27A8.34,8.34,0,0,1,284.49,313.25ZM180.4,221.66v83.27H284.49V221.66Z"/><path class="cls-9" d="M147.1,267.45H105.47a4.16,4.16,0,0,1-4.16-4.16V225.82a4.16,4.16,0,0,1,4.16-4.16H147.1a4.16,4.16,0,0,1,4.16,4.16v37.47A4.16,4.16,0,0,1,147.1,267.45Z"/><path class="cls-7" d="M126.33,221.66H105.47a4.16,4.16,0,0,0-4.16,4.16V232l35.5,35.5h10.3a4.16,4.16,0,0,0,4.16-4.16v-16.7Z"/></g><g class="cls-1"><rect class="cls-2" x="72.16" y="433.4" width="233.14" height="162.37"/><rect class="cls-3" x="72.16" y="570.79" width="233.14" height="24.98"/><rect class="cls-3" x="72.16" y="425.07" width="233.14" height="29.14"/><path class="cls-4" d="M155.42,462.54H97.14A4.16,4.16,0,0,0,93,466.71V591.6h66.61V466.71A4.16,4.16,0,0,0,155.42,462.54Z"/><path class="cls-4" d="M317.79,599.93H59.67a4.16,4.16,0,0,1,0-8.33H317.79a4.16,4.16,0,0,1,0,8.33Z"/><path class="cls-5" d="M147.1,541.65a4.16,4.16,0,0,1-4.16-4.16v-8.33a4.16,4.16,0,0,1,8.33,0v8.33A4.16,4.16,0,0,1,147.1,541.65Z"/><path class="cls-2" d="M76.32,445.89h0A12.49,12.49,0,0,1,63.83,433.4V404.26a8.33,8.33,0,0,1,8.33-8.33H88.81V433.4A12.49,12.49,0,0,1,76.32,445.89Z"/><path class="cls-4" d="M101.3,445.89h0A12.49,12.49,0,0,1,88.81,433.4V395.93h25V433.4A12.49,12.49,0,0,1,101.3,445.89Z"/><path class="cls-2" d="M126.28,445.89h0a12.49,12.49,0,0,1-12.49-12.49V395.93h25V433.4A12.49,12.49,0,0,1,126.28,445.89Z"/><path class="cls-4" d="M151.26,445.89h0a12.49,12.49,0,0,1-12.49-12.49V395.93h25V433.4A12.49,12.49,0,0,1,151.26,445.89Z"/><path class="cls-2" d="M176.24,445.89h0a12.49,12.49,0,0,1-12.49-12.49V395.93h25V433.4A12.49,12.49,0,0,1,176.24,445.89Z"/><path class="cls-4" d="M201.22,445.89h0a12.49,12.49,0,0,1-12.49-12.49V395.93h25V433.4A12.49,12.49,0,0,1,201.22,445.89Z"/><path class="cls-2" d="M226.2,445.89h0a12.49,12.49,0,0,1-12.49-12.49V395.93h25V433.4A12.49,12.49,0,0,1,226.2,445.89Z"/><path class="cls-4" d="M251.18,445.89h0a12.49,12.49,0,0,1-12.49-12.49V395.93h25V433.4A12.49,12.49,0,0,1,251.18,445.89Z"/><path class="cls-2" d="M276.16,445.89h0a12.49,12.49,0,0,1-12.49-12.49V395.93h25V433.4A12.49,12.49,0,0,1,276.16,445.89Z"/><path class="cls-4" d="M301.14,445.89h0a12.49,12.49,0,0,1-12.49-12.49V395.93H305.3a8.33,8.33,0,0,1,8.33,8.33V433.4A12.49,12.49,0,0,1,301.14,445.89Z"/><path class="cls-6" d="M284.49,466.71H180.4a4.16,4.16,0,0,0-4.16,4.16v83.27a4.16,4.16,0,0,0,4.16,4.16H284.49a4.16,4.16,0,0,0,4.16-4.16V470.87A4.16,4.16,0,0,0,284.49,466.71Z"/><path class="cls-7" d="M262.41,558.3h22.07a4.16,4.16,0,0,0,4.16-4.16v-4.93l-82.5-82.5H176.24a4.09,4.09,0,0,0-3.45,2Z"/><polygon class="cls-8" points="229.35 466.71 288.65 526 288.65 508.34 247.02 466.71 229.35 466.71"/><path class="cls-4" d="M284.49,562.46H180.4a8.34,8.34,0,0,1-8.33-8.33V470.87a8.34,8.34,0,0,1,8.33-8.33H284.49a8.34,8.34,0,0,1,8.33,8.33v83.27A8.34,8.34,0,0,1,284.49,562.46ZM180.4,470.87v83.27H284.49V470.87Z"/><path class="cls-9" d="M147.1,516.67H105.47a4.16,4.16,0,0,1-4.16-4.16V475a4.16,4.16,0,0,1,4.16-4.16H147.1a4.16,4.16,0,0,1,4.16,4.16V512.5A4.16,4.16,0,0,1,147.1,516.67Z"/><path class="cls-7" d="M126.33,470.87H105.47A4.16,4.16,0,0,0,101.3,475v6.13l35.5,35.5h10.3a4.16,4.16,0,0,0,4.16-4.16V495.8Z"/></g><g class="cls-1"><rect class="cls-2" x="72.16" y="673.42" width="233.14" height="162.37"/><rect class="cls-3" x="72.16" y="810.81" width="233.14" height="24.98"/><rect class="cls-3" x="72.16" y="665.1" width="233.14" height="29.14"/><path class="cls-4" d="M155.42,702.57H97.14A4.16,4.16,0,0,0,93,706.73v124.9h66.61V706.73A4.16,4.16,0,0,0,155.42,702.57Z"/><path class="cls-4" d="M317.79,840H59.67a4.16,4.16,0,0,1,0-8.33H317.79a4.16,4.16,0,0,1,0,8.33Z"/><path class="cls-5" d="M147.1,781.67a4.16,4.16,0,0,1-4.16-4.16v-8.33a4.16,4.16,0,0,1,8.33,0v8.33A4.16,4.16,0,0,1,147.1,781.67Z"/><path class="cls-2" d="M76.32,685.91h0a12.49,12.49,0,0,1-12.49-12.49V644.28A8.33,8.33,0,0,1,72.16,636H88.81v37.47A12.49,12.49,0,0,1,76.32,685.91Z"/><path class="cls-4" d="M101.3,685.91h0a12.49,12.49,0,0,1-12.49-12.49V636h25v37.47A12.49,12.49,0,0,1,101.3,685.91Z"/><path class="cls-2" d="M126.28,685.91h0a12.49,12.49,0,0,1-12.49-12.49V636h25v37.47A12.49,12.49,0,0,1,126.28,685.91Z"/><path class="cls-4" d="M151.26,685.91h0a12.49,12.49,0,0,1-12.49-12.49V636h25v37.47A12.49,12.49,0,0,1,151.26,685.91Z"/><path class="cls-2" d="M176.24,685.91h0a12.49,12.49,0,0,1-12.49-12.49V636h25v37.47A12.49,12.49,0,0,1,176.24,685.91Z"/><path class="cls-4" d="M201.22,685.91h0a12.49,12.49,0,0,1-12.49-12.49V636h25v37.47A12.49,12.49,0,0,1,201.22,685.91Z"/><path class="cls-2" d="M226.2,685.91h0a12.49,12.49,0,0,1-12.49-12.49V636h25v37.47A12.49,12.49,0,0,1,226.2,685.91Z"/><path class="cls-4" d="M251.18,685.91h0a12.49,12.49,0,0,1-12.49-12.49V636h25v37.47A12.49,12.49,0,0,1,251.18,685.91Z"/><path class="cls-2" d="M276.16,685.91h0a12.49,12.49,0,0,1-12.49-12.49V636h25v37.47A12.49,12.49,0,0,1,276.16,685.91Z"/><path class="cls-4" d="M301.14,685.91h0a12.49,12.49,0,0,1-12.49-12.49V636H305.3a8.33,8.33,0,0,1,8.33,8.33v29.14A12.49,12.49,0,0,1,301.14,685.91Z"/><path class="cls-6" d="M284.49,706.73H180.4a4.16,4.16,0,0,0-4.16,4.16v83.27a4.16,4.16,0,0,0,4.16,4.16H284.49a4.16,4.16,0,0,0,4.16-4.16V710.89A4.16,4.16,0,0,0,284.49,706.73Z"/><path class="cls-7" d="M262.41,798.32h22.07a4.16,4.16,0,0,0,4.16-4.16v-4.93l-82.5-82.5H176.24a4.09,4.09,0,0,0-3.45,2Z"/><polygon class="cls-8" points="229.35 706.73 288.65 766.03 288.65 748.36 247.02 706.73 229.35 706.73"/><path class="cls-4" d="M284.49,802.49H180.4a8.34,8.34,0,0,1-8.33-8.33V710.89a8.34,8.34,0,0,1,8.33-8.33H284.49a8.34,8.34,0,0,1,8.33,8.33v83.27A8.34,8.34,0,0,1,284.49,802.49ZM180.4,710.89v83.27H284.49V710.89Z"/><path class="cls-9" d="M147.1,756.69H105.47a4.16,4.16,0,0,1-4.16-4.16V715.06a4.16,4.16,0,0,1,4.16-4.16H147.1a4.16,4.16,0,0,1,4.16,4.16v37.47A4.16,4.16,0,0,1,147.1,756.69Z"/><path class="cls-7" d="M126.33,710.89H105.47a4.16,4.16,0,0,0-4.16,4.16v6.13l35.5,35.5h10.3a4.16,4.16,0,0,0,4.16-4.16v-16.7Z"/></g><g class="cls-1"><rect class="cls-2" x="72.16" y="922.64" width="233.14" height="162.37"/><rect class="cls-3" x="72.16" y="1060.03" width="233.14" height="24.98"/><rect class="cls-3" x="72.16" y="914.31" width="233.14" height="29.14"/><path class="cls-4" d="M155.42,951.78H97.14A4.16,4.16,0,0,0,93,955.95v124.9h66.61V955.95A4.16,4.16,0,0,0,155.42,951.78Z"/><path class="cls-4" d="M317.79,1089.17H59.67a4.16,4.16,0,0,1,0-8.33H317.79a4.16,4.16,0,0,1,0,8.33Z"/><path class="cls-5" d="M147.1,1030.88a4.16,4.16,0,0,1-4.16-4.16v-8.33a4.16,4.16,0,1,1,8.33,0v8.33A4.16,4.16,0,0,1,147.1,1030.88Z"/><path class="cls-2" d="M76.32,935.13h0a12.49,12.49,0,0,1-12.49-12.49V893.5a8.33,8.33,0,0,1,8.33-8.33H88.81v37.47A12.49,12.49,0,0,1,76.32,935.13Z"/><path class="cls-4" d="M101.3,935.13h0a12.49,12.49,0,0,1-12.49-12.49V885.17h25v37.47A12.49,12.49,0,0,1,101.3,935.13Z"/><path class="cls-2" d="M126.28,935.13h0a12.49,12.49,0,0,1-12.49-12.49V885.17h25v37.47A12.49,12.49,0,0,1,126.28,935.13Z"/><path class="cls-4" d="M151.26,935.13h0a12.49,12.49,0,0,1-12.49-12.49V885.17h25v37.47A12.49,12.49,0,0,1,151.26,935.13Z"/><path class="cls-2" d="M176.24,935.13h0a12.49,12.49,0,0,1-12.49-12.49V885.17h25v37.47A12.49,12.49,0,0,1,176.24,935.13Z"/><path class="cls-4" d="M201.22,935.13h0a12.49,12.49,0,0,1-12.49-12.49V885.17h25v37.47A12.49,12.49,0,0,1,201.22,935.13Z"/><path class="cls-2" d="M226.2,935.13h0a12.49,12.49,0,0,1-12.49-12.49V885.17h25v37.47A12.49,12.49,0,0,1,226.2,935.13Z"/><path class="cls-4" d="M251.18,935.13h0a12.49,12.49,0,0,1-12.49-12.49V885.17h25v37.47A12.49,12.49,0,0,1,251.18,935.13Z"/><path class="cls-2" d="M276.16,935.13h0a12.49,12.49,0,0,1-12.49-12.49V885.17h25v37.47A12.49,12.49,0,0,1,276.16,935.13Z"/><path class="cls-4" d="M301.14,935.13h0a12.49,12.49,0,0,1-12.49-12.49V885.17H305.3a8.33,8.33,0,0,1,8.33,8.33v29.14A12.49,12.49,0,0,1,301.14,935.13Z"/><path class="cls-6" d="M284.49,955.95H180.4a4.16,4.16,0,0,0-4.16,4.16v83.27a4.16,4.16,0,0,0,4.16,4.16H284.49a4.16,4.16,0,0,0,4.16-4.16V960.11A4.16,4.16,0,0,0,284.49,955.95Z"/><path class="cls-7" d="M262.41,1047.54h22.07a4.16,4.16,0,0,0,4.16-4.16v-4.93l-82.5-82.5H176.24a4.09,4.09,0,0,0-3.45,2Z"/><polygon class="cls-8" points="229.35 955.95 288.65 1015.24 288.65 997.58 247.02 955.95 229.35 955.95"/><path class="cls-4" d="M284.49,1051.7H180.4a8.34,8.34,0,0,1-8.33-8.33V960.11a8.34,8.34,0,0,1,8.33-8.33H284.49a8.34,8.34,0,0,1,8.33,8.33v83.27A8.34,8.34,0,0,1,284.49,1051.7ZM180.4,960.11v83.27H284.49V960.11Z"/><path class="cls-9" d="M147.1,1005.9H105.47a4.16,4.16,0,0,1-4.16-4.16V964.27a4.16,4.16,0,0,1,4.16-4.16H147.1a4.16,4.16,0,0,1,4.16,4.16v37.47A4.16,4.16,0,0,1,147.1,1005.9Z"/><path class="cls-7" d="M126.33,960.11H105.47a4.16,4.16,0,0,0-4.16,4.16v6.13l35.5,35.5h10.3a4.16,4.16,0,0,0,4.16-4.16V985Z"/></g><g class="cls-1"><rect class="cls-2" x="440.99" y="184.19" width="233.14" height="162.37"/><rect class="cls-3" x="440.99" y="321.57" width="233.14" height="24.98"/><rect class="cls-3" x="440.99" y="175.86" width="233.14" height="29.14"/><path class="cls-4" d="M524.26,213.33H466a4.16,4.16,0,0,0-4.16,4.16v124.9h66.61V217.49A4.16,4.16,0,0,0,524.26,213.33Z"/><path class="cls-4" d="M686.63,350.72H428.5a4.16,4.16,0,1,1,0-8.33H686.63a4.16,4.16,0,1,1,0,8.33Z"/><path class="cls-5" d="M515.93,292.43a4.16,4.16,0,0,1-4.16-4.16v-8.33a4.16,4.16,0,1,1,8.33,0v8.33A4.16,4.16,0,0,1,515.93,292.43Z"/><path class="cls-2" d="M445.16,196.68h0a12.49,12.49,0,0,1-12.49-12.49V155a8.33,8.33,0,0,1,8.33-8.33h16.65v37.47A12.49,12.49,0,0,1,445.16,196.68Z"/><path class="cls-4" d="M470.14,196.68h0a12.49,12.49,0,0,1-12.49-12.49V146.72h25v37.47A12.49,12.49,0,0,1,470.14,196.68Z"/><path class="cls-2" d="M495.12,196.68h0a12.49,12.49,0,0,1-12.49-12.49V146.72h25v37.47A12.49,12.49,0,0,1,495.12,196.68Z"/><path class="cls-4" d="M520.1,196.68h0a12.49,12.49,0,0,1-12.49-12.49V146.72h25v37.47A12.49,12.49,0,0,1,520.1,196.68Z"/><path class="cls-2" d="M545.08,196.68h0a12.49,12.49,0,0,1-12.49-12.49V146.72h25v37.47A12.49,12.49,0,0,1,545.08,196.68Z"/><path class="cls-4" d="M570.06,196.68h0a12.49,12.49,0,0,1-12.49-12.49V146.72h25v37.47A12.49,12.49,0,0,1,570.06,196.68Z"/><path class="cls-2" d="M595,196.68h0a12.49,12.49,0,0,1-12.49-12.49V146.72h25v37.47A12.49,12.49,0,0,1,595,196.68Z"/><path class="cls-4" d="M620,196.68h0a12.49,12.49,0,0,1-12.49-12.49V146.72h25v37.47A12.49,12.49,0,0,1,620,196.68Z"/><path class="cls-2" d="M645,196.68h0a12.49,12.49,0,0,1-12.49-12.49V146.72h25v37.47A12.49,12.49,0,0,1,645,196.68Z"/><path class="cls-4" d="M670,196.68h0a12.49,12.49,0,0,1-12.49-12.49V146.72h16.65a8.33,8.33,0,0,1,8.33,8.33v29.14A12.49,12.49,0,0,1,670,196.68Z"/><path class="cls-6" d="M653.32,217.49H549.24a4.16,4.16,0,0,0-4.16,4.16v83.27a4.16,4.16,0,0,0,4.16,4.16H653.32a4.16,4.16,0,0,0,4.16-4.16V221.66A4.16,4.16,0,0,0,653.32,217.49Z"/><path class="cls-7" d="M631.25,309.08h22.07a4.16,4.16,0,0,0,4.16-4.16V300L575,217.49H545.08a4.09,4.09,0,0,0-3.45,2Z"/><polygon class="cls-8" points="598.19 217.49 657.48 276.79 657.48 259.13 615.85 217.49 598.19 217.49"/><path class="cls-4" d="M653.32,313.25H549.24a8.34,8.34,0,0,1-8.33-8.33V221.66a8.34,8.34,0,0,1,8.33-8.33H653.32a8.34,8.34,0,0,1,8.33,8.33v83.27A8.34,8.34,0,0,1,653.32,313.25ZM549.24,221.66v83.27H653.33V221.66Z"/><path class="cls-9" d="M515.93,267.45H474.3a4.16,4.16,0,0,1-4.16-4.16V225.82a4.16,4.16,0,0,1,4.16-4.16h41.63a4.16,4.16,0,0,1,4.16,4.16v37.47A4.16,4.16,0,0,1,515.93,267.45Z"/><path class="cls-7" d="M495.17,221.66H474.3a4.16,4.16,0,0,0-4.16,4.16V232l35.5,35.5h10.3a4.16,4.16,0,0,0,4.16-4.16v-16.7Z"/></g><g class="cls-1"><rect class="cls-2" x="440.99" y="433.4" width="233.14" height="162.37"/><rect class="cls-3" x="440.99" y="570.79" width="233.14" height="24.98"/><rect class="cls-3" x="440.99" y="425.07" width="233.14" height="29.14"/><path class="cls-4" d="M524.26,462.54H466a4.16,4.16,0,0,0-4.16,4.16V591.6h66.61V466.71A4.16,4.16,0,0,0,524.26,462.54Z"/><path class="cls-4" d="M686.63,599.93H428.5a4.16,4.16,0,0,1,0-8.33H686.63a4.16,4.16,0,0,1,0,8.33Z"/><path class="cls-5" d="M515.93,541.65a4.16,4.16,0,0,1-4.16-4.16v-8.33a4.16,4.16,0,1,1,8.33,0v8.33A4.16,4.16,0,0,1,515.93,541.65Z"/><path class="cls-2" d="M445.16,445.89h0a12.49,12.49,0,0,1-12.49-12.49V404.26a8.33,8.33,0,0,1,8.33-8.33h16.65V433.4A12.49,12.49,0,0,1,445.16,445.89Z"/><path class="cls-4" d="M470.14,445.89h0a12.49,12.49,0,0,1-12.49-12.49V395.93h25V433.4A12.49,12.49,0,0,1,470.14,445.89Z"/><path class="cls-2" d="M495.12,445.89h0a12.49,12.49,0,0,1-12.49-12.49V395.93h25V433.4A12.49,12.49,0,0,1,495.12,445.89Z"/><path class="cls-4" d="M520.1,445.89h0a12.49,12.49,0,0,1-12.49-12.49V395.93h25V433.4A12.49,12.49,0,0,1,520.1,445.89Z"/><path class="cls-2" d="M545.08,445.89h0a12.49,12.49,0,0,1-12.49-12.49V395.93h25V433.4A12.49,12.49,0,0,1,545.08,445.89Z"/><path class="cls-4" d="M570.06,445.89h0a12.49,12.49,0,0,1-12.49-12.49V395.93h25V433.4A12.49,12.49,0,0,1,570.06,445.89Z"/><path class="cls-2" d="M595,445.89h0a12.49,12.49,0,0,1-12.49-12.49V395.93h25V433.4A12.49,12.49,0,0,1,595,445.89Z"/><path class="cls-4" d="M620,445.89h0a12.49,12.49,0,0,1-12.49-12.49V395.93h25V433.4A12.49,12.49,0,0,1,620,445.89Z"/><path class="cls-2" d="M645,445.89h0A12.49,12.49,0,0,1,632.5,433.4V395.93h25V433.4A12.49,12.49,0,0,1,645,445.89Z"/><path class="cls-4" d="M670,445.89h0a12.49,12.49,0,0,1-12.49-12.49V395.93h16.65a8.33,8.33,0,0,1,8.33,8.33V433.4A12.49,12.49,0,0,1,670,445.89Z"/><path class="cls-6" d="M653.32,466.71H549.24a4.16,4.16,0,0,0-4.16,4.16v83.27a4.16,4.16,0,0,0,4.16,4.16H653.32a4.16,4.16,0,0,0,4.16-4.16V470.87A4.16,4.16,0,0,0,653.32,466.71Z"/><path class="cls-7" d="M631.25,558.3h22.07a4.16,4.16,0,0,0,4.16-4.16v-4.93L575,466.71H545.08a4.09,4.09,0,0,0-3.45,2Z"/><polygon class="cls-8" points="598.19 466.71 657.48 526 657.48 508.34 615.85 466.71 598.19 466.71"/><path class="cls-4" d="M653.32,562.46H549.24a8.34,8.34,0,0,1-8.33-8.33V470.87a8.34,8.34,0,0,1,8.33-8.33H653.32a8.34,8.34,0,0,1,8.33,8.33v83.27A8.34,8.34,0,0,1,653.32,562.46ZM549.24,470.87v83.27H653.33V470.87Z"/><path class="cls-9" d="M515.93,516.67H474.3a4.16,4.16,0,0,1-4.16-4.16V475a4.16,4.16,0,0,1,4.16-4.16h41.63A4.16,4.16,0,0,1,520.1,475V512.5A4.16,4.16,0,0,1,515.93,516.67Z"/><path class="cls-7" d="M495.17,470.87H474.3a4.16,4.16,0,0,0-4.16,4.16v6.13l35.5,35.5h10.3a4.16,4.16,0,0,0,4.16-4.16V495.8Z"/></g><g class="cls-1"><rect class="cls-2" x="440.99" y="673.42" width="233.14" height="162.37"/><rect class="cls-3" x="440.99" y="810.81" width="233.14" height="24.98"/><rect class="cls-3" x="440.99" y="665.1" width="233.14" height="29.14"/><path class="cls-4" d="M524.26,702.57H466a4.16,4.16,0,0,0-4.16,4.16v124.9h66.61V706.73A4.16,4.16,0,0,0,524.26,702.57Z"/><path class="cls-4" d="M686.63,840H428.5a4.16,4.16,0,0,1,0-8.33H686.63a4.16,4.16,0,1,1,0,8.33Z"/><path class="cls-5" d="M515.93,781.67a4.16,4.16,0,0,1-4.16-4.16v-8.33a4.16,4.16,0,1,1,8.33,0v8.33A4.16,4.16,0,0,1,515.93,781.67Z"/><path class="cls-2" d="M445.16,685.91h0a12.49,12.49,0,0,1-12.49-12.49V644.28A8.33,8.33,0,0,1,441,636h16.65v37.47A12.49,12.49,0,0,1,445.16,685.91Z"/><path class="cls-4" d="M470.14,685.91h0a12.49,12.49,0,0,1-12.49-12.49V636h25v37.47A12.49,12.49,0,0,1,470.14,685.91Z"/><path class="cls-2" d="M495.12,685.91h0a12.49,12.49,0,0,1-12.49-12.49V636h25v37.47A12.49,12.49,0,0,1,495.12,685.91Z"/><path class="cls-4" d="M520.1,685.91h0a12.49,12.49,0,0,1-12.49-12.49V636h25v37.47A12.49,12.49,0,0,1,520.1,685.91Z"/><path class="cls-2" d="M545.08,685.91h0a12.49,12.49,0,0,1-12.49-12.49V636h25v37.47A12.49,12.49,0,0,1,545.08,685.91Z"/><path class="cls-4" d="M570.06,685.91h0a12.49,12.49,0,0,1-12.49-12.49V636h25v37.47A12.49,12.49,0,0,1,570.06,685.91Z"/><path class="cls-2" d="M595,685.91h0a12.49,12.49,0,0,1-12.49-12.49V636h25v37.47A12.49,12.49,0,0,1,595,685.91Z"/><path class="cls-4" d="M620,685.91h0a12.49,12.49,0,0,1-12.49-12.49V636h25v37.47A12.49,12.49,0,0,1,620,685.91Z"/><path class="cls-2" d="M645,685.91h0a12.49,12.49,0,0,1-12.49-12.49V636h25v37.47A12.49,12.49,0,0,1,645,685.91Z"/><path class="cls-4" d="M670,685.91h0a12.49,12.49,0,0,1-12.49-12.49V636h16.65a8.33,8.33,0,0,1,8.33,8.33v29.14A12.49,12.49,0,0,1,670,685.91Z"/><path class="cls-6" d="M653.32,706.73H549.24a4.16,4.16,0,0,0-4.16,4.16v83.27a4.16,4.16,0,0,0,4.16,4.16H653.32a4.16,4.16,0,0,0,4.16-4.16V710.89A4.16,4.16,0,0,0,653.32,706.73Z"/><path class="cls-7" d="M631.25,798.32h22.07a4.16,4.16,0,0,0,4.16-4.16v-4.93L575,706.73H545.08a4.09,4.09,0,0,0-3.45,2Z"/><polygon class="cls-8" points="598.19 706.73 657.48 766.03 657.48 748.36 615.85 706.73 598.19 706.73"/><path class="cls-4" d="M653.32,802.49H549.24a8.34,8.34,0,0,1-8.33-8.33V710.89a8.34,8.34,0,0,1,8.33-8.33H653.32a8.34,8.34,0,0,1,8.33,8.33v83.27A8.34,8.34,0,0,1,653.32,802.49ZM549.24,710.89v83.27H653.33V710.89Z"/><path class="cls-9" d="M515.93,756.69H474.3a4.16,4.16,0,0,1-4.16-4.16V715.06a4.16,4.16,0,0,1,4.16-4.16h41.63a4.16,4.16,0,0,1,4.16,4.16v37.47A4.16,4.16,0,0,1,515.93,756.69Z"/><path class="cls-7" d="M495.17,710.89H474.3a4.16,4.16,0,0,0-4.16,4.16v6.13l35.5,35.5h10.3a4.16,4.16,0,0,0,4.16-4.16v-16.7Z"/></g><g class="cls-1"><rect class="cls-2" x="440.99" y="922.64" width="233.14" height="162.37"/><rect class="cls-3" x="440.99" y="1060.03" width="233.14" height="24.98"/><rect class="cls-3" x="440.99" y="914.31" width="233.14" height="29.14"/><path class="cls-4" d="M524.26,951.78H466a4.16,4.16,0,0,0-4.16,4.16v124.9h66.61V955.95A4.16,4.16,0,0,0,524.26,951.78Z"/><path class="cls-4" d="M686.63,1089.17H428.5a4.16,4.16,0,0,1,0-8.33H686.63a4.16,4.16,0,0,1,0,8.33Z"/><path class="cls-5" d="M515.93,1030.88a4.16,4.16,0,0,1-4.16-4.16v-8.33a4.16,4.16,0,1,1,8.33,0v8.33A4.16,4.16,0,0,1,515.93,1030.88Z"/><path class="cls-2" d="M445.16,935.13h0a12.49,12.49,0,0,1-12.49-12.49V893.5a8.33,8.33,0,0,1,8.33-8.33h16.65v37.47A12.49,12.49,0,0,1,445.16,935.13Z"/><path class="cls-4" d="M470.14,935.13h0a12.49,12.49,0,0,1-12.49-12.49V885.17h25v37.47A12.49,12.49,0,0,1,470.14,935.13Z"/><path class="cls-2" d="M495.12,935.13h0a12.49,12.49,0,0,1-12.49-12.49V885.17h25v37.47A12.49,12.49,0,0,1,495.12,935.13Z"/><path class="cls-4" d="M520.1,935.13h0a12.49,12.49,0,0,1-12.49-12.49V885.17h25v37.47A12.49,12.49,0,0,1,520.1,935.13Z"/><path class="cls-2" d="M545.08,935.13h0a12.49,12.49,0,0,1-12.49-12.49V885.17h25v37.47A12.49,12.49,0,0,1,545.08,935.13Z"/><path class="cls-4" d="M570.06,935.13h0a12.49,12.49,0,0,1-12.49-12.49V885.17h25v37.47A12.49,12.49,0,0,1,570.06,935.13Z"/><path class="cls-2" d="M595,935.13h0a12.49,12.49,0,0,1-12.49-12.49V885.17h25v37.47A12.49,12.49,0,0,1,595,935.13Z"/><path class="cls-4" d="M620,935.13h0a12.49,12.49,0,0,1-12.49-12.49V885.17h25v37.47A12.49,12.49,0,0,1,620,935.13Z"/><path class="cls-2" d="M645,935.13h0a12.49,12.49,0,0,1-12.49-12.49V885.17h25v37.47A12.49,12.49,0,0,1,645,935.13Z"/><path class="cls-4" d="M670,935.13h0a12.49,12.49,0,0,1-12.49-12.49V885.17h16.65a8.33,8.33,0,0,1,8.33,8.33v29.14A12.49,12.49,0,0,1,670,935.13Z"/><path class="cls-6" d="M653.32,955.95H549.24a4.16,4.16,0,0,0-4.16,4.16v83.27a4.16,4.16,0,0,0,4.16,4.16H653.32a4.16,4.16,0,0,0,4.16-4.16V960.11A4.16,4.16,0,0,0,653.32,955.95Z"/><path class="cls-7" d="M631.25,1047.54h22.07a4.16,4.16,0,0,0,4.16-4.16v-4.93L575,955.95H545.08a4.09,4.09,0,0,0-3.45,2Z"/><polygon class="cls-8" points="598.19 955.95 657.48 1015.24 657.48 997.58 615.85 955.95 598.19 955.95"/><path class="cls-4" d="M653.32,1051.7H549.24a8.34,8.34,0,0,1-8.33-8.33V960.11a8.34,8.34,0,0,1,8.33-8.33H653.32a8.34,8.34,0,0,1,8.33,8.33v83.27A8.34,8.34,0,0,1,653.32,1051.7ZM549.24,960.11v83.27H653.33V960.11Z"/><path class="cls-9" d="M515.93,1005.9H474.3a4.16,4.16,0,0,1-4.16-4.16V964.27a4.16,4.16,0,0,1,4.16-4.16h41.63a4.16,4.16,0,0,1,4.16,4.16v37.47A4.16,4.16,0,0,1,515.93,1005.9Z"/><path class="cls-7" d="M495.17,960.11H474.3a4.16,4.16,0,0,0-4.16,4.16v6.13l35.5,35.5h10.3a4.16,4.16,0,0,0,4.16-4.16V985Z"/></g><path class="cls-10" d="M490.91,497.15A69.05,69.05,0,1,0,560,428.08,68.82,68.82,0,0,0,490.91,497.15ZM564.3,454.6c6.56,1.51,11.76,4.62,15.16,8.91a21.83,21.83,0,0,1,5.8,6.09c3,4.79-.66,11-6.31,11a7.31,7.31,0,0,1-6.54-4.06c-.11-.22-.24-.43-.37-.64a7.31,7.31,0,0,1-4.12-3.63c-.07-.15-.17-.29-.25-.44a13,13,0,0,0-3.37-1.22v16.76l.38.07c7.87,1.72,13.49,4.8,16.88,9.28,5.56,3.88,8.34,9.48,8.34,16.91,0,13.47-9.23,21.92-25.61,23.6v2.39a10.6,10.6,0,0,1-14.19-2.89c-7.81-1.37-13.79-4.61-17.46-9.35a20.67,20.67,0,0,1-5.69-6,7.3,7.3,0,0,1,6.31-11H534a7.39,7.39,0,0,1,6.53,4c.12.23.27.45.41.68a7.49,7.49,0,0,1,4.07,3.59c.06.11.14.22.2.33a15.87,15.87,0,0,0,4.68,1.62v-18c-7.2-1.7-12.53-4.78-15.84-9.11-5.55-3.94-8.47-9.63-8.47-16.88,0-12.84,9-21.24,24.31-22.91v-3.48a9.67,9.67,0,0,1,14.41,4.25Z"/><path class="cls-10" d="M564.3,519.79a8.92,8.92,0,0,0,5.83-8.65,8.76,8.76,0,0,0-.78-3.76,22.15,22.15,0,0,0-5.05-1.72Z"/><path class="cls-10" d="M545.68,479.66a8.05,8.05,0,0,0,.76,3.49,18.44,18.44,0,0,0,3.46,1.3V472.21A8.65,8.65,0,0,0,545.68,479.66Z"/><path class="cls-11" d="M490.62,555.47l5.76-5.76a82,82,0,1,0-22.91-56.83,81.76,81.76,0,0,0,22.91,56.83L478.2,567.89l.37.27a8.75,8.75,0,0,1,.66.59l9.16,9.16c.17.17.33.36.49.54-.15-.18-.31-.36-.48-.54h0l-.53-.53a8.63,8.63,0,0,0-12.21,0l-5.32,5.32h0l12.73,12.73,5.32-5.32c.2-.2.39-.41.57-.63l.15-.2c.12-.15.23-.31.34-.46l.17-.27c.09-.14.17-.28.25-.43l.16-.31c.07-.13.13-.27.19-.41l.14-.35q.07-.19.13-.38c0-.13.08-.26.12-.39s.06-.23.09-.35.06-.29.09-.44,0-.2,0-.3,0-.33.06-.49,0-.14,0-.21a8.62,8.62,0,0,0-1.21-4.89v0q-.19-.32-.41-.62l0-.05,0,0,12.42-12.42A91.18,91.18,0,0,1,490.62,555.47Zm-4.2-62.58A69.12,69.12,0,1,1,510.23,545,69.08,69.08,0,0,1,486.43,492.89Z"/><path class="cls-12" d="M510.23,545a69.06,69.06,0,0,1,95-100,69.06,69.06,0,1,0-95,100Z"/><path class="cls-12" d="M614.21,435.62A82,82,0,1,1,496.38,549.71l-5.76,5.76a91.18,91.18,0,0,0,11,11h0l6.1-6.1A82,82,0,0,0,614.21,435.62Z"/><path class="cls-13" d="M461.7,574.07l-67.55,67.55a8.6,8.6,0,0,0-2.53,6,8.6,8.6,0,0,1,2.53-6Z"/><path class="cls-13" d="M490.89,584.49c0,.07,0,.14,0,.21S490.89,584.56,490.89,584.49Z"/><path class="cls-13" d="M490.82,585.19c0,.1,0,.2,0,.3C490.8,585.39,490.81,585.29,490.82,585.19Z"/><path class="cls-13" d="M489.67,579.57v0Z"/><path class="cls-13" d="M490.69,585.93c0,.12-.05.24-.09.35C490.64,586.17,490.66,586,490.69,585.93Z"/><path class="cls-13" d="M489.45,588.83c-.11.16-.22.31-.34.46C489.22,589.14,489.34,589,489.45,588.83Z"/><path class="cls-13" d="M483.06,595.44l-12.73-12.73-67.55,67.55a8.63,8.63,0,0,0,0,12.2l.54.53a8.63,8.63,0,0,0,12.21,0l72.87-72.87c.2-.2.39-.41.57-.63-.18.22-.37.43-.57.63Z"/><path class="cls-13" d="M489.26,579v0l0,0Z"/><path class="cls-13" d="M490.49,586.68q-.06.19-.13.38C490.4,586.93,490.45,586.8,490.49,586.68Z"/><path class="cls-13" d="M488.39,577.92c.17.17.33.35.48.54-.15-.19-.31-.37-.49-.54h0Z"/><path class="cls-13" d="M490.21,587.41c-.06.14-.12.27-.19.41C490.09,587.68,490.16,587.55,490.21,587.41Z"/><path class="cls-13" d="M489.87,588.13c-.08.14-.16.29-.25.43C489.7,588.42,489.79,588.28,489.87,588.13Z"/><path class="cls-14" d="M474.34,566.32l.2,0Z"/><path class="cls-14" d="M475.74,566.64l.05,0Z"/><path class="cls-14" d="M488.38,577.91h0l-9.16-9.16a8.75,8.75,0,0,0-.66-.59l-.37-.27h0a8.66,8.66,0,0,1,1,.87Z"/><path class="cls-14" d="M402.78,650.26l67.55-67.55h0l-2.48-2.48-6.15-6.15h0l-67.55,67.55a8.6,8.6,0,0,0-2.53,6s0,.05,0,.08,0,.05,0,.08a8.66,8.66,0,0,0,.35,2.38v0a8.59,8.59,0,0,0,2.17,3.63l8.63,8.63h0A8.63,8.63,0,0,1,402.78,650.26Z"/><polygon class="cls-11" points="461.69 574.08 467.85 580.22 461.7 574.08 461.69 574.08"/><path class="cls-12" d="M467.84,580.22l2.48,2.48h0l5.32-5.32a8.63,8.63,0,0,1,12.21,0l.53.53h0l-9.16-9.16a8.66,8.66,0,0,0-1-.87,8.56,8.56,0,0,0-2.4-1.23l-.05,0a8.62,8.62,0,0,0-1.21-.29l-.2,0a8.67,8.67,0,0,0-1.22-.1h0a8.61,8.61,0,0,0-6.11,2.53l-5.32,5.32h0Z"/><path class="cls-12" d="M549.89,533.07c-7.07-.59-12.91-2.55-17.25-5.64,3.68,4.73,9.66,8,17.46,9.35a4.91,4.91,0,0,1-.22-1.37Z"/><path class="cls-12" d="M559.81,533v2.39a5,5,0,0,1-5,5c-.14,0-.27,0-.41,0a4.95,4.95,0,0,0,9.86-.66v-2.39c16.38-1.69,25.61-10.14,25.61-23.6,0-7.43-2.79-13-8.34-16.91a20.35,20.35,0,0,1,3.86,12.64C585.42,522.88,576.19,531.34,559.81,533Z"/><path class="cls-12" d="M545.22,519.08c-.06-.11-.14-.22-.2-.33a7.49,7.49,0,0,0-4.07-3.59A11.35,11.35,0,0,0,545.22,519.08Z"/><path class="cls-12" d="M545.56,498.51a32.4,32.4,0,0,1-11.51-4.89c3.31,4.33,8.64,7.41,15.84,9.11v-3.2Z"/><path class="cls-12" d="M574.46,476.37a7.24,7.24,0,0,1-2.42-.43c.13.21.26.42.37.64a7.31,7.31,0,0,0,6.54,4.06c5.65,0,9.32-6.23,6.31-11a21.83,21.83,0,0,0-5.8-6.09,20.64,20.64,0,0,1,1.31,1.83C583.78,470.13,580.12,476.37,574.46,476.37Z"/><path class="cls-12" d="M559.82,466.39v20.14l4.49.88V470.66a13,13,0,0,1,3.37,1.22A11.58,11.58,0,0,0,559.82,466.39Z"/><path class="cls-12" d="M559.82,520.89a15.84,15.84,0,0,0,4.49-1.1V505.67a22.15,22.15,0,0,1,5.05,1.72c-1.35-2.89-4.46-4.84-9.54-6Z"/><path class="cls-12" d="M559.82,450.36v3.48a39.15,39.15,0,0,1,4.49.77,4.94,4.94,0,0,0-4.55-4.9A4.9,4.9,0,0,1,559.82,450.36Z"/><path class="cls-12" d="M541.19,475.39c0,3.4,1.81,6,5.25,7.75a8.05,8.05,0,0,1-.76-3.49,8.65,8.65,0,0,1,4.22-7.45v-5.9C544.75,467.11,541.19,470.68,541.19,475.39Z"/><path class="cls-11" d="M559.82,450.36a5.15,5.15,0,0,0-5-5,5,5,0,0,0-5,5v3.48c-15.34,1.67-24.31,10.06-24.31,22.91,0,7.25,2.92,12.93,8.47,16.88a32.4,32.4,0,0,0,11.51,4.89l4.33,1V520.7a15.87,15.87,0,0,1-4.68-1.62,11.35,11.35,0,0,1-4.28-3.92c-.14-.22-.29-.44-.41-.68a7.39,7.39,0,0,0-6.53-4h-.73a7.3,7.3,0,0,0-6.31,11,20.67,20.67,0,0,0,5.69,6c4.34,3.09,10.18,5,17.25,5.64v2.34a5,5,0,0,0,4.55,4.92c.14,0,.27,0,.41,0a5,5,0,0,0,5-5V533c16.38-1.69,25.61-10.14,25.61-23.6a20.35,20.35,0,0,0-3.86-12.64c-3.39-4.49-9-7.56-16.88-9.28l-.38-.07-4.49-.88V466.39a11.58,11.58,0,0,1,7.86,5.48c.08.15.18.29.25.44a7.41,7.41,0,0,0,6.54,4.06c5.65,0,9.32-6.23,6.31-11a20.64,20.64,0,0,0-1.31-1.83c-3.4-4.29-8.61-7.4-15.16-8.91a39.15,39.15,0,0,0-4.49-.77Zm-9.92,21.85v12.24a18.44,18.44,0,0,1-3.46-1.3c-3.44-1.73-5.25-4.35-5.25-7.75,0-4.71,3.56-8.28,8.7-9.08Zm19.46,35.18a8.76,8.76,0,0,1,.78,3.76,8.92,8.92,0,0,1-5.83,8.65,15.84,15.84,0,0,1-4.49,1.1V501.41C564.89,502.55,568,504.51,569.35,507.39Z"/></svg>