<?xml version="1.0" encoding="utf-8"?>
<!-- Generator: Adobe Illustrator 21.0.1, SVG Export Plug-In . SVG Version: 6.00 Build 0)  -->
<svg version="1.1" id="Layer_1" xmlns="http://www.w3.org/2000/svg" xmlns:xlink="http://www.w3.org/1999/xlink" x="0px" y="0px"
	 viewBox="0 0 1366 768" style="enable-background:new 0 0 1366 768;" xml:space="preserve">
<style type="text/css">
	.st0{opacity:0.1;}
	.st1{fill:#808080;}
	.st2{fill:none;}
</style>
<g class="st0">
	<path class="st1" d="M1257.9-943.7c-0.7,0.1-1.5,0.2-2.3,0.1l7,204.9c0.7-0.4,1.5-0.7,2.3-0.8L1257.9-943.7z"/>
	<path class="st2" d="M1169.6-386.5l-108.5,44c0.4,0.6,0.7,1.3,0.9,2l77,22.6c1-2.7,3.6-4.6,6.6-4.6c3.9,0,7,3.2,7,7
		c0,2.1-0.9,3.9-2.3,5.2l61.2,95.6c0.1,0,0.1,0,0.2-0.1l-36.8-168.7C1172.6-383.5,1170.7-384.7,1169.6-386.5z"/>
	<path class="st2" d="M1134.8-156.7l-15.4-28.5c-0.7,0.2-1.5,0.4-2.3,0.4c-0.6,0-1.2-0.1-1.8-0.2l-47.8,88.6
		c0.2,0.1,0.3,0.3,0.5,0.4l65.4-50.8c-0.9-1.2-1.4-2.6-1.4-4.2C1132-153.4,1133.1-155.5,1134.8-156.7z"/>
	<path class="st2" d="M1146-151.1c0,2.2-1,4.2-2.6,5.5l12.5,23c0.6-0.2,1.2-0.3,1.9-0.3c0.9,0,1.7,0.2,2.4,0.4l49.4-80.4
		c-0.1-0.1-0.1-0.1-0.2-0.2l-63.8,49.5C1145.9-152.7,1146-151.9,1146-151.1z"/>
	<path class="st2" d="M1139-144.1c-1.5,0-2.8-0.4-3.9-1.2l-63.5,49.2l79.5-22c0.5-1.5,1.5-2.7,2.7-3.6l-12.4-22.9
		C1140.7-144.2,1139.8-144.1,1139-144.1z"/>
	<path class="st2" d="M1177.1-383.5l36.7,168.3c0.1,0,0.2,0,0.4,0c0.8,0,1.7,0.2,2.4,0.4l40.8-72.6c-1.6-1.3-2.6-3.3-2.6-5.5
		c0-1.7,0.6-3.2,1.5-4.4l-78-86.7C1178-383.7,1177.6-383.6,1177.1-383.5z"/>
	<path class="st2" d="M1145.5-308.4c-0.1,0-0.3,0-0.4,0l-25.4,110.1c2.6,1.1,4.4,3.6,4.4,6.5c0,2.3-1.1,4.3-2.7,5.6l15.4,28.5
		c0.7-0.2,1.4-0.4,2.2-0.4c2.2,0,4.2,1,5.5,2.7l63.5-49.3c-0.5-1-0.8-2.1-0.8-3.4c0-2.1,0.9-3.9,2.3-5.2l-61.2-95.6
		C1147.5-308.6,1146.5-308.4,1145.5-308.4z"/>
	<path class="st2" d="M1246.3-611.5c0,1.5-0.5,3-1.3,4.1l50.6,98.6l-17-108.7c-2.9-0.9-5-3.6-5-6.7c0-2.4,1.2-4.5,3-5.8l-15.1-96.7
		L1243.7-617C1245.3-615.7,1246.3-613.7,1246.3-611.5z"/>
	<path class="st2" d="M1231-697.2l-54.4,68.5c1.1,1.3,1.8,2.9,1.8,4.7c0,0,0,0.1,0,0.1l54.4,9.7c1.1-2.6,3.6-4.4,6.5-4.4
		c0.3,0,0.6,0,0.9,0.1l-4.9-77.6c-0.1,0-0.3,0-0.4,0C1233.5-696.1,1232.2-696.5,1231-697.2z"/>
	<path class="st2" d="M1232.3-611.5c0-0.1,0-0.3,0-0.4l-54.3-9.7c-0.4,1.1-1,2-1.8,2.8l68.8,101.7c0.5-0.2,1-0.4,1.6-0.5l-5.5-87
		c-0.6,0.2-1.2,0.2-1.8,0.2C1235.4-604.5,1232.3-607.6,1232.3-611.5z"/>
	<path class="st2" d="M1171.5-617l-13.2,91.5c1,1.2,1.7,2.8,1.7,4.5c0,0.4,0,0.8-0.1,1.2l81.7,6c0.4-0.8,0.9-1.6,1.6-2.2
		l-68.8-101.6C1173.5-617.2,1172.5-617,1171.5-617z"/>
	<path class="st2" d="M1182.5-390.3c0,2-0.9,3.9-2.2,5.1l77.8,86.4c0.7-0.4,1.4-0.7,2.2-0.9l-12.8-204c-1-0.1-1.9-0.3-2.7-0.7
		L1179.7-396C1181.4-394.7,1182.5-392.7,1182.5-390.3z"/>
	<path class="st2" d="M1155.2-514.3l19.9,116.9c0.1,0,0.2,0,0.3,0c0.8,0,1.5,0.1,2.2,0.3l65.3-108.8c-1.3-1.3-2.1-3-2.1-5
		c0-0.2,0-0.5,0-0.7l-81.8-6C1158.3-516,1156.9-514.8,1155.2-514.3z"/>
	<path class="st2" d="M1117.1-198.9c0.1,0,0.3,0,0.4,0l25.4-110.1c-2.6-1.1-4.4-3.6-4.4-6.5c0-0.1,0-0.1,0-0.1l-76.4-22.4
		c-0.2,1.9-1.2,3.6-2.6,4.8l53.3,135.8C1113.9-198.4,1115.4-198.9,1117.1-198.9z"/>
	<path class="st2" d="M1254.9-510.8C1254.9-510.8,1254.9-510.8,1254.9-510.8l36.6,8c0.5-1.5,1.4-2.8,2.7-3.7l-50.9-99l5.5,87.8
		C1252.3-517.3,1254.9-514.4,1254.9-510.8z"/>
	<path class="st2" d="M1292.1-416.7c-2.5-1.1-4.2-3.6-4.2-6.5c0-2.9,1.7-5.3,4.2-6.4l-41.8-74.5c-0.2,0.1-0.4,0.1-0.6,0.2
		l12.8,203.8L1292.1-416.7z"/>
	<path class="st2" d="M1163.8-119.5l103.3,1.4c0.7-2,2.3-3.7,4.4-4.4l-54.2-79.3c-0.9,0.4-1.9,0.7-3,0.7c-0.9,0-1.8-0.2-2.7-0.5
		l-49.4,80.3C1162.8-120.8,1163.4-120.1,1163.8-119.5z"/>
	<path class="st2" d="M1242-703.1c0,2.9-1.8,5.4-4.3,6.5l4.6,74l17.9-109.8c-0.3-0.1-0.6-0.2-0.8-0.3l-19.6,24.6
		C1241.1-706.9,1242-705.1,1242-703.1z"/>
	<path class="st2" d="M1019.5-155c-3.2,0-5.9-2.1-6.7-5l-155.1,21c0.2,0.7,0.4,1.3,0.4,2.1l198.5,43.3c0.4-1.1,1.2-2.1,2.1-2.8
		l-34.8-60.1C1022.7-155.5,1021.2-155,1019.5-155z"/>
	<path class="st2" d="M948.9-67.4c1.3-1.6,3.3-2.7,5.5-2.7c3,0,5.6,1.9,6.6,4.5l94.1-26l-197.4-43c-0.3,0.8-0.7,1.6-1.2,2.3
		L948.9-67.4z"/>
	<path class="st2" d="M1110.5-189.2l-84,26.2c0,0.3,0.1,0.6,0.1,1c0,1.4-0.4,2.7-1.1,3.8l35.2,60.7c0.8-0.3,1.6-0.5,2.5-0.5
		c0.8,0,1.6,0.1,2.3,0.4l47.7-88.4C1112-186.8,1111.1-187.9,1110.5-189.2z"/>
	<path class="st2" d="M1168.4-390.3c0-3,1.9-5.5,4.5-6.6l-20-117c0,0,0,0,0,0c-0.8,0-1.6-0.2-2.4-0.4l-94.2,168.6
		c1.2,0.2,2.2,0.7,3.1,1.4l109.2-44.3C1168.5-389.2,1168.4-389.7,1168.4-390.3z"/>
	<path class="st2" d="M882.6-176.3c-0.8,3-3.6,5.1-6.8,5.1c-0.9,0-1.8-0.2-2.6-0.5l-17.8,29.5c0.4,0.3,0.8,0.7,1.1,1.1l153.7-20.9
		L882.6-176.3z"/>
	<path class="st2" d="M1014.5-167L946-262c-1.3,1.8-3.4,2.9-5.7,2.9c-1.1,0-2.2-0.3-3.1-0.7l-56.4,76.7c1.2,1.2,1.9,2.8,2,4.6
		l130,14.6C1013.1-165.1,1013.7-166.2,1014.5-167z"/>
	<path class="st2" d="M1110-191.9c0-1.3,0.4-2.6,1-3.6l-53.6-136.6c-0.7,0.3-1.5,0.4-2.3,0.4c-0.1,0-0.1,0-0.2,0L1023.3-168
		c1.1,0.7,1.9,1.6,2.5,2.8l84.2-26.2C1110-191.6,1110-191.7,1110-191.9z"/>
	<path class="st2" d="M821.4-73.2c0,1.1-0.3,2.1-0.7,3L859.9-43c0.7-0.6,1.5-1,2.3-1.3l-13.8-85.8c-0.1,0-0.2-0.1-0.2-0.1
		l-30.6,50.7C819.9-78.3,821.4-75.9,821.4-73.2z"/>
	<path class="st2" d="M674.5-65.1l65.9-27.3c-0.1-0.4-0.1-0.9-0.1-1.3c0-3.3,2.3-6.1,5.3-6.8l-12.9-30.8c-0.5,0.1-1.1,0.2-1.6,0.2
		c-1.3,0-2.5-0.3-3.5-0.9L673.8-66C674.1-65.8,674.3-65.4,674.5-65.1z"/>
	<path class="st1" d="M1221.2-207.1l86.6-1.5v-2.3l-86.7,1.5c0.1,0.4,0.1,0.8,0.1,1.3C1221.3-207.8,1221.3-207.4,1221.2-207.1z"/>
	<path class="st1" d="M1307.8-69v-4.1l-27.5-40.3c-0.3,0.8-0.7,1.6-1.3,2.2L1307.8-69z"/>
	<path class="st1" d="M1271.4-122.4c0.7-0.2,1.5-0.4,2.3-0.4c0.1,0,0.1,0,0.2,0l-54.8-80.2c-0.6,0.5-1.2,1-1.9,1.3L1271.4-122.4z"/>
	<path class="st1" d="M1307.8-156.3v-3.8l-29.6,38.9c0.6,0.5,1.1,1.1,1.5,1.8L1307.8-156.3z"/>
	<path class="st1" d="M1280.6-114.7l27.2,5.7v-2.3l-27.2-5.7c0.1,0.4,0.1,0.9,0.1,1.3C1280.7-115.4,1280.7-115.1,1280.6-114.7z"/>
	<path class="st1" d="M1162.2-121.3l49.4-80.3c-0.7-0.3-1.4-0.7-2-1.2l-49.4,80.4C1160.9-122.1,1161.6-121.7,1162.2-121.3z"/>
	<path class="st1" d="M1117.9-53.6l-7.7,12.6h2.7l6.8-11.1C1119-52.5,1118.4-53,1117.9-53.6z"/>
	<path class="st1" d="M1124.9-64.9c0.8,0.2,1.5,0.5,2.2,0.9l27.8-45.3c-0.7-0.3-1.4-0.8-1.9-1.3L1124.9-64.9z"/>
	<path class="st1" d="M1056.6-93.6l-198.5-43.3c0,0.1,0,0.1,0,0.2c0,0.7-0.1,1.4-0.3,2.1l197.4,43l-94.1,26c0.3,0.7,0.4,1.5,0.5,2.3
		l94.7-26.2c-0.1-0.5-0.2-1-0.2-1.5C1056.1-91.9,1056.3-92.7,1056.6-93.6z"/>
	<polygon class="st1" points="553,-108 553,-102.7 589.2,-41 592.3,-41 	"/>
	<path class="st1" d="M820.8-70.2c-0.3,0.7-0.8,1.3-1.3,1.9l39,27.1c0.4-0.7,0.9-1.3,1.5-1.8L820.8-70.2z"/>
	<path class="st1" d="M808.6-69.1l-17,28.1h2.7l15.9-26.4C809.7-67.9,809.1-68.5,808.6-69.1z"/>
	<path class="st1" d="M873.2-171.6c-0.7-0.3-1.4-0.7-2-1.2l-17.8,29.5c0.7,0.3,1.4,0.6,2,1.1L873.2-171.6z"/>
	<path class="st1" d="M848.2-130.2c-0.7-0.3-1.4-0.7-1.9-1.3l-30.9,51.3c0.8,0.1,1.6,0.3,2.3,0.7L848.2-130.2z"/>
	<path class="st1" d="M1259.3-732.8c-0.7-0.3-1.3-0.8-1.9-1.3l-19.6,24.6c0.7,0.3,1.3,0.8,1.9,1.3L1259.3-732.8z"/>
	<path class="st1" d="M1231-697.2c-0.6-0.4-1.2-1-1.7-1.6l-54.6,68.7c0.7,0.4,1.3,0.9,1.8,1.4L1231-697.2z"/>
	<path class="st1" d="M1307.8-466.9v-9.2l-5-19.3c-0.6,0.5-1.3,0.9-2.1,1.2L1307.8-466.9z"/>
	<path class="st1" d="M1298.9-417.4l8.9,15.9v-4.7l-7.2-12.9C1300.2-418.4,1299.6-417.8,1298.9-417.4z"/>
	<path class="st1" d="M1266-287.2l41.8,40.2v-3.2l-40.2-38.6C1267.2-288.2,1266.7-287.7,1266-287.2z"/>
	<path class="st1" d="M1307.8-314.6v-2.6l-40.3,20.2c0.4,0.6,0.8,1.3,1,2L1307.8-314.6z"/>
	<path class="st1" d="M1260.2-732.5l-17.9,109.8l-4.6-74c-0.7,0.3-1.5,0.5-2.3,0.5l4.9,77.6c1.3,0.2,2.5,0.7,3.5,1.5l17.9-109.7
		l15.1,96.7c0.7-0.5,1.4-0.8,2.2-1L1263-732.1c-0.2,0-0.4,0-0.6,0C1261.6-732.1,1260.9-732.2,1260.2-732.5z"/>
	<path class="st1" d="M1216.6-214.7c0.7,0.3,1.4,0.6,2,1.1l40.8-72.6c-0.7-0.3-1.4-0.6-2-1.1L1216.6-214.7z"/>
	<path class="st1" d="M1294.3-41h4.7l-134.2-74.3c-0.1,0.8-0.2,1.6-0.6,2.3L1294.3-41z"/>
	<path class="st1" d="M1163.8-119.5c0.4,0.7,0.7,1.5,0.9,2.3l102,1.4c0-0.8,0.1-1.6,0.4-2.3L1163.8-119.5z"/>
	<path class="st1" d="M1134.8-156.7c0.6-0.5,1.3-0.8,2-1.1l-15.4-28.5c-0.6,0.5-1.3,0.8-2,1.1L1134.8-156.7z"/>
	<path class="st1" d="M1141.4-144.5l12.4,22.9c0.6-0.4,1.3-0.8,2.1-1l-12.5-23C1142.8-145.1,1142.1-144.8,1141.4-144.5z"/>
	<path class="st1" d="M1151.1-118l-79.5,22l63.5-49.2c-0.6-0.4-1.2-1-1.7-1.6l-65.4,50.8c0.9,0.8,1.5,1.8,1.9,2.9l80.9-22.3
		c0-0.1,0-0.2,0-0.3C1150.7-116.6,1150.8-117.3,1151.1-118z"/>
	<path class="st1" d="M1145.6-153.5l63.8-49.5c-0.6-0.5-1-1.1-1.4-1.8l-63.5,49.3C1145-154.9,1145.4-154.2,1145.6-153.5z"/>
	<path class="st1" d="M872.3-41h8.6l67.4-18.6c-0.4-0.7-0.6-1.4-0.8-2.2L872.3-41z"/>
	<path class="st1" d="M1020.1-41h7.5l-66.1-21.2c-0.1,0.8-0.3,1.5-0.6,2.2L1020.1-41z"/>
	<path class="st1" d="M1085-41h2.5l-20.4-44.1c-0.6,0.4-1.3,0.8-2.1,1L1085-41z"/>
	<path class="st1" d="M1161.6-109.9l49.6,68.9h2.8l-50.7-70.4C1162.8-110.8,1162.2-110.3,1161.6-109.9z"/>
	<path class="st1" d="M1164.8-41h6.4l-41-15.7c-0.2,0.8-0.4,1.5-0.8,2.1L1164.8-41z"/>
	<path class="st1" d="M1178.3-383.9l78,86.7c0.5-0.6,1.1-1.1,1.7-1.5l-77.8-86.4C1179.7-384.7,1179.1-384.2,1178.3-383.9z"/>
	<path class="st1" d="M1292.1-429.6c0.7-0.3,1.5-0.5,2.3-0.6l-42.1-75.1c-0.6,0.5-1.3,0.9-2,1.1L1292.1-429.6z"/>
	<path class="st1" d="M1262.5-300.2L1249.7-504c-0.6,0.2-1.2,0.2-1.8,0.2c-0.2,0-0.3,0-0.5,0l12.8,204c0.5-0.1,1-0.2,1.6-0.2
		c1,0,2,0.2,2.8,0.6l29.7-116.9c-0.8-0.1-1.5-0.3-2.2-0.6L1262.5-300.2z"/>
	<path class="st1" d="M1179.7-396l65.1-108.5c-0.7-0.3-1.3-0.8-1.9-1.3L1177.6-397C1178.4-396.8,1179.1-396.4,1179.7-396z"/>
	<path class="st1" d="M1174.3-617.6l68.8,101.6c0.6-0.5,1.2-1,1.9-1.3l-68.8-101.7C1175.7-618.4,1175-617.9,1174.3-617.6z"/>
	<path class="st1" d="M1291.5-502.8l-36.6-8c0,0.8-0.1,1.6-0.4,2.3l36.7,8c0-0.1,0-0.2,0-0.3
		C1291.2-501.4,1291.3-502.1,1291.5-502.8z"/>
	<path class="st1" d="M1278.6-617.4l17,108.7l-50.6-98.6c-0.9,1.3-2.3,2.2-3.9,2.7l5.5,87c0.4-0.1,0.9-0.1,1.3-0.1
		c0.3,0,0.7,0,1,0.1l-5.5-87.8l50.9,99c1.1-0.8,2.5-1.3,4-1.3c1.4,0,2.7,0.4,3.8,1.1l5.7-13.5v-5.9l-7.7,18l7.7-58.6v-17.7
		l-9.9,75.6l-17-108.3c-0.1,0-0.2,0-0.3,0C1280-617.1,1279.3-617.2,1278.6-617.4z"/>
	<path class="st1" d="M1266.3-733.3l41.5,33.9v-3l-39.9-32.5C1267.5-734.2,1266.9-733.7,1266.3-733.3z"/>
	<path class="st1" d="M1307.8-496.4v-2.4l-2.6-0.9c-0.1,0.8-0.4,1.5-0.7,2.2L1307.8-496.4z"/>
	<path class="st1" d="M1159.1-517.5l81.8,6c0.1-0.8,0.3-1.6,0.6-2.3l-81.7-6C1159.7-519,1159.5-518.2,1159.1-517.5z"/>
	<path class="st1" d="M1100.5-526c-0.1,0.8-0.3,1.6-0.5,2.2l46.3,5.3c-0.2-0.7-0.3-1.5-0.3-2.3L1100.5-526z"/>
	<path class="st1" d="M1158.3-525.5l13.2-91.5c0,0-0.1,0-0.1,0c-0.7,0-1.5-0.1-2.1-0.3l-13,90.1
		C1157-526.7,1157.7-526.2,1158.3-525.5z"/>
	<path class="st1" d="M1116-672.1c-0.4,0.7-0.9,1.3-1.5,1.8l50.8,42.7c0.4-0.7,0.9-1.3,1.5-1.8L1116-672.1z"/>
	<path class="st1" d="M779-335.2c-0.7,0.4-1.4,0.6-2.2,0.8l68.9,193c0.5-0.6,1.2-1.1,1.9-1.5L779-335.2z"/>
	<path class="st1" d="M862.2-44.3c0.7-0.2,1.5-0.4,2.2-0.4c0,0,0,0,0,0l-13.7-84.9c-0.8,0-1.7-0.2-2.4-0.5L862.2-44.3z"/>
	<path class="st1" d="M717.3-41h6.2l-48-19.3c-0.1,0.8-0.4,1.5-0.7,2.2L717.3-41z"/>
	<path class="st1" d="M554-110v2.7L664-61c0.2-0.8,0.6-1.6,1-2.3L554-110z"/>
	<path class="st1" d="M674.5-65.1c0.4,0.6,0.7,1.4,0.9,2.1l65.9-27.3c-0.4-0.7-0.6-1.4-0.8-2.2L674.5-65.1z"/>
	<path class="st1" d="M844.2-133l-0.9-2.1l-90.1,37.4c0.4,0.6,0.8,1.3,1,2.1L844.2-133z"/>
	<path class="st1" d="M1168.6-388.6l-109.2,44.3c0.6,0.5,1.2,1.1,1.6,1.8l108.5-44C1169.1-387.1,1168.8-387.8,1168.6-388.6z"/>
	<path class="st1" d="M1148.3-309l61.2,95.6c0.6-0.5,1.2-0.9,1.9-1.2l-61.2-95.6C1149.7-309.7,1149-309.3,1148.3-309z"/>
	<path class="st1" d="M1113.1-186l-47.7,88.4c0.7,0.3,1.4,0.6,2,1.1l47.8-88.6C1114.5-185.3,1113.8-185.6,1113.1-186z"/>
	<path class="st1" d="M1110-191.4l-84.2,26.2c0.3,0.7,0.6,1.4,0.7,2.2l84-26.2C1110.3-189.9,1110.1-190.6,1110-191.4z"/>
	<path d="M1141.4-144.5c0.7-0.3,1.4-0.6,2-1.1c1.6-1.3,2.6-3.3,2.6-5.5c0-0.8-0.1-1.6-0.4-2.4c-0.3-0.7-0.6-1.4-1.1-2
		c-1.3-1.6-3.3-2.7-5.5-2.7c-0.8,0-1.5,0.1-2.2,0.4c-0.7,0.2-1.4,0.6-2,1.1c-1.7,1.3-2.8,3.3-2.8,5.6c0,1.6,0.5,3.1,1.4,4.2
		c0.5,0.6,1,1.2,1.7,1.6c1.1,0.8,2.5,1.2,3.9,1.2C1139.8-144.1,1140.7-144.2,1141.4-144.5z"/>
	<path d="M862.2-44.3c-0.9,0.3-1.7,0.7-2.3,1.3c-0.6,0.5-1.1,1.1-1.5,1.8c0,0.1-0.1,0.1-0.1,0.2h12.4c-1.2-2.2-3.5-3.7-6.1-3.7
		c0,0,0,0,0,0C863.7-44.7,862.9-44.6,862.2-44.3z"/>
	<path d="M821.4-73.2c0-2.7-1.6-5.1-3.9-6.3c-0.7-0.4-1.5-0.6-2.3-0.7c-0.3,0-0.6-0.1-0.9-0.1c-3.9,0-7,3.2-7,7
		c0,1.5,0.5,2.9,1.3,4.1c0.5,0.6,1,1.2,1.7,1.7c1.2,0.8,2.6,1.3,4.1,1.3c2,0,3.8-0.8,5.1-2.1c0.5-0.5,1-1.2,1.3-1.9
		C821.2-71.1,821.4-72.1,821.4-73.2z"/>
	<path d="M782.7-341.3c0-3.9-3.2-7-7-7c-3.9,0-7,3.2-7,7c0,3.9,3.2,7,7,7c0.4,0,0.8,0,1.3-0.1c0.8-0.1,1.5-0.4,2.2-0.8
		C781.2-336.4,782.7-338.7,782.7-341.3z"/>
	<path d="M1162.2-121.3c-0.6-0.5-1.3-0.9-2-1.1c-0.8-0.3-1.6-0.4-2.4-0.4c-0.7,0-1.3,0.1-1.9,0.3c-0.8,0.2-1.5,0.5-2.1,1
		c-1.3,0.9-2.2,2.1-2.7,3.6c-0.2,0.7-0.4,1.4-0.4,2.2c0,0.1,0,0.2,0,0.3c0.1,1.9,0.9,3.7,2.2,4.9c0.6,0.5,1.2,1,1.9,1.3
		c0.9,0.4,1.9,0.6,2.9,0.6c1.4,0,2.7-0.4,3.8-1.1c0.7-0.4,1.2-0.9,1.7-1.6c0.4-0.5,0.7-1,0.9-1.6c0.3-0.7,0.5-1.5,0.6-2.3
		c0-0.2,0-0.3,0-0.5c0-0.5,0-0.9-0.1-1.4c-0.2-0.8-0.5-1.6-0.9-2.3C1163.4-120.1,1162.8-120.8,1162.2-121.3z"/>
	<path d="M1123.4-65.1c-3.9,0-7,3.2-7,7c0,1.7,0.6,3.2,1.6,4.5c0.5,0.6,1.1,1.1,1.8,1.5c1.1,0.7,2.3,1.1,3.7,1.1
		c2.6,0,4.9-1.4,6.1-3.5c0.4-0.7,0.7-1.4,0.8-2.1c0.1-0.5,0.1-0.9,0.1-1.4c0-2.5-1.4-4.8-3.4-6c-0.7-0.4-1.4-0.7-2.2-0.9
		C1124.4-65,1123.9-65.1,1123.4-65.1z"/>
	<path d="M1271.4-122.4c-2,0.7-3.7,2.3-4.4,4.4c-0.2,0.7-0.4,1.5-0.4,2.3c0,0,0,0,0,0c0,3.9,3.2,7,7,7c2.2,0,4.1-1,5.4-2.5
		c0.6-0.6,1-1.4,1.3-2.2c0.1-0.4,0.3-0.9,0.3-1.3c0.1-0.3,0.1-0.7,0.1-1c0-0.4,0-0.9-0.1-1.3c-0.2-0.8-0.4-1.6-0.9-2.3
		c-0.4-0.7-0.9-1.3-1.5-1.8c-1.2-1-2.7-1.6-4.3-1.7c-0.1,0-0.1,0-0.2,0C1272.9-122.8,1272.1-122.7,1271.4-122.4z"/>
	<path d="M1260.2-299.7c-0.8,0.2-1.5,0.5-2.2,0.9c-0.6,0.4-1.2,0.9-1.7,1.5c-1,1.2-1.5,2.7-1.5,4.4c0,2.2,1,4.2,2.6,5.5
		c0.6,0.5,1.3,0.9,2,1.1c0.8,0.3,1.6,0.4,2.4,0.4c1.6,0,3-0.5,4.2-1.4c0.6-0.5,1.2-1,1.6-1.7c0.8-1.1,1.2-2.5,1.2-4
		c0-0.7-0.1-1.4-0.3-2.1c-0.2-0.7-0.6-1.4-1-2c-0.7-1-1.7-1.8-2.9-2.3c-0.9-0.4-1.8-0.6-2.8-0.6
		C1261.3-299.9,1260.8-299.8,1260.2-299.7z"/>
	<path d="M1254.9-510.8c0-3.6-2.6-6.5-6.1-7c-0.3,0-0.6-0.1-1-0.1c-0.5,0-0.9,0-1.3,0.1c-0.5,0.1-1.1,0.3-1.6,0.5
		c-0.7,0.3-1.4,0.8-1.9,1.3c-0.7,0.6-1.2,1.3-1.6,2.2c-0.3,0.7-0.5,1.5-0.6,2.3c0,0.2,0,0.5,0,0.7c0,1.9,0.8,3.7,2.1,5
		c0.5,0.5,1.2,1,1.9,1.3c0.8,0.4,1.7,0.7,2.7,0.7c0.2,0,0.3,0,0.5,0c0.6,0,1.2-0.1,1.8-0.2c0.2-0.1,0.4-0.1,0.6-0.2
		c0.7-0.3,1.4-0.6,2-1.1c1-0.8,1.8-1.9,2.3-3.2C1254.8-509.2,1254.9-510,1254.9-510.8C1254.9-510.8,1254.9-510.8,1254.9-510.8z"/>
	<path d="M1287.9-423.2c0,2.9,1.7,5.4,4.2,6.5c0.7,0.3,1.4,0.5,2.2,0.6c0.2,0,0.4,0,0.6,0c1.5,0,2.9-0.5,4-1.2
		c0.7-0.5,1.2-1,1.7-1.7c0.8-1.2,1.3-2.6,1.3-4.1c0-3.9-3.2-7-7-7c-0.2,0-0.4,0-0.6,0c-0.8,0.1-1.6,0.3-2.3,0.6
		C1289.6-428.5,1287.9-426.1,1287.9-423.2z"/>
	<path d="M1231-697.2c1.1,0.7,2.5,1.2,3.9,1.2c0.2,0,0.3,0,0.4,0c0.8-0.1,1.6-0.2,2.3-0.5c2.5-1.1,4.3-3.6,4.3-6.5
		c0-2-0.8-3.8-2.2-5.1c-0.6-0.5-1.2-1-1.9-1.3c-0.9-0.4-1.9-0.6-2.9-0.6c-3.9,0-7,3.2-7,7c0,1.6,0.6,3.1,1.5,4.3
		C1229.8-698.2,1230.4-697.7,1231-697.2z"/>
	<path d="M1107.4-525.1c0-3.9-3.2-7-7-7s-7,3.2-7,7c0,3.9,3.2,7,7,7c2.7,0,5-1.5,6.2-3.6c0.4-0.7,0.6-1.4,0.8-2.2
		C1107.4-524.3,1107.4-524.7,1107.4-525.1z"/>
	<path d="M1117-675.7c0-3.9-3.2-7-7-7c-3.9,0-7,3.2-7,7c0,3.9,3.2,7,7,7c1.7,0,3.3-0.6,4.6-1.7c0.6-0.5,1.1-1.1,1.5-1.8
		C1116.7-673.1,1117-674.4,1117-675.7z"/>
	<path class="st1" d="M1232.8-614.2l-54.4-9.7c0,0.8-0.2,1.6-0.4,2.3l54.3,9.7C1232.3-612.7,1232.5-613.5,1232.8-614.2z"/>
	<path d="M1171.5-617c1,0,1.9-0.2,2.8-0.6c0.7-0.3,1.3-0.8,1.9-1.3c0.8-0.8,1.4-1.7,1.8-2.8c0.3-0.7,0.4-1.5,0.4-2.3
		c0,0,0-0.1,0-0.1c0-1.8-0.7-3.5-1.8-4.7c-0.5-0.6-1.1-1.1-1.8-1.4c-0.6-0.4-1.3-0.6-2.1-0.8c-0.4-0.1-0.9-0.1-1.3-0.1
		c-0.3,0-0.6,0-1,0.1c-0.3,0-0.6,0.1-0.9,0.2c-0.8,0.2-1.5,0.5-2.1,1c-0.2,0.1-0.4,0.3-0.6,0.5c-0.6,0.5-1.1,1.1-1.5,1.8
		c-0.6,1.1-1,2.3-1,3.6c0,3.2,2.1,5.8,4.9,6.7c0.7,0.2,1.4,0.3,2.1,0.3C1171.4-616.9,1171.5-616.9,1171.5-617z"/>
	<path d="M1294.2-506.5c-1.3,0.9-2.2,2.2-2.7,3.7c-0.2,0.6-0.3,1.3-0.3,2c0,0.1,0,0.2,0,0.3c0.1,3.8,3.2,6.8,7,6.8
		c0.9,0,1.7-0.2,2.5-0.5c0.8-0.3,1.5-0.7,2.1-1.2c0.7-0.6,1.2-1.3,1.7-2.1c0.4-0.7,0.6-1.4,0.7-2.2c0.1-0.4,0.1-0.7,0.1-1.1
		c0-2.5-1.3-4.7-3.2-5.9c-1.1-0.7-2.4-1.1-3.8-1.1C1296.8-507.8,1295.4-507.3,1294.2-506.5z"/>
	<path d="M1263.6-746.1c-0.2,0-0.5-0.1-0.7-0.1c-0.2,0-0.3,0-0.5,0c-0.6,0-1.2,0.1-1.8,0.2c-0.6,0.2-1.3,0.4-1.8,0.8
		c-0.7,0.4-1.3,0.9-1.8,1.5c-1,1.2-1.7,2.8-1.7,4.6c0,2,0.8,3.7,2.1,5c0.5,0.5,1.2,1,1.9,1.3c0.3,0.1,0.6,0.3,0.8,0.3
		c0.7,0.2,1.5,0.4,2.3,0.4c0.2,0,0.4,0,0.6,0c1.2-0.1,2.3-0.5,3.3-1.1c0.7-0.4,1.2-1,1.7-1.6c0.9-1.2,1.5-2.7,1.5-4.3
		c0-1.7-0.6-3.2-1.6-4.4c-0.5-0.6-1.1-1.1-1.7-1.5c-0.1-0.1-0.2-0.1-0.4-0.2C1265.1-745.7,1264.4-746,1263.6-746.1z"/>
	<path d="M1232.8-614.2c-0.3,0.7-0.5,1.5-0.5,2.2c0,0.1,0,0.3,0,0.4c0,3.9,3.2,7,7,7c0.6,0,1.2-0.1,1.8-0.2c1.6-0.4,2.9-1.4,3.9-2.7
		c0.8-1.2,1.3-2.6,1.3-4.1c0-2.2-1-4.2-2.6-5.5c-1-0.8-2.2-1.3-3.5-1.5c-0.3,0-0.6-0.1-0.9-0.1
		C1236.4-618.6,1233.8-616.7,1232.8-614.2z"/>
	<path class="st1" d="M856.6-132.3c-0.5,0.6-1.1,1.2-1.7,1.6l93,65.3c0.3-0.7,0.6-1.4,1.1-2L856.6-132.3z"/>
	<path d="M954.5-70.1c-2.3,0-4.3,1.1-5.5,2.7c-0.5,0.6-0.9,1.3-1.1,2c-0.3,0.7-0.4,1.5-0.4,2.3c0,0.4,0,0.8,0.1,1.2
		c0.1,0.8,0.4,1.5,0.8,2.2c1.2,2.2,3.5,3.6,6.2,3.6c2.8,0,5.2-1.7,6.4-4c0.3-0.7,0.5-1.4,0.6-2.2c0-0.3,0-0.5,0-0.8
		c0-0.1,0-0.2,0-0.2c0-0.8-0.2-1.6-0.5-2.3C960.1-68.2,957.5-70.1,954.5-70.1z"/>
	<path class="st1" d="M1307.8-663.2v-4.1l-25,36.3c0.8,0.2,1.4,0.6,2.1,1.1L1307.8-663.2z"/>
	<path d="M1273.7-624.2c0,3.2,2.1,5.9,5,6.7c0.7,0.2,1.4,0.3,2.1,0.3c0.1,0,0.2,0,0.3,0c3.8-0.2,6.7-3.2,6.7-7
		c0-2.3-1.1-4.4-2.9-5.7c-0.6-0.5-1.3-0.8-2.1-1.1c-0.7-0.2-1.4-0.3-2.1-0.3c-0.6,0-1.3,0.1-1.9,0.3c-0.8,0.2-1.5,0.6-2.2,1
		C1274.9-628.7,1273.7-626.6,1273.7-624.2z"/>
	<path class="st1" d="M844.1-137.9L738-139.3c0.1,0.3,0.1,0.7,0.1,1.1c0,0.4,0,0.8-0.1,1.2l106.1,1.4c-0.1-0.3-0.1-0.7-0.1-1.1
		C844-137,844-137.5,844.1-137.9z"/>
	<path class="st1" d="M751-87.8L770.7-41h2.5l-20.3-48.4C752.4-88.7,751.7-88.2,751-87.8z"/>
	<path class="st1" d="M745.6-100.6c0.6-0.1,1.1-0.2,1.7-0.2c0.2,0,0.5,0,0.7,0l-13.2-31.5c-0.6,0.4-1.4,0.7-2.1,0.9L745.6-100.6z"/>
	<path class="st1" d="M727.6-132.1c-0.7-0.4-1.3-0.9-1.8-1.4L672-67.5c0.7,0.4,1.3,0.9,1.8,1.5L727.6-132.1z"/>
	<path class="st1" d="M645.6-126.2c-0.3-0.7-0.4-1.4-0.5-2.2L554-112.3v2.3L645.6-126.2z"/>
	<path class="st1" d="M671.6-173.2c-0.8,0-1.6-0.2-2.3-0.5L652-136.4c0.8,0.2,1.5,0.5,2.1,1L671.6-173.2z"/>
	<path d="M673.8-66c-0.5-0.6-1.1-1.1-1.8-1.5c-1-0.6-2.2-0.9-3.5-0.9c-2.4,0-4.5,1.2-5.8,3c-0.4,0.6-0.8,1.3-1,2.1
		c-0.2,0.6-0.3,1.3-0.3,2c0,3.9,3.2,7,7,7c2.7,0,5.1-1.5,6.2-3.8c0.4-0.7,0.6-1.4,0.7-2.2c0.1-0.4,0.1-0.7,0.1-1.1
		c0-0.6-0.1-1.1-0.2-1.6c-0.2-0.8-0.5-1.5-0.9-2.1C674.3-65.4,674.1-65.8,673.8-66z"/>
	<path d="M672-173.2c3.9,0,7-3.2,7-7c0-3.9-3.2-7-7-7c-3.9,0-7,3.2-7,7c0,3,1.8,5.5,4.4,6.5c0.7,0.3,1.5,0.5,2.3,0.5
		C671.8-173.2,671.9-173.2,672-173.2z"/>
	<path d="M745.6-100.6c-3.1,0.8-5.3,3.5-5.3,6.8c0,0.5,0,0.9,0.1,1.3c0.1,0.8,0.4,1.5,0.8,2.2c1.2,2.1,3.5,3.6,6.1,3.6
		c1.3,0,2.6-0.4,3.7-1c0.7-0.4,1.3-1,1.8-1.6c1-1.2,1.6-2.7,1.6-4.4c0-0.7-0.1-1.3-0.3-1.9c-0.2-0.8-0.5-1.5-1-2.1
		c-1.1-1.7-3-2.8-5.1-3.1c-0.2,0-0.5,0-0.7,0C746.8-100.8,746.2-100.7,745.6-100.6z"/>
	<path d="M738-139.3c-0.5-3.4-3.4-6-7-6c-3.9,0-7,3.2-7,7c0,1.8,0.7,3.4,1.8,4.7c0.5,0.6,1.1,1.1,1.8,1.4c1,0.6,2.2,0.9,3.5,0.9
		c0.6,0,1.1-0.1,1.6-0.2c0.8-0.2,1.5-0.5,2.1-0.9c1.6-1,2.8-2.7,3.2-4.7c0.1-0.4,0.1-0.8,0.1-1.2C738.1-138.6,738.1-139,738-139.3z"
		/>
	<path d="M650.2-122.6c3.9,0,7-3.2,7-7c0-2.4-1.2-4.6-3.1-5.8c-0.6-0.4-1.3-0.8-2.1-1c-0.6-0.2-1.2-0.3-1.9-0.3c-3.9,0-7,3.2-7,7
		c0,0.1,0,0.1,0,0.2c0,0.8,0.2,1.5,0.4,2.3C644.6-124.5,647.1-122.6,650.2-122.6z"/>
	<path class="st1" d="M1175.2-397.4l-19.9-116.9c-0.7,0.2-1.5,0.4-2.3,0.4l20,117C1173.6-397.2,1174.4-397.3,1175.2-397.4z"/>
	<path class="st1" d="M1175.5-383.3c-0.2,0-0.4,0-0.6,0l36.8,168.7c0.7-0.3,1.5-0.4,2.2-0.5l-36.7-168.3
		C1176.6-383.4,1176-383.3,1175.5-383.3z"/>
	<path class="st1" d="M1117.5-198.9c0.8,0,1.5,0.2,2.2,0.5l25.4-110.1c-0.8,0-1.5-0.2-2.2-0.5L1117.5-198.9z"/>
	<path class="st1" d="M1112.7-197.4l-53.3-135.8c-0.6,0.5-1.3,0.9-2,1.1l53.6,136.6C1111.5-196.3,1112.1-196.9,1112.7-197.4z"/>
	<path class="st1" d="M1023.9-156.5l34.8,60.1c0.6-0.5,1.3-0.9,2-1.1l-35.2-60.7C1025.1-157.6,1024.5-157,1023.9-156.5z"/>
	<path class="st1" d="M1012.5-162c0-0.7,0.1-1.3,0.3-1.9l-130-14.6c0,0.1,0,0.2,0,0.4c0,0.7-0.1,1.3-0.3,1.9l127.7,14.3l-153.7,20.9
		c0.5,0.6,0.9,1.4,1.2,2.2l155.1-21C1012.6-160.6,1012.5-161.3,1012.5-162z"/>
	<path class="st1" d="M937.2-259.8c-0.7-0.3-1.3-0.8-1.9-1.3L879-184.5c0.7,0.4,1.3,0.8,1.9,1.4L937.2-259.8z"/>
	<path class="st1" d="M1138.9-317.9l-77-22.6c0.1,0.6,0.2,1.1,0.2,1.7c0,0.2,0,0.5,0,0.7l76.4,22.4
		C1138.5-316.4,1138.7-317.2,1138.9-317.9z"/>
	<path class="st1" d="M1056.4-345.7l94.2-168.6c-0.7-0.3-1.4-0.6-2-1.1l-94.4,169l1,0.6h0C1055.5-345.8,1055.9-345.8,1056.4-345.7z"
		/>
	<path class="st1" d="M1054.9-331.7c-0.8,0-1.5-0.2-2.3-0.4l-31.5,163.3c0.8,0.2,1.5,0.5,2.2,0.9L1054.9-331.7z"/>
	<path class="st1" d="M1014.5-167c0.5-0.5,1.2-1,1.9-1.3l-69.3-96.1c-0.2,0.9-0.6,1.7-1.1,2.4L1014.5-167z"/>
	<path class="st1" d="M946.1-270.1l28.8-13.9c-0.4-0.6-0.8-1.3-1-2.1l-29.4,14.2C945.1-271.3,945.7-270.7,946.1-270.1z"/>
	<path class="st1" d="M985-353.3c-0.3,0.8-0.8,1.5-1.3,2.1l64.1,13.6l0.2-1.1c0-0.4,0-0.8,0.1-1.1L985-353.3z"/>
	<path d="M1138.5-315.5c0,2.9,1.8,5.5,4.4,6.5c0.7,0.3,1.5,0.5,2.2,0.5c0.1,0,0.3,0,0.4,0c1,0,1.9-0.2,2.8-0.6
		c0.7-0.3,1.4-0.7,1.9-1.2c1.4-1.3,2.3-3.2,2.3-5.2c0-3.9-3.2-7-7-7c-3,0-5.6,1.9-6.6,4.6c-0.3,0.7-0.4,1.5-0.4,2.3
		C1138.5-315.6,1138.5-315.5,1138.5-315.5z"/>
	<path d="M1117.1-198.9c-1.6,0-3.1,0.6-4.3,1.5c-0.7,0.5-1.3,1.2-1.7,1.9c-0.6,1.1-1,2.3-1,3.6c0,0.2,0,0.3,0,0.5
		c0.1,0.8,0.2,1.5,0.5,2.2c0.5,1.3,1.5,2.4,2.6,3.2c0.6,0.4,1.3,0.7,2.1,0.9c0.6,0.2,1.2,0.2,1.8,0.2c0.8,0,1.6-0.1,2.3-0.4
		c0.7-0.3,1.4-0.6,2-1.1c1.7-1.3,2.7-3.3,2.7-5.6c0-2.9-1.8-5.5-4.4-6.5c-0.7-0.3-1.5-0.5-2.2-0.5
		C1117.3-198.9,1117.2-198.9,1117.1-198.9z"/>
	<path d="M1012.8-163.9c-0.2,0.6-0.3,1.3-0.3,1.9c0,0.7,0.1,1.4,0.3,2.1c0.9,2.9,3.6,5,6.7,5c1.6,0,3.1-0.6,4.3-1.5
		c0.6-0.5,1.2-1.1,1.6-1.8c0.7-1.1,1.1-2.4,1.1-3.8c0-0.3,0-0.7-0.1-1c-0.1-0.8-0.3-1.5-0.7-2.2c-0.6-1.1-1.5-2.1-2.5-2.8
		c-0.7-0.4-1.4-0.7-2.2-0.9c-0.5-0.1-1.1-0.2-1.6-0.2c-1.1,0-2.2,0.3-3.1,0.7c-0.7,0.3-1.3,0.8-1.9,1.3
		C1013.7-166.2,1013.1-165.1,1012.8-163.9z"/>
	<path d="M1055.1-331.7c0.8,0,1.6-0.1,2.3-0.4c0.7-0.3,1.4-0.6,2-1.1c1.5-1.1,2.4-2.9,2.6-4.8c0-0.2,0-0.5,0-0.7
		c0-0.6-0.1-1.2-0.2-1.7c-0.2-0.7-0.5-1.4-0.9-2c-0.4-0.7-1-1.3-1.6-1.8c-0.9-0.7-1.9-1.2-3.1-1.4c-0.4-0.1-0.8-0.1-1.2-0.1h0
		c-3.5,0-6.4,2.6-6.9,5.9c-0.1,0.4-0.1,0.8-0.1,1.1v0c0,3,1.9,5.6,4.6,6.6c0.7,0.3,1.5,0.4,2.3,0.4
		C1055-331.7,1055-331.7,1055.1-331.7z"/>
	<path d="M1168.4-390.3c0,0.6,0.1,1.2,0.2,1.7c0.2,0.8,0.5,1.5,0.9,2.1c1.2,1.8,3.1,3,5.3,3.2c0.2,0,0.4,0,0.6,0
		c0.6,0,1.1-0.1,1.7-0.2c0.4-0.1,0.8-0.2,1.2-0.4c0.7-0.3,1.4-0.8,1.9-1.3c1.4-1.3,2.2-3.1,2.2-5.1c0-2.3-1.1-4.4-2.8-5.6
		c-0.6-0.5-1.3-0.8-2-1.1c-0.7-0.2-1.4-0.3-2.2-0.3c-0.1,0-0.2,0-0.3,0c-0.8,0-1.5,0.2-2.2,0.5
		C1170.3-395.9,1168.4-393.3,1168.4-390.3z"/>
	<path d="M1152.9-513.9C1152.9-513.9,1153-513.9,1152.9-513.9c0.8,0,1.6-0.1,2.3-0.4c1.7-0.6,3-1.7,3.9-3.2c0.4-0.7,0.6-1.4,0.8-2.2
		c0.1-0.4,0.1-0.8,0.1-1.2c0-1.7-0.6-3.3-1.7-4.5c-0.6-0.7-1.3-1.3-2.1-1.7c-1-0.5-2.1-0.8-3.3-0.8c-3.9,0-7,3.2-7,7
		c0,0,0,0.1,0,0.1c0,0.8,0.2,1.6,0.5,2.3c0.5,1.2,1.2,2.2,2.2,3c0.6,0.5,1.3,0.9,2,1.1C1151.3-514,1152.1-513.9,1152.9-513.9z"/>
	<path d="M1067.5-96.5c-0.6-0.5-1.3-0.8-2-1.1c-0.7-0.2-1.5-0.4-2.3-0.4c-0.9,0-1.7,0.2-2.5,0.5c-0.7,0.3-1.4,0.7-2,1.1
		c-0.9,0.7-1.6,1.7-2.1,2.8c-0.3,0.8-0.5,1.7-0.5,2.6c0,0.5,0.1,1,0.2,1.5c0.7,3.2,3.5,5.5,6.9,5.5c0.6,0,1.3-0.1,1.9-0.3
		c0.8-0.2,1.5-0.5,2.1-1c1.9-1.3,3.1-3.4,3.1-5.8c0-0.8-0.1-1.5-0.4-2.2c-0.4-1.1-1-2.1-1.9-2.9
		C1067.8-96.3,1067.6-96.4,1067.5-96.5z"/>
	<path d="M1214.2-215.2c-0.1,0-0.2,0-0.4,0c-0.8,0-1.5,0.2-2.2,0.5c-0.1,0-0.1,0-0.2,0.1c-0.7,0.3-1.4,0.7-1.9,1.2
		c-1.4,1.3-2.3,3.2-2.3,5.2c0,1.2,0.3,2.4,0.8,3.4c0.4,0.7,0.9,1.3,1.4,1.8c0.1,0.1,0.1,0.1,0.2,0.2c0.6,0.5,1.2,0.9,2,1.2
		c0.8,0.3,1.7,0.5,2.7,0.5c1.1,0,2.1-0.2,3-0.7c0.7-0.3,1.3-0.8,1.9-1.3c1.1-1.1,1.9-2.5,2.1-4.1c0-0.3,0.1-0.7,0.1-1
		c0-0.4,0-0.9-0.1-1.3c-0.3-1.7-1.2-3.2-2.5-4.2c-0.6-0.5-1.3-0.9-2-1.1C1215.9-215,1215.1-215.2,1214.2-215.2z"/>
	<path d="M875.8-171.1c3.2,0,5.9-2.2,6.8-5.1c0.2-0.6,0.3-1.3,0.3-1.9c0-0.1,0-0.2,0-0.4c-0.1-1.8-0.8-3.4-2-4.6
		c-0.5-0.5-1.2-1-1.9-1.4c-1-0.5-2-0.8-3.2-0.8c-3.9,0-7,3.2-7,7c0,2.1,1,4.1,2.5,5.4c0.6,0.5,1.2,0.9,2,1.2
		C874-171.3,874.9-171.1,875.8-171.1z"/>
	<path d="M940.3-259.1c2.4,0,4.4-1.2,5.7-2.9c0.5-0.7,0.9-1.5,1.1-2.4c0.1-0.6,0.2-1.1,0.2-1.7c0-1.4-0.4-2.8-1.2-3.9
		c-0.4-0.7-1-1.3-1.7-1.7c-1.2-0.9-2.6-1.4-4.2-1.4c-3.9,0-7,3.2-7,7c0,2,0.8,3.7,2.1,5c0.5,0.5,1.2,1,1.9,1.3
		C938.1-259.4,939.2-259.1,940.3-259.1z"/>
	<path d="M980.7-281c3.9,0,7-3.2,7-7c0-3.9-3.2-7-7-7c-3.9,0-7,3.2-7,7c0,0.7,0.1,1.4,0.3,2c0.2,0.7,0.6,1.4,1,2.1
		C976.2-282.2,978.3-281,980.7-281z"/>
	<path d="M985.6-356c0-3.9-3.2-7-7-7c-3.9,0-7,3.2-7,7c0,3.9,3.2,7,7,7c2,0,3.9-0.9,5.2-2.3c0.6-0.6,1-1.3,1.3-2.1
		C985.4-354.2,985.6-355.1,985.6-356z"/>
	<path d="M856.6-132.3c0.5-0.7,0.9-1.4,1.2-2.3c0.2-0.7,0.3-1.3,0.3-2.1c0-0.1,0-0.1,0-0.2c0-0.7-0.2-1.4-0.4-2.1
		c-0.3-0.8-0.7-1.5-1.2-2.2c-0.3-0.4-0.7-0.8-1.1-1.1c-0.6-0.5-1.3-0.8-2-1.1c-0.7-0.3-1.5-0.4-2.3-0.4c-1.2,0-2.3,0.3-3.3,0.8
		c-0.7,0.4-1.4,0.9-1.9,1.5c-0.9,1-1.5,2.2-1.7,3.5c-0.1,0.4-0.1,0.8-0.1,1.2c0,0.4,0,0.7,0.1,1.1c0.2,1.6,1,3,2.2,4.1
		c0.6,0.5,1.2,1,1.9,1.3c0.1,0,0.2,0.1,0.2,0.1c0.7,0.3,1.6,0.5,2.4,0.5c0.1,0,0.2,0,0.2,0c1.4,0,2.7-0.4,3.8-1.1
		C855.5-131.1,856.1-131.6,856.6-132.3z"/>
	<path d="M555.8-113c-0.5-0.6-1.1-1.1-1.8-1.5c-1-0.6-2.2-0.9-3.5-0.9c-2.4,0-4.5,1.2-5.8,3c-0.4,0.6-0.8,1.3-1,2.1
		c-0.2,0.6-0.3,1.3-0.3,2c0,3.9,3.2,7,7,7c2.7,0,5.1-1.5,6.2-3.8c0.4-0.7,0.6-1.4,0.7-2.2c0.1-0.4,0.1-0.7,0.1-1.1
		c0-0.6-0.1-1.1-0.2-1.6c-0.2-0.8-0.5-1.5-0.9-2.1C556.3-112.4,556.1-112.8,555.8-113z"/>
	<path class="st1" d="M1271-944.2l-9.2,204.8"/>
	<path d="M1263.2-948.5c1.2-3.7-0.9-7.7-4.6-8.9c-3.7-1.2-7.7,0.9-8.9,4.6c-1.2,3.7,0.9,7.7,4.6,8.9c0.4,0.1,0.8,0.2,1.2,0.3
		c0.8,0.1,1.6,0.1,2.3-0.1C1260.3-944.2,1262.4-946,1263.2-948.5z"/>
</g>
</svg>
