<svg xmlns="http://www.w3.org/2000/svg" xmlns:xlink="http://www.w3.org/1999/xlink" viewBox="0 0 60 21.28"><defs><style>.\37 764bec2-b93b-4828-9edf-6f04d8cc14e1{fill:url(#76dd4d9a-eeee-44fc-a7b9-2cb0657134c6);}.\32 c5e0d59-f7af-4393-a150-2ce60b257f97{fill:url(#a3739ed5-098d-4522-bbd2-1531dd3e4aa2);}.e52ee8ec-3c30-4043-a3f2-1b05099ceb33{fill:url(#3bab3f2c-333a-40b8-b373-a2f0f74eae0a);}.f8b3898e-07b6-40af-8b7f-b382afb3b550{fill:url(#4cea02c4-01b8-46e0-b87c-a925da49a8e2);}.\33 e31c849-4218-44bd-91cd-b0a7e66272d6{fill:url(#226e41b5-5d5a-4d2a-9da0-b304625e404b);}.\36 953eeea-1c68-4d81-ba03-06a5266740f7{fill:url(#2ea1ff04-5ad4-4f4a-80d7-95da5f13c53d);}</style><linearGradient id="76dd4d9a-eeee-44fc-a7b9-2cb0657134c6" x1="4.84" y1="20.68" x2="16.43" y2="0.6" gradientUnits="userSpaceOnUse"><stop offset="0" stop-color="#3c3c3b"/><stop offset="0.28" stop-color="#40403f"/><stop offset="0.56" stop-color="#4c4c4b"/><stop offset="0.83" stop-color="#605f5f"/><stop offset="1" stop-color="#706f6f"/></linearGradient><linearGradient id="a3739ed5-098d-4522-bbd2-1531dd3e4aa2" x1="27.19" y1="5.66" x2="20.52" y2="12.33" gradientUnits="userSpaceOnUse"><stop offset="0" stop-color="#706f6f"/><stop offset="0" stop-color="#706f6f"/><stop offset="0.21" stop-color="#595858"/><stop offset="0.43" stop-color="#494848"/><stop offset="0.67" stop-color="#3f3f3e"/><stop offset="1" stop-color="#3c3c3b"/></linearGradient><linearGradient id="3bab3f2c-333a-40b8-b373-a2f0f74eae0a" x1="35.18" y1="4.82" x2="26.4" y2="13.61" xlink:href="#a3739ed5-098d-4522-bbd2-1531dd3e4aa2"/><linearGradient id="4cea02c4-01b8-46e0-b87c-a925da49a8e2" x1="41.13" y1="7.7" x2="35.22" y2="13.61" xlink:href="#a3739ed5-098d-4522-bbd2-1531dd3e4aa2"/><linearGradient id="226e41b5-5d5a-4d2a-9da0-b304625e404b" x1="49.97" y1="7.7" x2="44.06" y2="13.61" xlink:href="#a3739ed5-098d-4522-bbd2-1531dd3e4aa2"/><linearGradient id="2ea1ff04-5ad4-4f4a-80d7-95da5f13c53d" x1="60" y1="6.49" x2="51.66" y2="14.83" xlink:href="#a3739ed5-098d-4522-bbd2-1531dd3e4aa2"/></defs><title>Asset 13idees</title><g id="8d7e43a0-b3b7-4393-8717-87429841815f" data-name="Layer 2"><g id="5b04fb9d-2708-4610-a8fa-4093dbaf44cf" data-name="Capa 1"><path class="7764bec2-b93b-4828-9edf-6f04d8cc14e1" d="M21.12,13.39,17.91,2.6A3.63,3.63,0,0,0,13.39.15L2.6,3.37A3.63,3.63,0,0,0,.15,7.88l3.21,10.8a3.63,3.63,0,0,0,4.52,2.44l10.79-3.21A3.63,3.63,0,0,0,21.12,13.39Zm-4.05.3a3.28,3.28,0,0,1-2,1.64L7.14,17.68l-.55-1.84,7.91-2.36a1.47,1.47,0,0,0,.28-2.71,1.41,1.41,0,0,0-1.12-.12L5.75,13,5.2,11.18l7.91-2.36A1.47,1.47,0,0,0,14.1,7a1.47,1.47,0,0,0-1.83-1L4.36,8.36,3.81,6.51l7.91-2.36a3.39,3.39,0,0,1,4.22,2.28A3.29,3.29,0,0,1,15.68,9l0,0,0,0a3.4,3.4,0,0,1,1.37,4.6Z"/><path class="2c5e0d59-f7af-4393-a150-2ce60b257f97" d="M23,3.15h1.67V4.82H23Zm0,11.67h1.67V6.49H23Z"/><path class="e52ee8ec-3c30-4043-a3f2-1b05099ceb33" d="M31.85,7.32a4.18,4.18,0,0,0-5.45.4,4,4,0,0,0-1.22,2.95,4.17,4.17,0,0,0,7.12,2.95,4,4,0,0,0,1.22-2.95V3.15H31.85Zm-.73,5.11a2.5,2.5,0,0,1-4.27-1.77,2.5,2.5,0,1,1,4.27,1.77Z"/><path class="f8b3898e-07b6-40af-8b7f-b382afb3b550" d="M42.18,9.5a4.17,4.17,0,0,0-8,2.33,4.17,4.17,0,0,0,7.66.84,4.18,4.18,0,0,0,.49-1.47l-1.9.55-.06.12a2.5,2.5,0,0,1-3.39,1,2.49,2.49,0,0,1-.84-.73l6.2-1.8A4.51,4.51,0,0,0,42.18,9.5Zm-6.51,1A2.49,2.49,0,0,1,36,9.45a2.5,2.5,0,0,1,3.39-1,2.5,2.5,0,0,1,.84.73Z"/><path class="3e31c849-4218-44bd-91cd-b0a7e66272d6" d="M51,9.5a4.17,4.17,0,0,0-8,2.33,4.17,4.17,0,0,0,7.66.84,4.18,4.18,0,0,0,.49-1.47l-1.9.55-.06.12a2.5,2.5,0,0,1-3.39,1,2.49,2.49,0,0,1-.84-.73l6.2-1.8A4.51,4.51,0,0,0,51,9.5Zm-6.51,1a2.49,2.49,0,0,1,.32-1.06,2.5,2.5,0,0,1,3.39-1,2.49,2.49,0,0,1,.84.73Z"/><path class="6953eeea-1c68-4d81-ba03-06a5266740f7" d="M54.16,8.16H60V6.49H54.16A2.51,2.51,0,0,0,51.66,9a2.51,2.51,0,0,0,2.5,2.5H57.5a.83.83,0,0,1,0,1.67H51.66v1.67H57.5a2.51,2.51,0,0,0,2.5-2.5,2.51,2.51,0,0,0-2.5-2.5H54.16a.83.83,0,0,1,0-1.67Z"/></g></g></svg>