<svg xmlns="http://www.w3.org/2000/svg" xmlns:xlink="http://www.w3.org/1999/xlink" viewBox="0 0 60 21.28"><defs><style>.\30 9516fda-e8db-4299-9c93-0856d577f8ce{fill:url(#09a69e23-9ba3-460b-93f5-07964718d3a8);}.cdbb58d4-e796-4962-b1e5-1dacb70740b1{fill:url(#dd419b06-a3f5-46ef-9c04-0cdb522ace27);}.\38 b8dea19-e216-41e1-bb98-aa4bad15d0a7{fill:url(#4240a05a-25f6-4f2a-a2cd-acd2a3f4571f);}.\31 3777a84-1580-4f47-834f-00626a4fb47c{fill:url(#bd718662-3bcb-47dd-8a9f-16b827616fcf);}.\31 448c9af-62b1-4b63-a4e7-a5d0fd441f88{fill:url(#eee0a408-388a-434e-8c66-2abb723503d2);}.\38 15c9d01-8ef3-44f5-84b5-c7796be914fa{fill:url(#2e8bb252-a674-4597-a388-7edbff1c290a);}</style><linearGradient id="09a69e23-9ba3-460b-93f5-07964718d3a8" x1="16.43" y1="0.6" x2="4.84" y2="20.68" gradientUnits="userSpaceOnUse"><stop offset="0" stop-color="#dadada"/><stop offset="0.12" stop-color="#e7e7e7"/><stop offset="0.31" stop-color="#f5f5f5"/><stop offset="0.55" stop-color="#fdfdfd"/><stop offset="1" stop-color="#fff"/></linearGradient><linearGradient id="dd419b06-a3f5-46ef-9c04-0cdb522ace27" x1="26.59" y1="4.25" x2="21.12" y2="13.73" gradientUnits="userSpaceOnUse"><stop offset="0" stop-color="#dadada"/><stop offset="0.12" stop-color="#e7e7e7"/><stop offset="0.31" stop-color="#f5f5f5"/><stop offset="0.55" stop-color="#fdfdfd"/><stop offset="1" stop-color="#fff"/></linearGradient><linearGradient id="4240a05a-25f6-4f2a-a2cd-acd2a3f4571f" x1="33.64" y1="3.23" x2="27.26" y2="14.28" xlink:href="#dd419b06-a3f5-46ef-9c04-0cdb522ace27"/><linearGradient id="bd718662-3bcb-47dd-8a9f-16b827616fcf" x1="40.26" y1="7.05" x2="36.09" y2="14.27" xlink:href="#dd419b06-a3f5-46ef-9c04-0cdb522ace27"/><linearGradient id="eee0a408-388a-434e-8c66-2abb723503d2" x1="49.1" y1="7.05" x2="44.93" y2="14.27" xlink:href="#dd419b06-a3f5-46ef-9c04-0cdb522ace27"/><linearGradient id="2e8bb252-a674-4597-a388-7edbff1c290a" x1="58.68" y1="5.73" x2="52.98" y2="15.59" xlink:href="#dd419b06-a3f5-46ef-9c04-0cdb522ace27"/></defs><title>Asset 53idees</title><g id="4bdb01a2-53b5-4735-9160-60a322d09660" data-name="Layer 2"><g id="18e49d8f-c903-471e-a19d-8f5aefa63dca" data-name="Capa 1"><path class="09516fda-e8db-4299-9c93-0856d577f8ce" d="M21.12,13.39,17.91,2.6A3.63,3.63,0,0,0,13.39.15L2.6,3.37A3.63,3.63,0,0,0,.15,7.88l3.21,10.8a3.63,3.63,0,0,0,4.52,2.44l10.79-3.21A3.63,3.63,0,0,0,21.12,13.39Zm-4.05.3a3.28,3.28,0,0,1-2,1.64L7.14,17.68l-.55-1.84,7.91-2.36a1.47,1.47,0,0,0,.28-2.71,1.41,1.41,0,0,0-1.12-.12L5.75,13,5.2,11.18l7.91-2.36A1.47,1.47,0,0,0,14.1,7a1.47,1.47,0,0,0-1.83-1L4.36,8.36,3.81,6.51l7.91-2.36a3.39,3.39,0,0,1,4.22,2.28A3.29,3.29,0,0,1,15.68,9l0,0,0,0a3.4,3.4,0,0,1,1.37,4.6Z"/><path class="cdbb58d4-e796-4962-b1e5-1dacb70740b1" d="M23,3.15h1.67V4.82H23Zm0,11.67h1.67V6.49H23Z"/><path class="8b8dea19-e216-41e1-bb98-aa4bad15d0a7" d="M31.85,7.32a4.18,4.18,0,0,0-5.45.4,4,4,0,0,0-1.22,2.95,4.17,4.17,0,0,0,7.12,2.95,4,4,0,0,0,1.22-2.95V3.15H31.85Zm-.73,5.11a2.5,2.5,0,0,1-4.27-1.77,2.5,2.5,0,1,1,4.27,1.77Z"/><path class="13777a84-1580-4f47-834f-00626a4fb47c" d="M42.18,9.5a4.17,4.17,0,0,0-8,2.33,4.17,4.17,0,0,0,7.66.84,4.18,4.18,0,0,0,.49-1.47l-1.9.55-.06.12a2.5,2.5,0,0,1-3.39,1,2.49,2.49,0,0,1-.84-.73l6.2-1.8A4.51,4.51,0,0,0,42.18,9.5Zm-6.51,1A2.49,2.49,0,0,1,36,9.45a2.5,2.5,0,0,1,3.39-1,2.5,2.5,0,0,1,.84.73Z"/><path class="1448c9af-62b1-4b63-a4e7-a5d0fd441f88" d="M51,9.5a4.17,4.17,0,0,0-8,2.33,4.17,4.17,0,0,0,7.66.84,4.18,4.18,0,0,0,.49-1.47l-1.9.55-.06.12a2.5,2.5,0,0,1-3.39,1,2.49,2.49,0,0,1-.84-.73l6.2-1.8A4.51,4.51,0,0,0,51,9.5Zm-6.51,1a2.49,2.49,0,0,1,.32-1.06,2.5,2.5,0,0,1,3.39-1,2.49,2.49,0,0,1,.84.73Z"/><path class="815c9d01-8ef3-44f5-84b5-c7796be914fa" d="M54.16,8.16H60V6.49H54.16A2.51,2.51,0,0,0,51.66,9a2.51,2.51,0,0,0,2.5,2.5H57.5a.83.83,0,0,1,0,1.67H51.66v1.67H57.5a2.51,2.51,0,0,0,2.5-2.5,2.51,2.51,0,0,0-2.5-2.5H54.16a.83.83,0,0,1,0-1.67Z"/></g></g></svg>