<svg xmlns="http://www.w3.org/2000/svg" xmlns:xlink="http://www.w3.org/1999/xlink" viewBox="0 0 60 21.28"><defs><style>.\37 6140cc0-7028-4dcb-bc83-16c605c656a1{fill:url(#e6e5cd4a-e07e-4ce4-bc3b-2483fba624da);}.bcf4cd40-ebf7-4fde-9b17-fe10b2d9bdc2{fill:url(#09f76ef0-aebb-4782-b10f-078d6277ca64);}.\30 1323aa5-3588-47ab-89ea-0ba7f4bed624{fill:url(#ed145569-81fc-4940-9db0-e8e7a3de3e6c);}.ffa595db-d719-4b0e-b5c2-af549c0fae1c{fill:url(#401de3eb-b9ca-439c-97b5-cd3b921a75fe);}.fa886aa0-3b7e-43a2-b6b4-f3e4dee36492{fill:url(#513854c5-55cb-4236-937a-3c2c9b08b6bc);}.\36 9b0a173-b19e-49c4-9ec3-0a5654fc73d1{fill:url(#b924eb53-dba3-432a-8abc-321b38e0d9e9);}</style><linearGradient id="e6e5cd4a-e07e-4ce4-bc3b-2483fba624da" x1="4.84" y1="20.68" x2="16.43" y2="0.6" gradientUnits="userSpaceOnUse"><stop offset="0" stop-color="#dadada"/><stop offset="0.12" stop-color="#e7e7e7"/><stop offset="0.31" stop-color="#f5f5f5"/><stop offset="0.55" stop-color="#fdfdfd"/><stop offset="1" stop-color="#fff"/></linearGradient><linearGradient id="09f76ef0-aebb-4782-b10f-078d6277ca64" x1="20.52" y1="12.33" x2="27.19" y2="5.66" gradientUnits="userSpaceOnUse"><stop offset="0" stop-color="#dadada"/><stop offset="0.12" stop-color="#e7e7e7"/><stop offset="0.31" stop-color="#f5f5f5"/><stop offset="0.55" stop-color="#fdfdfd"/><stop offset="1" stop-color="#fff"/></linearGradient><linearGradient id="ed145569-81fc-4940-9db0-e8e7a3de3e6c" x1="26.4" y1="13.61" x2="35.18" y2="4.82" xlink:href="#09f76ef0-aebb-4782-b10f-078d6277ca64"/><linearGradient id="401de3eb-b9ca-439c-97b5-cd3b921a75fe" x1="35.22" y1="13.61" x2="41.13" y2="7.7" xlink:href="#09f76ef0-aebb-4782-b10f-078d6277ca64"/><linearGradient id="513854c5-55cb-4236-937a-3c2c9b08b6bc" x1="44.06" y1="13.61" x2="49.97" y2="7.7" xlink:href="#09f76ef0-aebb-4782-b10f-078d6277ca64"/><linearGradient id="b924eb53-dba3-432a-8abc-321b38e0d9e9" x1="51.66" y1="14.83" x2="60" y2="6.49" xlink:href="#09f76ef0-aebb-4782-b10f-078d6277ca64"/></defs><title>Asset 33idees</title><g id="217a5d16-a587-4238-9ad3-69a1f70b7c68" data-name="Layer 2"><g id="8d2dccc4-f8a6-4d2c-9da9-f6c6bedf32e1" data-name="Capa 1"><path class="76140cc0-7028-4dcb-bc83-16c605c656a1" d="M21.12,13.39,17.91,2.6A3.63,3.63,0,0,0,13.39.15L2.6,3.37A3.63,3.63,0,0,0,.15,7.88l3.21,10.8a3.63,3.63,0,0,0,4.52,2.44l10.79-3.21A3.63,3.63,0,0,0,21.12,13.39Zm-4.05.3a3.28,3.28,0,0,1-2,1.64L7.14,17.68l-.55-1.84,7.91-2.36a1.47,1.47,0,0,0,.28-2.71,1.41,1.41,0,0,0-1.12-.12L5.75,13,5.2,11.18l7.91-2.36A1.47,1.47,0,0,0,14.1,7a1.47,1.47,0,0,0-1.83-1L4.36,8.36,3.81,6.51l7.91-2.36a3.39,3.39,0,0,1,4.22,2.28A3.29,3.29,0,0,1,15.68,9l0,0,0,0a3.4,3.4,0,0,1,1.37,4.6Z"/><path class="bcf4cd40-ebf7-4fde-9b17-fe10b2d9bdc2" d="M23,3.15h1.67V4.82H23Zm0,11.67h1.67V6.49H23Z"/><path class="01323aa5-3588-47ab-89ea-0ba7f4bed624" d="M31.85,7.32a4.18,4.18,0,0,0-5.45.4,4,4,0,0,0-1.22,2.95,4.17,4.17,0,0,0,7.12,2.95,4,4,0,0,0,1.22-2.95V3.15H31.85Zm-.73,5.11a2.5,2.5,0,0,1-4.27-1.77,2.5,2.5,0,1,1,4.27,1.77Z"/><path class="ffa595db-d719-4b0e-b5c2-af549c0fae1c" d="M42.18,9.5a4.17,4.17,0,0,0-8,2.33,4.17,4.17,0,0,0,7.66.84,4.18,4.18,0,0,0,.49-1.47l-1.9.55-.06.12a2.5,2.5,0,0,1-3.39,1,2.49,2.49,0,0,1-.84-.73l6.2-1.8A4.51,4.51,0,0,0,42.18,9.5Zm-6.51,1A2.49,2.49,0,0,1,36,9.45a2.5,2.5,0,0,1,3.39-1,2.49,2.49,0,0,1,.84.73Z"/><path class="fa886aa0-3b7e-43a2-b6b4-f3e4dee36492" d="M51,9.5a4.17,4.17,0,0,0-8,2.33,4.17,4.17,0,0,0,7.66.84,4.18,4.18,0,0,0,.49-1.47l-1.9.55-.06.12a2.5,2.5,0,0,1-3.39,1,2.49,2.49,0,0,1-.84-.73l6.2-1.8A4.51,4.51,0,0,0,51,9.5Zm-6.51,1a2.49,2.49,0,0,1,.32-1.06,2.5,2.5,0,0,1,3.39-1,2.49,2.49,0,0,1,.84.73Z"/><path class="69b0a173-b19e-49c4-9ec3-0a5654fc73d1" d="M54.16,8.16H60V6.49H54.16A2.51,2.51,0,0,0,51.66,9a2.51,2.51,0,0,0,2.5,2.5H57.5a.83.83,0,0,1,0,1.67H51.66v1.67H57.5a2.51,2.51,0,0,0,2.5-2.5,2.51,2.51,0,0,0-2.5-2.5H54.16a.83.83,0,0,1,0-1.67Z"/></g></g></svg>