<svg xmlns="http://www.w3.org/2000/svg" xmlns:xlink="http://www.w3.org/1999/xlink" viewBox="0 0 60 43.26"><defs><style>.\32 cfb1e16-f917-41ae-aeb3-7cea792ba8f5{fill:url(#11801cd9-1d9b-4d95-9755-17873562a18b);}.e5e63320-c441-4a57-9c62-6d79ce60914a{fill:url(#3737dd3a-2f3a-4caa-89dd-0dcf1c299aca);}.\30 558e43b-4bd0-4830-8b2b-711f83efbb8b{fill:url(#33f531d4-af3d-4e80-8367-8650c0707fe4);}.\36 da3732c-c009-435f-a789-5cd445b1313a{fill:url(#64e18e7f-c24a-47be-8711-6637b65c57bf);}.\37 2932f67-f5de-41f9-9e8d-089321ca0740{fill:url(#e5bc604e-e05b-481f-a178-5c8b5d7f2cf3);}.\33 a8a7b13-c317-4711-b54c-ba18581b6e7f{fill:url(#59015a27-3def-4ff7-aa45-37c46b5a618d);}.\38 0beab5e-27e6-4b64-8a13-1709615869f2{fill:url(#a7344f7d-9e9d-40ab-998f-44d4c0711b4a);}.d6351077-307e-4db9-94b1-63ef1e2763f7{fill:url(#bab78008-110f-4620-936d-60ff9be5f06a);}.\39 40ce18c-7909-47cd-85ec-6963a3805e99{fill:url(#91ee4ec5-f780-4e41-92c1-8efe87c1fdea);}.\31 b31e94c-9ee5-4b93-a03a-0926900c1791{fill:url(#5c5f444f-152a-46b5-8225-35c21f5ddb03);}.\39 7226840-f1ad-40e1-99e9-8278e4e1be11{fill:url(#d4e44fd9-326f-4760-83c2-4b0388fce234);}.\33 b29c52f-b127-436c-9ee2-085519504a54{fill:url(#dc54e1f7-f87a-4835-b9ad-8cd773e60255);}</style><linearGradient id="11801cd9-1d9b-4d95-9755-17873562a18b" x1="2.67" y1="2.67" x2="18.6" y2="18.6" gradientUnits="userSpaceOnUse"><stop offset="0" stop-color="#00a977"/><stop offset="0.18" stop-color="#00a97c"/><stop offset="0.38" stop-color="#00a889"/><stop offset="0.59" stop-color="#00a69f"/><stop offset="0.8" stop-color="#00a4be"/><stop offset="1" stop-color="#00a2e2"/></linearGradient><linearGradient id="3737dd3a-2f3a-4caa-89dd-0dcf1c299aca" x1="20.52" y1="12.33" x2="27.19" y2="5.66" gradientUnits="userSpaceOnUse"><stop offset="0" stop-color="#706f6f"/><stop offset="0" stop-color="#706f6f"/><stop offset="0.21" stop-color="#595858"/><stop offset="0.43" stop-color="#494848"/><stop offset="0.67" stop-color="#3f3f3e"/><stop offset="1" stop-color="#3c3c3b"/></linearGradient><linearGradient id="33f531d4-af3d-4e80-8367-8650c0707fe4" x1="26.4" y1="13.61" x2="35.18" y2="4.82" xlink:href="#3737dd3a-2f3a-4caa-89dd-0dcf1c299aca"/><linearGradient id="64e18e7f-c24a-47be-8711-6637b65c57bf" x1="35.22" y1="13.61" x2="41.13" y2="7.7" xlink:href="#3737dd3a-2f3a-4caa-89dd-0dcf1c299aca"/><linearGradient id="e5bc604e-e05b-481f-a178-5c8b5d7f2cf3" x1="44.06" y1="13.61" x2="49.97" y2="7.7" xlink:href="#3737dd3a-2f3a-4caa-89dd-0dcf1c299aca"/><linearGradient id="59015a27-3def-4ff7-aa45-37c46b5a618d" x1="51.66" y1="14.83" x2="60" y2="6.49" xlink:href="#3737dd3a-2f3a-4caa-89dd-0dcf1c299aca"/><linearGradient id="a7344f7d-9e9d-40ab-998f-44d4c0711b4a" x1="4.84" y1="42.66" x2="16.43" y2="22.58" gradientUnits="userSpaceOnUse"><stop offset="0" stop-color="#3c3c3b"/><stop offset="0.28" stop-color="#40403f"/><stop offset="0.56" stop-color="#4c4c4b"/><stop offset="0.83" stop-color="#605f5f"/><stop offset="1" stop-color="#706f6f"/></linearGradient><linearGradient id="bab78008-110f-4620-936d-60ff9be5f06a" x1="27.19" y1="27.64" x2="20.52" y2="34.31" xlink:href="#3737dd3a-2f3a-4caa-89dd-0dcf1c299aca"/><linearGradient id="91ee4ec5-f780-4e41-92c1-8efe87c1fdea" x1="35.18" y1="26.81" x2="26.4" y2="35.59" xlink:href="#3737dd3a-2f3a-4caa-89dd-0dcf1c299aca"/><linearGradient id="5c5f444f-152a-46b5-8225-35c21f5ddb03" x1="41.13" y1="29.69" x2="35.22" y2="35.6" xlink:href="#3737dd3a-2f3a-4caa-89dd-0dcf1c299aca"/><linearGradient id="d4e44fd9-326f-4760-83c2-4b0388fce234" x1="49.97" y1="29.69" x2="44.06" y2="35.6" xlink:href="#3737dd3a-2f3a-4caa-89dd-0dcf1c299aca"/><linearGradient id="dc54e1f7-f87a-4835-b9ad-8cd773e60255" x1="60" y1="28.47" x2="51.66" y2="36.81" xlink:href="#3737dd3a-2f3a-4caa-89dd-0dcf1c299aca"/></defs><title>Asset 23idees</title><g id="abf5a41f-04a1-4ef3-a2a3-7835fbcb2094" data-name="Layer 2"><g id="b0d54953-4dc3-452c-a035-c54b7687adb9" data-name="Capa 1"><path class="2cfb1e16-f917-41ae-aeb3-7cea792ba8f5" d="M21.12,13.39,17.91,2.6A3.63,3.63,0,0,0,13.39.15L2.6,3.37A3.63,3.63,0,0,0,.15,7.88l3.21,10.8a3.63,3.63,0,0,0,4.52,2.44l10.79-3.21A3.63,3.63,0,0,0,21.12,13.39Zm-4.05.3a3.28,3.28,0,0,1-2,1.64L7.14,17.68l-.55-1.84,7.91-2.36a1.47,1.47,0,0,0,.28-2.71,1.41,1.41,0,0,0-1.12-.12L5.75,13,5.2,11.18l7.91-2.36A1.47,1.47,0,0,0,14.1,7a1.47,1.47,0,0,0-1.83-1L4.36,8.36,3.81,6.51l7.91-2.36a3.39,3.39,0,0,1,4.22,2.28A3.29,3.29,0,0,1,15.68,9l0,0,0,0a3.4,3.4,0,0,1,1.37,4.6Z"/><path class="e5e63320-c441-4a57-9c62-6d79ce60914a" d="M23,3.15h1.67V4.82H23Zm0,11.67h1.67V6.49H23Z"/><path class="0558e43b-4bd0-4830-8b2b-711f83efbb8b" d="M31.85,7.32a4.18,4.18,0,0,0-5.45.4,4,4,0,0,0-1.22,2.95,4.17,4.17,0,0,0,7.12,2.95,4,4,0,0,0,1.22-2.95V3.15H31.85Zm-.73,5.11a2.5,2.5,0,0,1-4.27-1.77,2.5,2.5,0,1,1,4.27,1.77Z"/><path class="6da3732c-c009-435f-a789-5cd445b1313a" d="M42.18,9.5a4.17,4.17,0,0,0-8,2.33,4.17,4.17,0,0,0,7.66.84,4.18,4.18,0,0,0,.49-1.47l-1.9.55-.06.12a2.5,2.5,0,0,1-3.39,1,2.49,2.49,0,0,1-.84-.73l6.2-1.8A4.51,4.51,0,0,0,42.18,9.5Zm-6.51,1A2.49,2.49,0,0,1,36,9.45a2.5,2.5,0,0,1,3.39-1,2.5,2.5,0,0,1,.84.73Z"/><path class="72932f67-f5de-41f9-9e8d-089321ca0740" d="M51,9.5a4.17,4.17,0,0,0-8,2.33,4.17,4.17,0,0,0,7.66.84,4.18,4.18,0,0,0,.49-1.47l-1.9.55-.06.12a2.5,2.5,0,0,1-3.39,1,2.49,2.49,0,0,1-.84-.73l6.2-1.8A4.51,4.51,0,0,0,51,9.5Zm-6.51,1a2.49,2.49,0,0,1,.32-1.06,2.5,2.5,0,0,1,3.39-1,2.49,2.49,0,0,1,.84.73Z"/><path class="3a8a7b13-c317-4711-b54c-ba18581b6e7f" d="M54.16,8.16H60V6.49H54.16A2.51,2.51,0,0,0,51.66,9a2.51,2.51,0,0,0,2.5,2.5H57.5a.83.83,0,0,1,0,1.67H51.66v1.67H57.5a2.51,2.51,0,0,0,2.5-2.5,2.51,2.51,0,0,0-2.5-2.5H54.16a.83.83,0,0,1,0-1.67Z"/><path class="80beab5e-27e6-4b64-8a13-1709615869f2" d="M21.12,35.38l-3.21-10.8a3.63,3.63,0,0,0-4.52-2.44L2.6,25.35A3.63,3.63,0,0,0,.15,29.87l3.21,10.8a3.63,3.63,0,0,0,4.52,2.44L18.68,39.9A3.63,3.63,0,0,0,21.12,35.38Zm-4.05.3a3.28,3.28,0,0,1-2,1.64L7.14,39.67l-.55-1.84,7.91-2.36a1.47,1.47,0,1,0-.84-2.82L5.75,35,5.2,33.16l7.91-2.36A1.47,1.47,0,1,0,12.27,28L4.36,30.34,3.81,28.5l7.91-2.36a3.4,3.4,0,0,1,4,4.87l0,0,0,0a3.4,3.4,0,0,1,1.37,4.6Z"/><path class="d6351077-307e-4db9-94b1-63ef1e2763f7" d="M23,25.14h1.67v1.67H23Zm0,11.67h1.67V28.47H23Z"/><path class="940ce18c-7909-47cd-85ec-6963a3805e99" d="M31.85,29.3a4.17,4.17,0,0,0-5.45,6.29,4.17,4.17,0,0,0,7.12-2.95V25.14H31.85Zm-.73,5.11a2.5,2.5,0,1,1,.73-1.77A2.41,2.41,0,0,1,31.11,34.41Z"/><path class="1b31e94c-9ee5-4b93-a03a-0926900c1791" d="M42.18,31.48a4.17,4.17,0,1,0-.35,3.17,4.18,4.18,0,0,0,.49-1.47l-1.9.55-.06.12a2.5,2.5,0,0,1-3.39,1,2.49,2.49,0,0,1-.84-.73l6.2-1.8A4.51,4.51,0,0,0,42.18,31.48Zm-6.51,1A2.49,2.49,0,0,1,36,31.44a2.5,2.5,0,0,1,3.39-1,2.5,2.5,0,0,1,.84.73Z"/><path class="97226840-f1ad-40e1-99e9-8278e4e1be11" d="M51,31.48a4.17,4.17,0,1,0-.35,3.17,4.18,4.18,0,0,0,.49-1.47l-1.9.55-.06.12a2.5,2.5,0,0,1-3.39,1A2.49,2.49,0,0,1,45,34.1l6.2-1.8A4.51,4.51,0,0,0,51,31.48Zm-6.51,1a2.49,2.49,0,0,1,.32-1.06,2.5,2.5,0,0,1,3.39-1,2.49,2.49,0,0,1,.84.73Z"/><path class="3b29c52f-b127-436c-9ee2-085519504a54" d="M54.16,30.14H60V28.47H54.16a2.5,2.5,0,0,0,0,5H57.5a.83.83,0,0,1,0,1.67H51.66v1.67H57.5a2.5,2.5,0,0,0,0-5H54.16a.83.83,0,0,1,0-1.67Z"/></g></g></svg>