<svg xmlns="http://www.w3.org/2000/svg" xmlns:xlink="http://www.w3.org/1999/xlink" viewBox="0 0 60 21.28"><defs><style>.\35 ae37a78-1e12-4c73-b8c8-157ae67e1852{fill:url(#61d8bba6-4fa6-4743-88c4-2289499a676f);}.c025ccde-4d20-4456-9727-4895b80c1597{fill:url(#ef333a71-0d8e-4da9-aea0-d8af296ee21d);}.\31 00df715-2ba1-4740-a70c-ae8842dc084e{fill:url(#612125f4-981e-4bcb-93cb-8392d4f077f9);}.\34 5775187-1d49-4831-8792-f41c2d965b2e{fill:url(#7f2487b4-7fcf-4c71-b177-660ae2993147);}.\39 4a3fc6e-c63d-4f3c-aa50-d5aa55527e9f{fill:url(#6fb30f1a-a279-45ea-b87f-b060571ca89b);}.\33 1f63e3e-dda9-4813-9576-af3cda9cc43a{fill:url(#75043601-0d09-4257-b866-37cfdac96d61);}</style><linearGradient id="61d8bba6-4fa6-4743-88c4-2289499a676f" x1="2.67" y1="2.67" x2="18.6" y2="18.6" gradientUnits="userSpaceOnUse"><stop offset="0" stop-color="#00a777"/><stop offset="0.18" stop-color="#00a77c"/><stop offset="0.38" stop-color="#00a689"/><stop offset="0.59" stop-color="#00a59f"/><stop offset="0.8" stop-color="#00a3be"/><stop offset="1" stop-color="#00a1e1"/></linearGradient><linearGradient id="ef333a71-0d8e-4da9-aea0-d8af296ee21d" x1="20.52" y1="12.33" x2="27.19" y2="5.66" gradientUnits="userSpaceOnUse"><stop offset="0" stop-color="#6f6f6e"/><stop offset="0.2" stop-color="#595958"/><stop offset="0.42" stop-color="#494948"/><stop offset="0.67" stop-color="#3f3f3e"/><stop offset="1" stop-color="#3c3c3b"/></linearGradient><linearGradient id="612125f4-981e-4bcb-93cb-8392d4f077f9" x1="26.4" y1="13.61" x2="35.18" y2="4.82" xlink:href="#ef333a71-0d8e-4da9-aea0-d8af296ee21d"/><linearGradient id="7f2487b4-7fcf-4c71-b177-660ae2993147" x1="35.22" y1="13.61" x2="41.13" y2="7.7" xlink:href="#ef333a71-0d8e-4da9-aea0-d8af296ee21d"/><linearGradient id="6fb30f1a-a279-45ea-b87f-b060571ca89b" x1="44.06" y1="13.61" x2="49.97" y2="7.7" xlink:href="#ef333a71-0d8e-4da9-aea0-d8af296ee21d"/><linearGradient id="75043601-0d09-4257-b866-37cfdac96d61" x1="51.66" y1="14.83" x2="60" y2="6.49" xlink:href="#ef333a71-0d8e-4da9-aea0-d8af296ee21d"/></defs><title>Asset 13idees</title><g id="5720572d-08a4-4c4e-8c67-5c7dd7de004a" data-name="Layer 2"><g id="6b86141d-568b-4551-a381-18c0039fc814" data-name="Layer 1"><path class="5ae37a78-1e12-4c73-b8c8-157ae67e1852" d="M21.12,13.39,17.91,2.6A3.63,3.63,0,0,0,13.39.15L2.6,3.37A3.63,3.63,0,0,0,.15,7.88l3.21,10.8a3.63,3.63,0,0,0,4.52,2.44l10.79-3.21A3.63,3.63,0,0,0,21.12,13.39Zm-4.05.3a3.28,3.28,0,0,1-2,1.64L7.14,17.68l-.55-1.84,7.91-2.36a1.47,1.47,0,0,0,.28-2.71,1.41,1.41,0,0,0-1.12-.12L5.75,13,5.2,11.18l7.91-2.36A1.47,1.47,0,0,0,14.1,7a1.47,1.47,0,0,0-1.83-1L4.36,8.36,3.81,6.51l7.91-2.36a3.39,3.39,0,0,1,4.22,2.28A3.29,3.29,0,0,1,15.68,9l0,0,0,0a3.4,3.4,0,0,1,1.37,4.6Z"/><path class="c025ccde-4d20-4456-9727-4895b80c1597" d="M23,3.15h1.67V4.82H23Zm0,11.67h1.67V6.49H23Z"/><path class="100df715-2ba1-4740-a70c-ae8842dc084e" d="M31.85,7.32a4.18,4.18,0,0,0-5.45.4,4,4,0,0,0-1.22,2.95,4.17,4.17,0,0,0,7.12,2.95,4,4,0,0,0,1.22-2.95V3.15H31.85Zm-.73,5.11a2.5,2.5,0,0,1-4.27-1.77,2.5,2.5,0,1,1,4.27,1.77Z"/><path class="45775187-1d49-4831-8792-f41c2d965b2e" d="M42.18,9.5a4.17,4.17,0,0,0-8,2.33,4.17,4.17,0,0,0,7.66.84,4.18,4.18,0,0,0,.49-1.47l-1.9.55-.06.12a2.5,2.5,0,0,1-3.39,1,2.49,2.49,0,0,1-.84-.73l6.2-1.8A4.51,4.51,0,0,0,42.18,9.5Zm-6.51,1A2.49,2.49,0,0,1,36,9.45a2.5,2.5,0,0,1,3.39-1,2.5,2.5,0,0,1,.84.73Z"/><path class="94a3fc6e-c63d-4f3c-aa50-d5aa55527e9f" d="M51,9.5a4.17,4.17,0,0,0-8,2.33,4.17,4.17,0,0,0,7.66.84,4.18,4.18,0,0,0,.49-1.47l-1.9.55-.06.12a2.5,2.5,0,0,1-3.39,1,2.49,2.49,0,0,1-.84-.73l6.2-1.8A4.51,4.51,0,0,0,51,9.5Zm-6.51,1a2.49,2.49,0,0,1,.32-1.06,2.5,2.5,0,0,1,3.39-1,2.49,2.49,0,0,1,.84.73Z"/><path class="31f63e3e-dda9-4813-9576-af3cda9cc43a" d="M54.16,8.16H60V6.49H54.16A2.51,2.51,0,0,0,51.66,9a2.51,2.51,0,0,0,2.5,2.5H57.5a.83.83,0,0,1,0,1.67H51.66v1.67H57.5a2.51,2.51,0,0,0,2.5-2.5,2.51,2.51,0,0,0-2.5-2.5H54.16a.83.83,0,0,1,0-1.67Z"/></g></g></svg>